<svg width="24" height="24" viewBox="0 0 24 24" fill="none" xmlns="http://www.w3.org/2000/svg">
<path d="M22.2829 4H1.71707C0.768757 4 0 4.85961 0 5.92V18.08C0 19.1404 0.768757 20 1.71707 20H22.2829C23.2312 20 24 19.1404 24 18.08V5.92C24 4.85961 23.2312 4 22.2829 4Z" fill="white"/>
<path fill-rule="evenodd" clip-rule="evenodd" d="M10.3785 12.3128H9.61806V12.0227C9.61806 11.6454 9.83978 11.5374 10.0311 11.5374C10.2421 11.5374 10.4065 11.6285 10.4065 11.6285L10.6654 11.0533C10.6654 11.0533 10.403 10.8865 9.92594 10.8865C9.38962 10.8865 8.77939 11.1805 8.77939 12.103V12.3128H7.50637V12.0227C7.50637 11.6454 7.72809 11.5374 7.91898 11.5374C8.02767 11.5374 8.1739 11.562 8.29484 11.6285L8.55372 11.0533C8.39918 10.9649 8.15098 10.8865 7.81425 10.8865C7.27793 10.8865 6.6677 11.1805 6.6677 12.103V12.3128H6.18078V12.9422H6.6677V15.1659H7.50637V12.9422H8.77939V15.1659H9.61806V12.9422H10.3785V12.3128ZM4.25477 14.6539C4.03423 14.6539 3.92436 14.5487 3.92436 14.3746C3.92436 14.0526 4.29508 13.9423 4.97171 13.8728C4.97171 14.3035 4.67213 14.6539 4.25477 14.6539ZM4.54645 12.229C4.06309 12.229 3.50661 12.4507 3.20466 12.6847L3.48052 13.2491C3.7228 13.0336 4.11446 12.8495 4.4678 12.8495C4.80334 12.8495 4.9887 12.9587 4.9887 13.1781C4.9887 13.3264 4.86579 13.4009 4.6334 13.4301C3.76627 13.54 3.08569 13.7725 3.08569 14.4226C3.08569 14.9379 3.46313 15.2499 4.05281 15.2499C4.47333 15.2499 4.848 15.0224 5.02625 14.7223V15.1658H5.81038V13.3079C5.81038 12.5406 5.2618 12.229 4.54645 12.229ZM12.4205 12.3129V15.1659H13.26V13.7915C13.26 13.1379 13.6667 12.9461 13.9504 12.9461C14.0611 12.9461 14.2105 12.9773 14.3093 13.0491L14.4622 12.2948C14.3326 12.241 14.1971 12.2291 14.086 12.2291C13.6544 12.2291 13.3833 12.4151 13.2042 12.7924V12.3129H12.4205ZM17.4053 12.7302C17.578 12.4843 17.9096 12.2291 18.3534 12.2291C18.8898 12.2291 19.3336 12.5527 19.3336 13.194V15.1659H18.4949V13.4518C18.4949 13.0741 18.261 12.9173 18.0392 12.9173C17.7618 12.9173 17.4843 13.164 17.4843 13.6973V15.1659H16.6457V13.4576C16.6457 13.0683 16.4251 12.9173 16.1852 12.9173C15.92 12.9173 15.6363 13.1698 15.6363 13.6973V15.1659H14.7964V12.3129H15.6054V12.7444C15.7473 12.4689 16.0544 12.2291 16.4982 12.2291C16.9049 12.2291 17.2448 12.4124 17.4053 12.7302ZM11.7169 15.166H10.879V12.313H11.7169V15.166Z" fill="#060809"/>
<path fill-rule="evenodd" clip-rule="evenodd" d="M15.7675 8.33347C13.5021 8.33347 11.4829 9.86238 10.9098 11.8282H11.7311C12.2097 10.3642 13.8345 9.07929 15.7675 9.07929C18.1171 9.07929 20.1478 10.8184 20.1478 13.5258C20.1478 14.1337 20.0668 14.6816 19.9134 15.1658H20.7102L20.7181 15.1392C20.8485 14.6397 20.9149 14.0972 20.9149 13.5258C20.9149 10.5064 18.6519 8.33347 15.7675 8.33347Z" fill="#0FA0EA"/>
<path fill-rule="evenodd" clip-rule="evenodd" d="M22.2829 4.5H1.71707C1.09596 4.5 0.5 5.08177 0.5 5.92V18.08C0.5 18.9182 1.09596 19.5 1.71707 19.5H22.2829C22.904 19.5 23.5 18.9182 23.5 18.08V5.92C23.5 5.08177 22.904 4.5 22.2829 4.5ZM1.71707 4H22.2829C23.2312 4 24 4.85961 24 5.92V18.08C24 19.1404 23.2312 20 22.2829 20H1.71707C0.768757 20 0 19.1404 0 18.08V5.92C0 4.85961 0.768757 4 1.71707 4Z" fill="#CCCFD9"/>
</svg>
