<svg width="24" height="24" viewBox="0 0 24 24" fill="none" xmlns="http://www.w3.org/2000/svg">
<rect y="4" width="24" height="16" rx="2.5" fill="#1F72CD"/>
<path fill-rule="evenodd" clip-rule="evenodd" d="M4.30311 9.5L2.05762 14.4692H4.74578L5.07904 13.6769H5.84078L6.17404 14.4692H9.13295V13.8645L9.39661 14.4692H10.9272L11.1909 13.8517V14.4692H17.3446L18.0929 13.6975L18.7935 14.4692L21.9542 14.4756L19.7016 11.9985L21.9542 9.5H18.8425L18.1141 10.2575L17.4355 9.5H10.7411L10.1662 10.7826L9.57789 9.5H6.89534V10.0841L6.59692 9.5H4.30311ZM4.82294 10.2056H6.13328L7.62271 13.5753V10.2056H9.05813L10.2085 12.6217L11.2688 10.2056H12.697V13.7714H11.828L11.8209 10.9773L10.5539 13.7714H9.77647L8.50237 10.9773V13.7714H6.71452L6.37558 12.972H4.54439L4.20615 13.7707H3.24824L4.82294 10.2056ZM17.0262 10.2056H13.4924V13.7693H16.9715L18.0928 12.5882L19.1737 13.7693H20.3035L18.6613 11.9978L20.3035 10.2056H19.2227L18.107 11.3731L17.0262 10.2056ZM5.46003 10.809L4.85672 12.233H6.06263L5.46003 10.809ZM14.3657 11.5948V10.9439V10.9432H16.5706L17.5327 11.9842L16.528 13.0309H14.3657V12.3203H16.2935V11.5948H14.3657Z" fill="white"/>
</svg>
