<svg width="24" height="24" viewBox="0 0 24 24" fill="none" xmlns="http://www.w3.org/2000/svg">
<path d="M22.2829 4H1.71707C0.768757 4 0 4.85961 0 5.92V18.08C0 19.1404 0.768757 20 1.71707 20H22.2829C23.2312 20 24 19.1404 24 18.08V5.92C24 4.85961 23.2312 4 22.2829 4Z" fill="white"/>
<path fill-rule="evenodd" clip-rule="evenodd" d="M22.2829 4.5H1.71707C1.09596 4.5 0.5 5.08177 0.5 5.92V18.08C0.5 18.9182 1.09596 19.5 1.71707 19.5H22.2829C22.904 19.5 23.5 18.9182 23.5 18.08V5.92C23.5 5.08177 22.904 4.5 22.2829 4.5ZM1.71707 4H22.2829C23.2312 4 24 4.85961 24 5.92V18.08C24 19.1404 23.2312 20 22.2829 20H1.71707C0.768757 20 0 19.1404 0 18.08V5.92C0 4.85961 0.768757 4 1.71707 4Z" fill="#CCCFD9"/>
<path d="M6.54995 9.61178C6.72785 9.39683 6.85385 9.10405 6.85385 8.80757C6.85385 8.7668 6.85015 8.72604 6.84273 8.69268C6.55366 8.7038 6.20529 8.8854 5.99775 9.13C5.83469 9.3153 5.68274 9.61178 5.68274 9.90827C5.68274 9.95274 5.69015 9.99721 5.69386 10.012C5.71239 10.0157 5.74203 10.0195 5.77168 10.0195C6.03111 10.0195 6.35724 9.84527 6.54995 9.61178ZM6.75379 10.0825C6.32018 10.0825 5.9681 10.3456 5.74203 10.3456C5.50114 10.3456 5.18613 10.0973 4.80811 10.0973C4.09284 10.0973 3.36645 10.6902 3.36645 11.8058C3.36645 12.5025 3.63329 13.2363 3.96683 13.7107C4.2522 14.1109 4.50051 14.4408 4.85999 14.4408C5.21577 14.4408 5.37143 14.2036 5.81245 14.2036C6.26088 14.2036 6.36095 14.4334 6.75379 14.4334C7.14292 14.4334 7.40235 14.0776 7.64695 13.7255C7.9212 13.3215 8.03608 12.9287 8.03979 12.9102C8.01755 12.9028 7.27264 12.5989 7.27264 11.7465C7.27264 11.009 7.85819 10.6791 7.89155 10.6532C7.50612 10.0973 6.91685 10.0825 6.75379 10.0825ZM8.55524 14.4H9.5114V12.6322H10.6899C11.7758 12.6322 12.5096 11.9132 12.5096 10.8459V10.8385C12.5096 9.76744 11.7758 9.05217 10.6899 9.05217H8.55524V14.4ZM10.4564 9.83415C11.1421 9.83415 11.5423 10.201 11.5423 10.8422V10.8496C11.5423 11.4908 11.1421 11.8614 10.4564 11.8614H9.5114V9.83415H10.4564ZM14.022 14.4667C14.5557 14.4667 14.9856 14.2369 15.2079 13.8441H15.2709V14.4H16.1826V11.6316C16.1826 10.7755 15.5971 10.2715 14.5557 10.2715C13.5921 10.2715 12.9398 10.7236 12.8509 11.4055L12.8472 11.4389H13.7181L13.7218 11.424C13.8144 11.1572 14.0887 11.0053 14.5112 11.0053C15.0078 11.0053 15.2709 11.2276 15.2709 11.6316V11.98L14.2295 12.043C13.2437 12.1023 12.6915 12.5247 12.6915 13.2474V13.2548C12.6915 13.9923 13.2511 14.4667 14.022 14.4667ZM13.6032 13.2104V13.203C13.6032 12.8694 13.8441 12.6804 14.3592 12.647L15.2709 12.5877V12.9139C15.2709 13.3957 14.8596 13.7589 14.3036 13.7589C13.896 13.7589 13.6032 13.555 13.6032 13.2104ZM17.1947 15.8231C18.0915 15.8231 18.5548 15.5007 18.9032 14.4852L20.3559 10.3493H19.385L18.4436 13.5143H18.3732L17.4282 10.3493H16.4201L17.8692 14.4037L17.821 14.589C17.7209 14.9559 17.4949 15.1116 17.1169 15.1116C17.0205 15.1116 16.9167 15.1079 16.8426 15.1005V15.8083C16.9538 15.8194 17.0835 15.8231 17.1947 15.8231Z" fill="black"/>
</svg>
