<svg width="24" height="24" viewBox="0 0 24 24" fill="none" xmlns="http://www.w3.org/2000/svg">
<path d="M22.2857 4H1.71429C0.767512 4 0 4.85961 0 5.92V18.08C0 19.1404 0.767512 20 1.71429 20H22.2857C23.2325 20 24 19.1404 24 18.08V5.92C24 4.85961 23.2325 4 22.2857 4Z" fill="white"/>
<path fill-rule="evenodd" clip-rule="evenodd" d="M22.2857 4.5H1.71429C1.09543 4.5 0.5 5.08097 0.5 5.92V18.08C0.5 18.919 1.09543 19.5 1.71429 19.5H22.2857C22.9046 19.5 23.5 18.919 23.5 18.08V5.92C23.5 5.08097 22.9046 4.5 22.2857 4.5ZM1.71429 4H22.2857C23.2325 4 24 4.85961 24 5.92V18.08C24 19.1404 23.2325 20 22.2857 20H1.71429C0.767512 20 0 19.1404 0 18.08V5.92C0 4.85961 0.767512 4 1.71429 4Z" fill="#CCCFD9"/>
<g clip-path="url(#clip0_4191_69957)">
<path d="M2 18.1103V15.2215H2.88778C3.53587 15.2215 3.95312 15.4647 3.95312 15.9681C3.95789 16.087 3.93098 16.2051 3.87513 16.3103C3.81929 16.4154 3.73653 16.5038 3.6353 16.5665C3.76746 16.6249 3.87882 16.722 3.95472 16.845C4.03063 16.968 4.06752 17.111 4.06055 17.2554C4.06055 17.8369 3.6353 18.1094 2.97479 18.1094L2 18.1103ZM2.57351 16.4235H2.99876C3.25888 16.4235 3.36985 16.2957 3.36985 16.0604C3.36985 15.8083 3.16744 15.7257 2.89489 15.7257H2.57262L2.57351 16.4235ZM2.57351 17.6078H2.92862C3.27575 17.6078 3.47727 17.5191 3.47727 17.2527C3.47727 16.9864 3.29972 16.8727 2.97745 16.8727H2.57262L2.57351 17.6078ZM5.17561 18.1609C4.61009 18.1609 4.32511 17.8848 4.32511 17.5128C4.32511 17.1045 4.6598 16.8648 5.1543 16.8603C5.27744 16.8625 5.40027 16.8735 5.52184 16.8932V16.7937C5.52184 16.5416 5.37713 16.4226 5.10103 16.4226C4.91463 16.4204 4.72954 16.4541 4.55593 16.5221L4.45295 16.0782C4.6805 15.9953 4.92099 15.9535 5.16318 15.9548C5.76953 15.9548 6.07138 16.277 6.07138 16.8337V17.978C5.78867 18.1038 5.48134 18.1645 5.17205 18.1556L5.17561 18.1609ZM5.52184 17.6948V17.2509C5.42563 17.2296 5.32742 17.2186 5.22887 17.2181C5.03889 17.2181 4.89063 17.2927 4.89063 17.4844C4.89063 17.662 5.01403 17.7508 5.23331 17.7508C5.33264 17.754 5.43138 17.7342 5.52184 17.6931V17.6948ZM6.47621 18.1121V16.1332C6.77317 16.0154 7.08981 15.9552 7.40927 15.9557C8.01208 15.9557 8.35831 16.2531 8.35831 16.8017V18.1139H7.78835V16.839C7.78835 16.554 7.65607 16.4218 7.40483 16.4218C7.27983 16.4201 7.15596 16.4455 7.04173 16.4963V18.1103L6.47621 18.1121ZM10.3487 16.0773L10.2413 16.5274C10.0939 16.4636 9.93573 16.4287 9.77521 16.4244C9.44052 16.4244 9.25941 16.6597 9.25941 17.0459C9.25941 17.4711 9.4494 17.6895 9.80451 17.6895C9.96291 17.6851 10.1188 17.6486 10.2626 17.5821L10.3514 18.0402C10.1646 18.1233 9.96184 18.1643 9.75746 18.16C9.07209 18.16 8.67614 17.7348 8.67614 17.0618C8.67614 16.3889 9.06854 15.9512 9.72461 15.9512C9.93794 15.9503 10.1493 15.9922 10.3461 16.0746L10.3487 16.0773ZM11.5792 18.1618C10.9435 18.1618 10.5476 17.7179 10.5476 17.0556C10.5476 16.3933 10.9435 15.9539 11.5792 15.9539C12.2148 15.9539 12.6072 16.3978 12.6072 17.0556C12.6072 17.7135 12.2193 18.16 11.5792 18.16V18.1618ZM11.5792 17.6913C11.8722 17.6913 12.0231 17.448 12.0231 17.0556C12.0231 16.6632 11.8704 16.4244 11.5792 16.4244C11.288 16.4244 11.1291 16.6677 11.1291 17.0556C11.1291 17.4436 11.2898 17.6895 11.5792 17.6895V17.6913ZM12.9366 18.1121V16.1332C13.2336 16.0154 13.5502 15.9552 13.8697 15.9557C14.4725 15.9557 14.8187 16.2531 14.8187 16.8017V18.1139H14.2488V16.839C14.2488 16.554 14.1165 16.4218 13.8652 16.4218C13.7402 16.4201 13.6164 16.4455 13.5021 16.4963V18.1103L12.9366 18.1121ZM16.1033 18.1618C15.6124 18.1618 15.3603 17.8955 15.3603 17.3486V16.4608H15.0797V16.0072H15.3603V15.5491L15.9302 15.5198V16.0072H16.3883V16.4608H15.9302V17.3442C15.9302 17.5839 16.0297 17.6993 16.2152 17.6993C16.2887 17.699 16.3619 17.6907 16.4336 17.6744L16.4629 18.1325C16.3445 18.1554 16.2238 18.1647 16.1033 18.16V18.1618ZM17.5407 18.1618C16.9751 18.1618 16.6902 17.8857 16.6902 17.5137C16.6902 17.1053 17.0249 16.8656 17.5194 16.8612C17.6425 16.8634 17.7653 16.8744 17.8869 16.8941V16.7946C17.8869 16.5425 17.7422 16.4235 17.4661 16.4235C17.2797 16.4213 17.0946 16.455 16.921 16.523L16.818 16.0791C17.0456 15.9961 17.286 15.9544 17.5282 15.9557C18.1346 15.9557 18.4364 16.2779 18.4364 16.8346V17.978C18.1552 18.1048 17.8491 18.167 17.5407 18.16V18.1618ZM17.8869 17.6957V17.2518C17.7907 17.2305 17.6925 17.2195 17.5939 17.219C17.4039 17.219 17.2557 17.2936 17.2557 17.4853C17.2557 17.6629 17.3791 17.7517 17.5984 17.7517C17.6978 17.7546 17.7965 17.7345 17.8869 17.6931V17.6957ZM20.3887 16.0782L20.2813 16.5283C20.1339 16.4645 19.9757 16.4295 19.8152 16.4253C19.4805 16.4253 19.2994 16.6606 19.2994 17.0467C19.2994 17.472 19.4893 17.6904 19.8445 17.6904C20.0029 17.686 20.1587 17.6495 20.3026 17.583L20.3913 18.0411C20.2046 18.1242 20.0018 18.1652 19.7974 18.1609C19.112 18.1609 18.7161 17.7357 18.7161 17.0627C18.7161 16.3898 19.1085 15.9521 19.7646 15.9521C19.9788 15.9508 20.1911 15.9928 20.3887 16.0755V16.0782ZM21.6405 18.1627C21.1495 18.1627 20.8974 17.8964 20.8974 17.3495V16.4617H20.6168V16.008H20.8974V15.5499L21.4673 15.5206V16.008H21.9254V16.4617H21.4673V17.345C21.4673 17.5848 21.5668 17.7002 21.7523 17.7002C21.8258 17.6999 21.899 17.6916 21.9707 17.6753L22 18.1334C21.8819 18.156 21.7615 18.1649 21.6413 18.16L21.6405 18.1627Z" fill="#1E3764"/>
<path d="M5.97283 13.7771C8.98686 13.7771 10.4934 11.768 12 9.75894H2V13.7771H5.97283Z" fill="url(#paint0_linear_4191_69957)"/>
<path d="M18.0272 5.73994C15.0131 5.73994 13.5066 7.749 12 9.75806H22V5.73994H18.0272Z" fill="url(#paint1_linear_4191_69957)"/>
</g>
<defs>
<linearGradient id="paint0_linear_4191_69957" x1="4.02237" y1="11.9527" x2="11.3377" y2="9.23604" gradientUnits="userSpaceOnUse">
<stop stop-color="#005AB9"/>
<stop offset="1" stop-color="#1E3764"/>
</linearGradient>
<linearGradient id="paint1_linear_4191_69957" x1="12.6055" y1="10.107" x2="20.3727" y2="7.45692" gradientUnits="userSpaceOnUse">
<stop stop-color="#FBA900"/>
<stop offset="1" stop-color="#FFD800"/>
</linearGradient>
<clipPath id="clip0_4191_69957">
<rect width="20" height="12.4201" fill="white" transform="translate(2 5.73994)"/>
</clipPath>
</defs>
</svg>
