<svg width="24" height="24" viewBox="0 0 24 24" fill="none" xmlns="http://www.w3.org/2000/svg">
<path d="M12 19.7441C16.2769 19.7441 19.7441 16.2769 19.7441 12C19.7441 7.72304 16.2769 4.25589 12 4.25589C7.72301 4.25589 4.25586 7.72304 4.25586 12C4.25586 16.2769 7.72301 19.7441 12 19.7441Z" fill="white"/>
<path fill-rule="evenodd" clip-rule="evenodd" d="M16.3982 15.9369H16.6257L16.5121 15.6714L16.3982 15.9369ZM16.4677 15.1879H16.5562L17.0554 16.2749H16.7773L16.7142 16.1455H16.3099L16.2497 16.2749H15.9655L16.4677 15.1879ZM14.9037 15.4123V15.1975H15.6936L15.7093 15.2323L15.2481 16.0601H15.681V16.2749H14.8657L14.8467 16.2401L15.3206 15.4123H14.9037ZM14.2812 15.1975H14.5339V16.2749L14.4769 16.2907L13.8608 15.7251V16.2749H13.6081V15.1975L13.6683 15.1818L14.2812 15.7441V15.1975ZM9.42497 15.1975L9.48512 15.1818L10.098 15.7441V15.1975H10.3507V16.2749L10.2938 16.2907L9.67446 15.7251V16.2749H9.42176L9.42497 15.1975ZM8.80568 15.5577C8.77733 15.5072 8.73616 15.4692 8.69203 15.4441C8.64469 15.4187 8.59736 15.4061 8.54361 15.4061C8.48987 15.4061 8.43933 15.4187 8.3952 15.4441C8.34786 15.4724 8.3099 15.5104 8.28155 15.5577C8.2532 15.6083 8.23742 15.6684 8.23742 15.7379C8.23742 15.8075 8.2532 15.8674 8.28155 15.9181C8.3099 15.9655 8.34786 16.0034 8.3952 16.0288C8.43933 16.0572 8.48987 16.07 8.54361 16.07C8.59415 16.07 8.64469 16.0574 8.69203 16.0288C8.73936 16.0034 8.77733 15.9657 8.80568 15.9181C8.83403 15.8676 8.84981 15.8075 8.84981 15.7379C8.84685 15.6652 8.83403 15.605 8.80568 15.5577ZM8.00642 15.9495C7.97807 15.8831 7.96525 15.8104 7.96525 15.7347C7.96525 15.6588 7.97782 15.5863 8.00642 15.52C8.03477 15.4505 8.07273 15.3935 8.12327 15.3398C8.17381 15.2892 8.23693 15.2481 8.30645 15.2197C8.37597 15.1914 8.45486 15.1756 8.54016 15.1756C8.62546 15.1756 8.70435 15.1914 8.77387 15.2197C8.8434 15.2481 8.90651 15.2892 8.95705 15.3398C9.00759 15.3903 9.04876 15.4505 9.07711 15.52C9.10546 15.5863 9.11828 15.659 9.11828 15.7347C9.11828 15.8107 9.10571 15.8831 9.07711 15.9495C9.04876 16.019 9.00759 16.0759 8.95705 16.1297C8.95384 16.1329 8.95064 16.1361 8.94768 16.139C8.89714 16.1864 8.84019 16.2243 8.77387 16.2527C8.70435 16.281 8.62546 16.2968 8.54016 16.2968C8.45486 16.2968 8.37597 16.281 8.30645 16.2527C8.24013 16.2243 8.17998 16.1896 8.13264 16.139C8.12944 16.1358 8.12623 16.1326 8.12327 16.1297C8.07273 16.0789 8.03477 16.019 8.00642 15.9495ZM12.7709 15.1879H12.8594L13.3587 16.2749H13.0806L13.0174 16.1455H12.6131L12.553 16.2749H12.2687L12.7709 15.1879ZM12.9257 15.9369L12.8121 15.6714L12.6984 15.9369H12.9257ZM11.7473 15.1975H12V16.2749H11.7473V15.1975ZM11.3775 15.8388H11.0427V16.2749H10.79V15.1975H11.4692V15.4123H11.0427V15.624H11.3775V15.8388ZM6.89726 15.327C6.95101 15.2764 7.01092 15.2417 7.08044 15.2163C7.14996 15.1909 7.22269 15.1783 7.29517 15.1751C7.3711 15.1751 7.43742 15.1877 7.49412 15.2034C7.55107 15.2224 7.5952 15.2446 7.63317 15.2698C7.66793 15.2952 7.69628 15.3203 7.71526 15.3393L7.56044 15.5225C7.55107 15.5099 7.53505 15.4971 7.5099 15.4783C7.48771 15.4593 7.45936 15.4436 7.42139 15.4246C7.38663 15.4088 7.3425 15.4024 7.29492 15.4024C7.23477 15.4024 7.18127 15.4182 7.13369 15.4465C7.08956 15.4749 7.05159 15.5128 7.0262 15.5634C6.99785 15.6139 6.98503 15.6677 6.98503 15.7276C6.98503 15.7875 6.9976 15.8412 7.01979 15.8918C7.04198 15.9423 7.07674 15.9835 7.12728 16.015C7.17141 16.0466 7.23156 16.0624 7.30109 16.0656C7.34226 16.0656 7.37998 16.0562 7.41474 16.0434C7.4495 16.0308 7.47785 16.015 7.50324 15.9961C7.52864 15.9771 7.54737 15.9613 7.56019 15.9455L7.71501 16.1097C7.7086 16.1191 7.69924 16.1255 7.69283 16.1351C7.67705 16.1509 7.65486 16.1699 7.63267 16.1888C7.59471 16.2172 7.54737 16.2426 7.49042 16.2616C7.43347 16.2805 7.36395 16.2931 7.28506 16.2931C7.17757 16.2931 7.0829 16.2677 6.9976 16.2204C6.95643 16.195 6.91871 16.1667 6.88395 16.1351C6.84919 16.1035 6.81763 16.0656 6.79224 16.0214C6.7417 15.9361 6.71631 15.8383 6.71631 15.7276C6.71631 15.6423 6.73209 15.5663 6.76685 15.4968C6.79619 15.4312 6.84056 15.3743 6.89726 15.327Z" fill="#684B99"/>
<path fill-rule="evenodd" clip-rule="evenodd" d="M14.1421 16.6856L14.3758 16.6824V17.9114L14.3221 17.9272L13.5827 17.1814V17.9111H13.349V16.6822L13.4027 16.6664L14.1389 17.4121L14.1421 16.6856ZM15.5924 16.8878H15.0649V17.191H15.5007V17.39H15.0646V17.7154H15.6112V17.9143H14.8277V16.6854H15.5922V16.8878H15.5924ZM12.1989 17.7156V17.9146H11.4596V16.6886H11.6933V17.7154H12.1989V17.7156ZM12.6035 16.6856H12.8404V17.9146H12.6035V16.6856ZM9.24791 17.0741C9.20994 17.011 9.16261 16.9605 9.09949 16.9257C9.03934 16.891 8.97623 16.872 8.9067 16.872C8.83718 16.872 8.77086 16.891 8.71071 16.9257C8.65056 16.9605 8.60322 17.0078 8.56526 17.0741C8.52729 17.1373 8.50831 17.2132 8.50831 17.3017C8.50831 17.387 8.52729 17.4629 8.56526 17.5292C8.60322 17.5924 8.65056 17.6399 8.71071 17.6747C8.77086 17.7095 8.83718 17.7252 8.9067 17.7284C8.97623 17.7284 9.04254 17.7095 9.09949 17.6747C9.15965 17.6399 9.21019 17.5926 9.24791 17.5292C9.28563 17.4659 9.30485 17.3902 9.30485 17.3017C9.30485 17.2132 9.28587 17.1375 9.24791 17.0741ZM9.24174 16.7487C9.33962 16.8057 9.41555 16.8846 9.4725 16.9795C9.52945 17.0774 9.5578 17.1848 9.5578 17.3017C9.5578 17.4186 9.52945 17.526 9.4725 17.6239C9.41555 17.7218 9.33986 17.7977 9.24174 17.8547C9.14387 17.9116 9.02997 17.94 8.90375 17.9432C8.77727 17.9432 8.66362 17.9116 8.56575 17.8547C8.46788 17.7977 8.39194 17.722 8.3382 17.6239C8.28125 17.526 8.2561 17.4186 8.2561 17.3017C8.2561 17.1848 8.28445 17.0774 8.3382 16.9795C8.39515 16.8848 8.47083 16.8089 8.56575 16.7487C8.66362 16.6918 8.77752 16.6634 8.90375 16.6634C9.03318 16.6634 9.14362 16.692 9.24174 16.7487ZM9.98405 16.6824L10.0378 16.6666L10.7739 17.4124V16.6827L11.0077 16.6794V17.9084L10.9539 17.9242L10.2146 17.1784V17.9082H9.98085L9.98405 16.6824Z" fill="#859EAF"/>
<path d="M12.1769 14.0189H12.0884C12.0852 14.0189 12.0852 14.0189 12.082 14.0189C11.0394 13.9967 10.1356 13.6113 9.39333 12.8752C8.63179 12.1233 8.24646 11.1975 8.24646 10.1231C8.24646 9.05517 8.63204 8.12944 9.39333 7.3711C10.1359 6.63816 11.0394 6.25578 12.0791 6.2336C12.0823 6.2336 12.0823 6.2336 12.0855 6.2336C12.2593 6.2336 12.4015 6.37264 12.4045 6.54645C12.4077 6.72346 12.2686 6.86867 12.0916 6.87187C11.2071 6.89085 10.4707 7.2005 9.84202 7.823C9.19758 8.46447 8.88473 9.2164 8.88473 10.1199C8.88473 11.0267 9.19758 11.7786 9.84202 12.4169C10.4707 13.0426 11.2068 13.3552 12.0884 13.3742H12.1737C13.0869 13.3742 13.8452 13.0613 14.4897 12.4169C15.1405 11.7786 15.4566 11.0267 15.4566 10.1199V10.082C15.4566 9.90497 15.5988 9.76296 15.7756 9.76296C15.9526 9.76296 16.0946 9.90521 16.0946 10.082V10.1199C16.0946 11.1911 15.7061 12.1169 14.9381 12.872C14.1832 13.6335 13.2511 14.0189 12.1769 14.0189Z" fill="#684B99"/>
<path d="M12 20C9.80092 20 7.89892 19.2133 6.34428 17.6557C4.78989 16.1011 4 14.1991 4 12C4 9.80092 4.78669 7.89892 6.34428 6.34428C7.89892 4.78989 9.80092 4 12 4C14.1991 4 16.1011 4.78669 17.6557 6.34428C19.2101 7.89867 20 9.80092 20 12C20 14.1991 19.2133 16.1011 17.6557 17.6557C16.1043 19.2101 14.1991 20 12 20ZM12 4.5118C9.94317 4.5118 8.16123 5.25116 6.70447 6.70447C5.24795 8.16099 4.5118 9.93997 4.5118 12C4.5118 14.0568 5.25116 15.8388 6.70447 17.2955C8.16099 18.752 9.93997 19.4882 12 19.4882C14.0568 19.4882 15.8388 18.7488 17.2955 17.2955C18.752 15.839 19.4882 14.06 19.4882 12C19.4882 9.94317 18.7488 8.16123 17.2955 6.70447C15.842 5.24795 14.06 4.5118 12 4.5118Z" fill="#C8D423"/>
<path d="M12.0473 12.9289C12.0409 12.9289 12.038 12.9289 12.0316 12.9289C11.3206 12.8942 10.7013 12.6193 10.1927 12.1075C9.64931 11.5641 9.37122 10.8973 9.37122 10.1263C9.37122 9.35544 9.6461 8.68881 10.1927 8.14225C10.7045 7.63365 11.3206 7.35877 12.0316 7.32697C12.0821 7.32376 12.1326 7.32376 12.18 7.32376C12.9509 7.32376 13.6143 7.59865 14.1611 8.14521C14.6951 8.6792 14.9732 9.33325 14.9826 10.0852C14.9858 10.2622 14.8435 10.4074 14.6665 10.4106C14.6633 10.4106 14.6633 10.4106 14.6601 10.4106C14.4863 10.4106 14.344 10.2716 14.3411 10.0945C14.3317 9.50681 14.1231 9.0172 13.706 8.59686C13.2795 8.17036 12.7803 7.96499 12.1768 7.96499C12.1388 7.96499 12.1008 7.96499 12.0661 7.9682C12.0629 7.9682 12.0629 7.9682 12.0597 7.9682C11.5067 7.99359 11.0422 8.19895 10.6411 8.59686C10.2146 9.02336 10.0092 9.52579 10.0092 10.1293C10.0092 10.7328 10.2178 11.2321 10.6411 11.6586C11.0425 12.0599 11.5037 12.2682 12.0597 12.2936C12.2367 12.303 12.3725 12.4516 12.3629 12.6284C12.357 12.7963 12.2147 12.9289 12.0473 12.9289Z" fill="#C8D423"/>
<path d="M12.1738 11.8104C11.7126 11.8104 11.3112 11.643 10.9826 11.3176C10.6571 10.9922 10.4897 10.5908 10.4897 10.1264C10.4897 9.6651 10.6539 9.26374 10.9826 8.93511C11.3112 8.60648 11.7123 8.44229 12.1738 8.44229C12.6351 8.44229 13.0364 8.60648 13.3651 8.93511C13.6937 9.26374 13.8579 9.66485 13.8579 10.1264C13.8579 10.5908 13.6905 10.989 13.3619 11.3176C13.0364 11.6462 12.6383 11.8104 12.1738 11.8104ZM12.1738 9.08377C11.8832 9.08377 11.6398 9.18485 11.4345 9.39021C11.2291 9.59557 11.1312 9.8389 11.1312 10.1296C11.1312 10.4202 11.2323 10.6603 11.4377 10.8657C11.643 11.0711 11.8864 11.1722 12.177 11.1722C12.4677 11.1722 12.7078 11.0711 12.9132 10.8657C13.1217 10.6603 13.2196 10.417 13.2196 10.1264C13.2196 9.8357 13.1185 9.59237 12.9132 9.38701C12.7078 9.18164 12.4645 9.08377 12.1738 9.08377Z" fill="#859EAF"/>
</svg>
