<svg width="24" height="24" viewBox="0 0 24 24" fill="none" xmlns="http://www.w3.org/2000/svg">
<rect x="0.25" y="4.75" width="23.5" height="14.5" rx="2.75" fill="white" stroke="#9399AD" stroke-width="0.5"/>
<path fill-rule="evenodd" clip-rule="evenodd" d="M2.51572 7.87509L1.5 10.1228H2.71596L2.86671 9.76444H3.21127L3.36202 10.1228H4.70045V9.84929L4.81971 10.1228H5.51206L5.63132 9.84351V10.1228H8.4149L8.75337 9.77374L9.0703 10.1228L10.5 10.1257L9.48107 9.00523L10.5 7.87509H9.09247L8.76299 8.21771L8.45604 7.87509H5.42787L5.16784 8.45525L4.90171 7.87509H3.68829V8.13931L3.5533 7.87509H2.51572ZM2.75086 8.19427H3.34358L4.01731 9.71847V8.19427H4.66661L5.18698 9.28711L5.66657 8.19427H6.31263V9.80717H5.91951L5.91631 8.54331L5.34319 9.80717H4.99154L4.41521 8.54331V9.80717H3.6065L3.45318 9.44558H2.62487L2.47187 9.80685H2.03857L2.75086 8.19427ZM8.27088 8.19427H6.67242V9.80621H8.24613L8.75336 9.27199L9.24225 9.80621H9.75332L9.0105 9.00491L9.75332 8.19427H9.26443L8.75977 8.72236L8.27088 8.19427ZM3.03904 8.46719L2.76615 9.11133H3.31162L3.03904 8.46719ZM7.06741 8.82263V8.5282V8.52792H8.0648L8.5 8.99879L8.04551 9.47224H7.06741V9.1508H7.93944V8.82263H7.06741Z" fill="#1F72CD"/>
<path d="M3.93597 16H3.30469L2.69837 15.0138L2.09205 16H1.5L2.36489 14.6554L1.55528 13.3928H2.16517L2.7269 14.3308L3.27794 13.3928H3.87356L3.05503 14.6857L3.93597 16ZM6.37194 16H5.74066L5.13434 15.0138L4.52802 16H3.93597L4.80087 14.6554L3.99125 13.3928H4.60114L5.16287 14.3308L5.71391 13.3928H6.30953L5.491 14.6857L6.37194 16ZM8.80791 16H8.17663L7.57031 15.0138L6.96399 16H6.37194L7.23684 14.6554L6.42722 13.3928H7.03711L7.59885 14.3308L8.14988 13.3928H8.7455L7.92697 14.6857L8.80791 16ZM11.2439 16H10.6126L10.0063 15.0138L9.39997 16H8.80791L9.67281 14.6554L8.8632 13.3928H9.47308L10.0348 14.3308L10.5859 13.3928H11.1815L10.3629 14.6857L11.2439 16ZM14.6286 16H13.9973L13.391 15.0138L12.7846 16H12.1926L13.0575 14.6554L12.2479 13.3928H12.8578L13.4195 14.3308L13.9705 13.3928H14.5662L13.7476 14.6857L14.6286 16ZM17.0645 16H16.4333L15.8269 15.0138L15.2206 16H14.6286L15.4935 14.6554L14.6838 13.3928H15.2937L15.8555 14.3308L16.4065 13.3928H17.0021L16.1836 14.6857L17.0645 16ZM19.5005 16H18.8692L18.2629 15.0138L17.6566 16H17.0645L17.9294 14.6554L17.1198 13.3928H17.7297L18.2914 14.3308L18.8425 13.3928H19.4381L18.6196 14.6857L19.5005 16ZM21.9365 16H21.3052L20.6989 15.0138L20.0926 16H19.5005L20.3654 14.6554L19.5558 13.3928H20.1657L20.7274 14.3308L21.2784 13.3928H21.8741L21.0555 14.6857L21.9365 16Z" fill="#000F42"/>
<circle cx="18" cy="10.5" r="5.8125" fill="white" stroke="#0137EF" stroke-width="0.375"/>
<path d="M14.9471 11.9601H14.3303V10.2715C14.3303 10.2249 14.331 10.1677 14.3323 10.0998C14.3337 10.0306 14.3357 9.96008 14.3383 9.88822C14.341 9.81504 14.3436 9.74917 14.3463 9.69062C14.3317 9.70792 14.3017 9.73786 14.2565 9.78044C14.2126 9.82169 14.1713 9.85895 14.1327 9.89222L13.7974 10.1617L13.5 9.79042L14.4401 9.04192H14.9471V11.9601Z" fill="black"/>
<path d="M17.8014 11.9601H15.7615V11.5309L16.494 10.7904C16.6417 10.6387 16.7601 10.5123 16.8493 10.4112C16.9398 10.3087 17.005 10.2156 17.0449 10.1317C17.0862 10.0479 17.1068 9.95808 17.1068 9.86228C17.1068 9.74651 17.0742 9.66001 17.009 9.60279C16.9451 9.54424 16.8593 9.51497 16.7515 9.51497C16.6384 9.51497 16.5286 9.54092 16.4222 9.59281C16.3157 9.64471 16.2046 9.71856 16.0888 9.81437L15.7535 9.41717C15.8373 9.34531 15.9258 9.27745 16.019 9.21357C16.1134 9.1497 16.2226 9.09847 16.3463 9.05988C16.4714 9.01996 16.6211 9 16.7954 9C16.987 9 17.1514 9.0346 17.2884 9.10379C17.4268 9.17299 17.5333 9.26747 17.6078 9.38723C17.6823 9.50566 17.7196 9.64005 17.7196 9.79042C17.7196 9.95143 17.6876 10.0985 17.6238 10.2315C17.5599 10.3646 17.4667 10.4963 17.3443 10.6267C17.2232 10.7572 17.0768 10.9015 16.9052 11.0599L16.5299 11.4132V11.4411H17.8014V11.9601Z" fill="black"/>
<path d="M20.0269 9.69461C20.0269 9.82901 19.999 9.94544 19.9431 10.0439C19.8872 10.1424 19.8114 10.2229 19.7156 10.2854C19.6211 10.348 19.5146 10.3939 19.3962 10.4232V10.4351C19.6304 10.4644 19.8081 10.5363 19.9291 10.6507C20.0516 10.7651 20.1128 10.9182 20.1128 11.1098C20.1128 11.2801 20.0709 11.4325 19.987 11.5669C19.9045 11.7013 19.7768 11.8071 19.6038 11.8842C19.4308 11.9614 19.2079 12 18.9351 12C18.7741 12 18.6238 11.9867 18.484 11.9601C18.3456 11.9348 18.2152 11.8955 18.0928 11.8423V11.3174C18.2179 11.3812 18.349 11.4298 18.486 11.4631C18.6231 11.495 18.7508 11.511 18.8693 11.511C19.0902 11.511 19.2445 11.4731 19.3323 11.3972C19.4215 11.32 19.4661 11.2122 19.4661 11.0739C19.4661 10.9927 19.4454 10.9242 19.4042 10.8683C19.3629 10.8124 19.2911 10.7698 19.1886 10.7405C19.0875 10.7112 18.9458 10.6966 18.7635 10.6966H18.5419V10.2236H18.7675C18.9471 10.2236 19.0835 10.2069 19.1766 10.1737C19.2711 10.1391 19.335 10.0925 19.3683 10.0339C19.4029 9.97405 19.4202 9.90619 19.4202 9.83034C19.4202 9.72655 19.3882 9.64538 19.3244 9.58683C19.2605 9.52828 19.154 9.499 19.005 9.499C18.9118 9.499 18.8267 9.51098 18.7495 9.53493C18.6737 9.55755 18.6051 9.5855 18.5439 9.61876C18.4827 9.6507 18.4288 9.68197 18.3822 9.71257L18.0968 9.28743C18.2112 9.20492 18.345 9.13639 18.498 9.08184C18.6524 9.02728 18.836 9 19.0489 9C19.3496 9 19.5878 9.06055 19.7635 9.18164C19.9391 9.30273 20.0269 9.47372 20.0269 9.69461Z" fill="black"/>
<path d="M22.5459 11.3553H22.1946V11.9601H21.5918V11.3553H20.3463V10.9261L21.6257 9.04192H22.1946V10.8762H22.5459V11.3553ZM21.5918 10.8762V10.3812C21.5918 10.3347 21.5925 10.2794 21.5938 10.2156C21.5965 10.1517 21.5991 10.0878 21.6018 10.024C21.6045 9.96008 21.6071 9.90353 21.6098 9.85429C21.6138 9.80373 21.6164 9.76846 21.6178 9.7485H21.6018C21.5765 9.80306 21.5499 9.85629 21.522 9.90818C21.494 9.95875 21.4614 10.012 21.4242 10.0679L20.8892 10.8762H21.5918Z" fill="black"/>
</svg>
