<svg width="24" height="24" viewBox="0 0 24 24" fill="none" xmlns="http://www.w3.org/2000/svg">
<rect x="0.2" y="4.7" width="23.6" height="14.6" rx="2.8" fill="white" stroke="#9399AD" stroke-width="0.4"/>
<rect y="7.5" width="24" height="3" fill="#9399AD"/>
<rect x="3" y="12" width="18" height="4.5" fill="#E5E7EC"/>
<path d="M6.13147 14.8912C6.13147 14.9095 6.12155 14.9316 6.10172 14.9576C6.07731 14.9896 6.04757 15.0148 6.01248 15.0331C6.00028 15.0438 5.98731 15.0499 5.97358 15.0514C5.94612 15.0697 5.91943 15.0796 5.8935 15.0811C5.88282 15.0918 5.86451 15.1017 5.83858 15.1109L5.79739 15.1086L5.75621 15.1429L5.71273 15.1338L5.699 15.1361L5.66468 15.1406C5.6418 15.1437 5.62273 15.1452 5.60747 15.1452C5.60442 15.1452 5.59908 15.1444 5.59146 15.1429C5.58383 15.1429 5.57773 15.1429 5.57315 15.1429L5.54112 15.1544L5.49535 15.1589L5.44273 15.1566L5.41756 15.1681L5.42442 15.175C5.38934 15.175 5.36188 15.178 5.34205 15.1841L5.33061 15.1818L5.23679 15.175L5.10408 15.1704L5.0606 15.1635C5.04687 15.1696 5.03086 15.1727 5.01255 15.1727C4.99119 15.1727 4.96907 15.1658 4.94619 15.1521L4.90272 15.1681L4.87984 15.1475C4.81577 15.146 4.77839 15.1399 4.76772 15.1292L4.75856 15.1246C4.76314 15.1246 4.75017 15.1261 4.71966 15.1292L4.63043 15.0697L4.58924 15.0605C4.56331 15.0483 4.54119 15.027 4.52288 14.9965C4.50763 14.9705 4.5 14.9454 4.5 14.921C4.5 14.9042 4.50763 14.8744 4.52288 14.8317L4.56865 14.7814L4.62356 14.7837C4.63576 14.7669 4.65331 14.7585 4.67619 14.7585C4.725 14.7585 4.74941 14.7974 4.74941 14.8752C4.71738 14.8828 4.69831 14.8889 4.69221 14.8935C4.68458 14.9027 4.67314 14.9126 4.65788 14.9233V14.9301L4.67848 14.9416L4.70594 14.9713L4.79517 14.9667L4.87068 14.9896L4.98967 14.9873L5.03314 15.0148L5.05374 15.0033C5.06289 15.0033 5.07433 15.0056 5.08806 15.0102L5.14755 15.0171L5.15213 15.0285H5.18874C5.22382 15.0178 5.24366 15.0125 5.24823 15.0125C5.25586 15.0125 5.26501 15.0148 5.27569 15.0194C5.28942 15.0163 5.30696 15.0148 5.32832 15.0148C5.34357 15.0148 5.3573 15.0163 5.3695 15.0194C5.38018 15.0133 5.39239 15.0102 5.40612 15.0102C5.4229 15.0102 5.43739 15.0133 5.44959 15.0194L5.49993 15.0056L5.5251 14.9782L5.61205 14.9873C5.65629 14.9736 5.69137 14.9667 5.71731 14.9667H5.72875C5.73943 14.9591 5.74858 14.9553 5.75621 14.9553C5.76078 14.9553 5.76612 14.9568 5.77222 14.9599C5.77222 14.9599 5.77985 14.9568 5.7951 14.9507V14.9324H5.84316C5.85383 14.9187 5.8729 14.911 5.90036 14.9095C5.92172 14.8897 5.93926 14.879 5.95299 14.8775C5.95299 14.8775 5.95909 14.8683 5.97129 14.85C5.97129 14.8363 5.92248 14.8066 5.82485 14.7608L5.80654 14.7471C5.77451 14.744 5.74934 14.7387 5.73104 14.731C5.72036 14.731 5.71044 14.7303 5.70129 14.7288H5.69671C5.68909 14.7288 5.65934 14.7196 5.60747 14.7013C5.59069 14.6891 5.57315 14.683 5.55485 14.683C5.54874 14.683 5.53959 14.6845 5.52739 14.6876H5.48162L5.47476 14.6807C5.45035 14.6761 5.43129 14.6693 5.41756 14.6601L5.3901 14.6693L5.31916 14.6349H5.2734L5.24366 14.6166H5.19789L5.19103 14.6052H5.15442L5.12238 14.5686H5.10636C5.05908 14.5686 5.02247 14.5594 4.99653 14.5411L4.99196 14.5365C4.9584 14.5259 4.93399 14.5091 4.91874 14.4862L4.87984 14.4496L4.85467 14.3901L4.82721 14.3535L4.83865 14.2597L4.89357 14.1956C4.90272 14.1941 4.90958 14.1842 4.91416 14.1659C4.91874 14.1643 4.92636 14.1605 4.93704 14.1544L5.05374 14.0904C5.06899 14.0934 5.07967 14.0949 5.08577 14.0949C5.10713 14.0949 5.12925 14.0873 5.15213 14.072H5.16586V14.0766L5.18874 14.056H5.20018C5.24899 14.0377 5.28942 14.0286 5.32145 14.0286H5.33289L5.35349 14.0309L5.38781 14.0103C5.39696 14.0087 5.40917 14.008 5.42442 14.008H5.43815C5.44883 14.008 5.46713 14.0065 5.49307 14.0034C5.52052 14.0003 5.54188 13.9981 5.55713 13.9965L5.59832 13.9942L5.6601 13.9622C5.66468 13.9653 5.67459 13.9767 5.68985 13.9965H5.74019C5.74934 13.9965 5.76612 14.0011 5.79053 14.0103H5.80654C5.84316 14.0103 5.87366 14.0179 5.89807 14.0331C5.97892 14.053 6.01934 14.0934 6.01934 14.1544C6.01934 14.2063 5.97739 14.2376 5.8935 14.2482L5.87519 14.2208C5.87061 14.2193 5.86222 14.2162 5.85002 14.2116C5.83934 14.207 5.83095 14.204 5.82485 14.2025H5.77451L5.75163 14.1773L5.71502 14.1819L5.69442 14.2048L5.63951 14.1659L5.58002 14.175L5.50908 14.159C5.46484 14.162 5.42747 14.1712 5.39696 14.1865L5.39239 14.1887C5.38781 14.1918 5.38247 14.1948 5.37637 14.1979C5.37179 14.1994 5.36874 14.2002 5.36722 14.2002L5.33518 14.1865L5.27111 14.2162L5.15213 14.2482L5.12467 14.2414L5.07433 14.2734H5.05145L5.03772 14.294L4.98967 14.326L4.99424 14.3398C4.99424 14.3398 5.00263 14.3482 5.01941 14.3649L5.0423 14.3718L5.07891 14.3947L5.14984 14.4199L5.18416 14.4221L5.24594 14.4587L5.26425 14.4519C5.30849 14.461 5.33823 14.4732 5.35349 14.4885L5.36035 14.4954H5.36493C5.36493 14.4954 5.38018 14.5045 5.41069 14.5228L5.42671 14.5068L5.48162 14.5091L5.49078 14.5137H5.52281L5.55485 14.5388H5.57086C5.5968 14.5388 5.61968 14.5426 5.63951 14.5503C5.64103 14.5503 5.64866 14.5495 5.66239 14.548C5.68985 14.548 5.72036 14.5602 5.75392 14.5846L5.78138 14.5777L5.80197 14.5869H5.84087L5.90722 14.6327L5.97587 14.6395L6.00333 14.6761C6.05519 14.7082 6.08875 14.7364 6.10401 14.7608C6.12079 14.7837 6.12918 14.8172 6.12918 14.8615C6.12918 14.8645 6.12994 14.8691 6.13147 14.8752C6.13147 14.8813 6.13147 14.8866 6.13147 14.8912Z" fill="#000F42"/>
<path d="M6.72448 13.6121C6.72448 13.6304 6.71227 13.6472 6.68787 13.6625V13.667C6.65888 13.7021 6.63371 13.722 6.61236 13.7265L6.57803 13.7677L6.55515 13.7975L6.50252 13.8112L6.47964 13.8432L6.44303 13.8615L6.38354 13.9142L6.34693 13.8798L6.35379 13.8226L6.37896 13.7814C6.38049 13.7601 6.39269 13.7418 6.41557 13.7265V13.7174L6.4293 13.7082L6.43159 13.6739L6.4682 13.6647V13.6442L6.49566 13.6396C6.50176 13.6091 6.51473 13.587 6.53456 13.5732L6.54142 13.5686L6.55515 13.5549L6.57346 13.5C6.67414 13.5244 6.72448 13.5618 6.72448 13.6121ZM6.95787 14.8249C6.95787 14.8599 6.95177 14.8821 6.93956 14.8912L6.92812 14.9004L6.91668 14.9324L6.88007 14.9438C6.86939 14.9683 6.85338 14.9873 6.83202 15.001L6.81143 15.0079L6.78168 15.0399L6.75422 15.0468C6.74354 15.0743 6.72143 15.0888 6.68787 15.0903C6.68481 15.0949 6.67795 15.104 6.66727 15.1177C6.64439 15.133 6.62075 15.1422 6.59634 15.1452L6.5849 15.1475L6.56888 15.1681H6.52312L6.48651 15.1955L6.39269 15.1269L6.34922 15.0377L6.34693 14.9255L6.33778 14.8981L6.36523 14.6967L6.37439 14.6876C6.36981 14.6647 6.36752 14.6426 6.36752 14.6212C6.36752 14.6075 6.3721 14.5793 6.38125 14.5365L6.39269 14.4839C6.38964 14.4748 6.38354 14.4649 6.37439 14.4542L6.38812 14.4107L6.39269 14.3581L6.39727 14.3512C6.39117 14.3375 6.38735 14.3222 6.38583 14.3054C6.38735 14.3024 6.38888 14.2986 6.3904 14.294C6.39193 14.2879 6.39269 14.2833 6.39269 14.2803C6.38812 14.2665 6.38583 14.2536 6.38583 14.2414C6.38583 14.2048 6.40642 14.188 6.44761 14.191L6.47507 14.1933C6.49337 14.1842 6.50481 14.1796 6.50939 14.1796C6.5399 14.1796 6.56049 14.1964 6.57117 14.2299V14.2391C6.57727 14.2574 6.58032 14.2749 6.58032 14.2917C6.58032 14.3054 6.5788 14.3154 6.57575 14.3215L6.55973 14.4359L6.57575 14.4679C6.57575 14.4954 6.56659 14.5198 6.54829 14.5411L6.55744 14.5686L6.52769 14.6555C6.52464 14.6937 6.52083 14.7227 6.51625 14.7425V14.7997L6.50252 14.8317L6.50481 14.8546L6.50024 14.9072L6.50481 14.9484L6.53913 14.9759L6.56659 14.9713L6.57117 14.9644L6.58947 14.9667L6.61922 14.9576L6.64439 14.9324L6.65354 14.9187L6.66956 14.9164L6.67414 14.9049L6.681 14.8958L6.69473 14.9049L6.71761 14.8821L6.73134 14.8844L6.73592 14.8683H6.74049L6.74736 14.85L6.76795 14.8409L6.81143 14.8203C6.84651 14.7959 6.88083 14.7837 6.91439 14.7837H6.92355C6.94033 14.7943 6.95177 14.8081 6.95787 14.8249Z" fill="#000F42"/>
<path d="M8.1869 14.8752L8.1686 14.9599L8.17317 14.9873L8.1686 14.9942C8.1747 15.0079 8.17775 15.0216 8.17775 15.0354C8.17775 15.0445 8.17546 15.0537 8.17089 15.0628V15.0674C8.17089 15.0857 8.16402 15.1605 8.15029 15.2916L8.14572 15.3351V15.3443L8.14114 15.3534L8.13885 15.3626L8.14114 15.3763L8.13427 15.3832L8.12741 15.3969H8.11826L8.12055 15.4083L8.11597 15.4221C8.11597 15.4328 8.11216 15.4434 8.10453 15.4541L8.09309 15.4907C8.08851 15.5075 8.08088 15.5228 8.07021 15.5365C8.05953 15.5563 8.04046 15.583 8.013 15.6166L7.9741 15.6463L7.93063 15.6829L7.89631 15.6989L7.86885 15.7195L7.85054 15.7241C7.82003 15.7409 7.78571 15.7508 7.74757 15.7539L7.73385 15.7516L7.71325 15.7607V15.7653C7.68732 15.7714 7.6652 15.7745 7.64689 15.7745H7.55766L7.50274 15.763L7.45469 15.7722L7.43181 15.7516L7.36316 15.7447L7.3174 15.7035L7.28308 15.6852C7.22206 15.6623 7.18697 15.6219 7.17782 15.5639L7.1824 15.5548L7.17553 15.5182C7.19384 15.4892 7.21062 15.4739 7.22587 15.4724C7.23808 15.4648 7.25028 15.461 7.26248 15.461C7.26248 15.461 7.27621 15.4633 7.30367 15.4678C7.33265 15.4724 7.3624 15.4755 7.39291 15.477L7.38833 15.5113L7.41579 15.5296V15.5571L7.39748 15.58L7.50274 15.612L7.55537 15.6006V15.6166L7.57139 15.612H7.57596C7.57749 15.612 7.5874 15.6135 7.60571 15.6166L7.608 15.6257L7.63088 15.6143C7.64918 15.6051 7.68579 15.6006 7.74071 15.6006C7.74986 15.5945 7.75749 15.5883 7.76359 15.5822C7.76512 15.5822 7.76893 15.583 7.77503 15.5845C7.78113 15.5845 7.78571 15.5845 7.78876 15.5845C7.79791 15.5845 7.80707 15.5754 7.81622 15.5571C7.81774 15.5617 7.8208 15.5639 7.82537 15.5639C7.82842 15.5639 7.83224 15.5624 7.83681 15.5594C7.84139 15.5563 7.84444 15.5548 7.84597 15.5548H7.85054L7.92376 15.4907L7.95809 15.4381L7.96037 15.4083L7.98554 15.3763L7.98783 15.3466L8.00156 15.3191L8.013 15.2573L8.03131 15.2001C8.02978 15.191 8.02902 15.1772 8.02902 15.1589C8.02902 15.1254 8.0336 15.0918 8.04275 15.0583L8.0336 15.0216V14.9095L8.01529 14.8706V14.8066L7.99698 14.7585L7.99927 14.6853L7.99698 14.6738L7.98097 14.6784L7.96724 14.7127L7.93292 14.7425L7.89173 14.8088L7.83224 14.85L7.76817 14.9164C7.73156 14.9545 7.68884 14.9881 7.64003 15.0171L7.61715 15.0445L7.58283 15.0651L7.55079 15.0811L7.52105 15.1109L7.48443 15.1292C7.47223 15.1414 7.45469 15.1498 7.43181 15.1544C7.39825 15.1772 7.36011 15.1887 7.3174 15.1887H7.29223C7.2846 15.1902 7.27392 15.191 7.26019 15.191C7.24799 15.191 7.23884 15.1902 7.23274 15.1887L7.19155 15.1864L7.13206 15.1292L7.08858 15.072L7.07028 15.0239L7.05426 14.9324L7.06341 14.866L7.08629 14.7882L7.08172 14.7631L7.10231 14.6921L7.1229 14.651C7.12901 14.6311 7.13206 14.6075 7.13206 14.58L7.1824 14.4862C7.18697 14.474 7.19841 14.461 7.21672 14.4473L7.2396 14.4084L7.26706 14.3787C7.27316 14.3588 7.28536 14.3413 7.30367 14.326C7.31587 14.3199 7.32426 14.3085 7.32884 14.2917C7.33494 14.2749 7.36392 14.2597 7.41579 14.2459L7.40435 14.2482L7.41579 14.2437C7.42037 14.236 7.43104 14.2208 7.44782 14.1979L7.47528 14.2025L7.49588 14.1887C7.52028 14.1674 7.54622 14.1567 7.57367 14.1567H7.58969L7.64918 14.1338L7.68351 14.1453H7.72469L7.74986 14.159C7.76512 14.1605 7.77732 14.1674 7.78647 14.1796L7.81851 14.2116L7.82766 14.2162L7.83224 14.2254L7.85283 14.2574L7.85512 14.2688L7.84825 14.3054L7.85283 14.3306L7.82308 14.3764L7.75673 14.3855L7.7224 14.3306L7.69037 14.3192L7.67435 14.3032H7.65147C7.64384 14.3062 7.62783 14.3138 7.60342 14.326L7.60113 14.3443H7.54393C7.52867 14.3672 7.51189 14.3794 7.49359 14.381C7.48443 14.3871 7.47528 14.3924 7.46613 14.397L7.44782 14.4404L7.43181 14.4427L7.42952 14.4633H7.39748L7.36774 14.5114L7.34257 14.5274L7.33342 14.5594L7.29909 14.6075L7.29452 14.6532L7.26706 14.6807L7.24189 14.7791L7.22358 14.7974L7.22587 14.8226L7.19841 14.9095L7.20528 14.937L7.20299 14.9644C7.21367 14.9797 7.21901 14.9957 7.21901 15.0125L7.23502 15.0171L7.24189 15.0308C7.26782 15.0308 7.2846 15.0338 7.29223 15.0399C7.30596 15.0293 7.34333 15.0178 7.40435 15.0056C7.4135 14.9843 7.42647 14.969 7.44325 14.9599C7.46003 14.9492 7.49435 14.9301 7.54622 14.9027L7.55308 14.9049C7.55308 14.8927 7.55766 14.8813 7.56681 14.8706C7.58969 14.8615 7.60342 14.8554 7.608 14.8523C7.6202 14.8447 7.62706 14.8348 7.62859 14.8226L7.6652 14.8134L7.68808 14.7928L7.74529 14.715L7.7613 14.7242C7.76283 14.7196 7.77961 14.699 7.81164 14.6624L7.86656 14.5983L7.87114 14.5686C7.88944 14.5518 7.9108 14.503 7.9352 14.4221L7.92376 14.3741L7.90546 14.3421L7.91919 14.3077L7.90088 14.2826L7.89631 14.2505L7.88944 14.2276L7.91232 14.1865C7.93673 14.1743 7.95427 14.1681 7.96495 14.1681C7.97868 14.1681 7.99698 14.175 8.01987 14.1887L8.03588 14.2185L8.06563 14.2414L8.07021 14.2917C8.07478 14.3054 8.08012 14.326 8.08622 14.3535C8.09385 14.3672 8.09766 14.3832 8.09766 14.4015V14.4176L8.10224 14.4313L8.12741 14.4679L8.12055 14.5091L8.13427 14.5274C8.13885 14.5381 8.14114 14.5495 8.14114 14.5617C8.14114 14.5724 8.14038 14.5808 8.13885 14.5869L8.15944 14.5938L8.14343 14.651L8.15258 14.6944C8.16021 14.7097 8.16402 14.7234 8.16402 14.7356C8.16402 14.7478 8.16021 14.7631 8.15258 14.7814L8.16631 14.7928L8.1869 14.8752Z" fill="#000F42"/>
<path d="M9.91587 14.7882C9.91587 14.8005 9.90595 14.8165 9.88612 14.8363L9.86095 14.8752L9.8518 14.921L9.8312 14.9278L9.82663 14.9416C9.80222 14.9492 9.78468 14.9683 9.774 14.9988C9.75722 15.0201 9.73891 15.0354 9.71908 15.0445C9.71145 15.0522 9.70459 15.0575 9.69849 15.0605L9.68705 15.0811L9.66645 15.0857L9.60696 15.1177L9.52916 15.1269L9.50857 15.1223L9.47425 15.1292L9.46052 15.1132C9.43916 15.1025 9.42391 15.0918 9.41476 15.0811C9.39645 15.0766 9.38272 15.0621 9.37357 15.0377C9.34764 15.0072 9.33467 14.9827 9.33467 14.9644V14.9576L9.31865 14.9301L9.31408 14.9255L9.30035 14.8844L9.27975 14.8409L9.28433 14.7882L9.26145 14.7585L9.22713 14.5617C9.22255 14.5358 9.22026 14.5137 9.22026 14.4954L9.21568 14.4839L9.20424 14.4679L9.18365 14.4954L9.10128 14.5823L9.07153 14.6304L9.05551 14.6624L9.03034 14.699L9.01204 14.7173L9.01433 14.7288L8.98229 14.7997L8.96399 14.8226L8.9411 14.8271L8.92051 14.8477C8.92051 14.8782 8.90602 14.8981 8.87704 14.9072L8.87246 14.9118C8.85873 14.9454 8.84348 14.966 8.8267 14.9736L8.8061 15.0056C8.77254 15.0361 8.75042 15.0552 8.73975 15.0628C8.73517 15.0781 8.72678 15.0911 8.71458 15.1017C8.71153 15.1063 8.70619 15.1124 8.69856 15.12C8.69398 15.146 8.67263 15.1643 8.63449 15.175L8.60932 15.1818C8.57881 15.1803 8.55364 15.1627 8.53381 15.1292L8.49949 15.072L8.51093 15.0171L8.50635 14.9873L8.51093 14.9827L8.51322 14.953L8.48805 14.8981L8.50635 14.8706L8.4972 14.8409L8.51322 14.8088L8.51779 14.7562L8.50864 14.7471L8.52695 14.715L8.52008 14.699L8.51779 14.6624L8.52695 14.5938C8.5239 14.5785 8.52237 14.5686 8.52237 14.564C8.52237 14.561 8.52313 14.5579 8.52466 14.5549C8.52466 14.5503 8.52466 14.5472 8.52466 14.5457L8.51322 14.5274L8.52008 14.4542L8.51779 14.429L8.52466 14.3924L8.51551 14.3306L8.55669 14.262C8.60398 14.2696 8.63678 14.2803 8.65508 14.294C8.67339 14.3062 8.68254 14.3291 8.68254 14.3626V14.3832L8.69856 14.4107L8.69169 14.4587L8.70085 14.5503L8.68483 14.5938L8.69169 14.6418V14.6807L8.67339 14.7059L8.68712 14.7471L8.67339 14.7722L8.6711 14.7974L8.68483 14.8226L8.66652 14.8706L8.65966 14.8912V14.9118L8.6711 14.9347L8.71 14.8958C8.71 14.8729 8.71763 14.8577 8.73288 14.85C8.73441 14.8348 8.74051 14.8233 8.75119 14.8157L8.74432 14.8088L8.77407 14.7814L8.78093 14.7722V14.7516L8.81754 14.7242L8.8267 14.7013L8.84729 14.6876L8.93653 14.5869C8.9289 14.596 8.90373 14.6243 8.86102 14.6716V14.6761L8.8656 14.6601L8.89534 14.6258L8.91594 14.5869V14.564L8.95026 14.5526L8.95483 14.5228L8.96399 14.5137L8.96627 14.5022V14.4862L8.99831 14.4542C8.99831 14.4511 8.99831 14.4473 8.99831 14.4427C8.99678 14.4382 8.99602 14.4351 8.99602 14.4336C8.99602 14.4061 9.01128 14.3909 9.04178 14.3878C9.05551 14.3604 9.07611 14.3443 9.10357 14.3398L9.11729 14.3192L9.12187 14.3146C9.1356 14.2948 9.15619 14.281 9.18365 14.2734L9.20424 14.2482H9.25916L9.28662 14.2803L9.31179 14.294L9.31408 14.3009L9.33009 14.3054L9.33467 14.3535L9.37357 14.3764L9.35755 14.4267L9.38272 14.4816V14.5457L9.40103 14.6327L9.4056 14.715L9.4262 14.7631L9.43993 14.8226C9.44908 14.8317 9.45594 14.8447 9.46052 14.8615L9.50171 14.8729V14.9187L9.52459 14.9438V14.9507L9.53374 14.953L9.54289 14.9667L9.55205 14.9553C9.549 14.9553 9.55281 14.956 9.56349 14.9576C9.58027 14.9576 9.59781 14.9423 9.61612 14.9118L9.64357 14.9049L9.65044 14.8935C9.65501 14.8813 9.66417 14.8721 9.6779 14.866L9.69391 14.8683L9.70307 14.8592L9.70535 14.8477L9.71222 14.8386C9.72747 14.8279 9.73739 14.8119 9.74196 14.7905L9.76713 14.7631L9.77171 14.7425L9.78773 14.7059L9.8312 14.6899L9.89298 14.7104L9.91358 14.7768C9.91358 14.7783 9.91434 14.7799 9.91587 14.7814C9.91587 14.7844 9.91587 14.7867 9.91587 14.7882Z" fill="#000F42"/>
<path d="M10.8996 14.2322L10.8767 14.262L10.895 14.3169L10.8653 14.3512L10.8538 14.3993L10.847 14.4107L10.8515 14.4221C10.8515 14.4435 10.8462 14.4595 10.8355 14.4702L10.831 14.4771V14.4862C10.8355 14.4969 10.8378 14.5068 10.8378 14.516C10.8378 14.5236 10.8371 14.5289 10.8355 14.532L10.8378 14.5411L10.8287 14.5663L10.8355 14.5938L10.8172 14.6121L10.8241 14.6441L10.8378 14.6601L10.8172 14.6784V14.715L10.8012 14.7516L10.8126 14.7882L10.7989 14.8066L10.8218 14.8226L10.7898 14.8752L10.7875 14.8821L10.8104 14.8866L10.7943 14.9393V14.9484C10.7943 14.9591 10.7936 14.9675 10.7921 14.9736L10.7943 14.9805L10.831 14.985L10.8607 15.0308L10.8447 15.0651L10.8699 15.0628C10.879 15.0811 10.8843 15.0972 10.8859 15.1109L10.8515 15.1452C10.8409 15.1559 10.8256 15.1666 10.8058 15.1772L10.7669 15.1978L10.7554 15.1864L10.7326 15.2001L10.6616 15.1177V15.0788C10.6525 15.0483 10.6479 15.0201 10.6479 14.9942V14.9805L10.6342 14.8455L10.6525 14.7493L10.6387 14.6944L10.5998 14.7585L10.5793 14.818L10.5609 14.8271L10.5289 14.8775L10.4717 14.9301L10.4557 14.9576L10.4054 15.001L10.3939 15.0308L10.3207 15.0766L10.2429 15.1635L10.1994 15.1727L10.1697 15.1955C10.1315 15.194 10.1026 15.1795 10.0827 15.1521C10.0141 15.1185 9.97823 15.0705 9.97518 15.0079L9.98662 15.001L9.98433 14.9873L9.98204 14.9599L9.96831 14.9301L9.98204 14.8981L9.98662 14.85L10.0026 14.7745C10.0026 14.773 10.0026 14.7699 10.0026 14.7654C10.0011 14.7623 10.0003 14.7593 10.0003 14.7562C10.0003 14.7501 10.0019 14.7425 10.0049 14.7333C10.0034 14.7303 10.0026 14.7242 10.0026 14.715C10.0026 14.7043 10.0072 14.6868 10.0164 14.6624L10.0324 14.6555C10.0232 14.6479 10.0187 14.6395 10.0187 14.6304C10.0187 14.6243 10.0194 14.6197 10.0209 14.6166C10.0194 14.6121 10.0187 14.6067 10.0187 14.6006C10.0187 14.5823 10.0278 14.5686 10.0461 14.5594C10.0507 14.5442 10.0591 14.5289 10.0713 14.5137L10.0598 14.4954L10.0873 14.461V14.4519C10.0873 14.4229 10.0972 14.3962 10.117 14.3718L10.1148 14.3306L10.1239 14.3215C10.1239 14.3199 10.1239 14.3176 10.1239 14.3146C10.1224 14.3115 10.1216 14.3093 10.1216 14.3077C10.1216 14.2986 10.1247 14.2909 10.1308 14.2848V14.2711C10.1369 14.2559 10.1529 14.233 10.1788 14.2025C10.2048 14.172 10.2238 14.1453 10.236 14.1224L10.2475 14.1338L10.2726 14.1224L10.2841 14.1178L10.3596 14.0835L10.5358 14.0926V14.1087L10.5907 14.1201C10.6258 14.1201 10.6487 14.1315 10.6593 14.1544C10.6593 14.1498 10.6601 14.1445 10.6616 14.1384C10.6616 14.1338 10.6616 14.1308 10.6616 14.1293L10.7097 14.1727L10.7532 14.1819L10.8355 14.1613L10.8653 14.2185L10.8996 14.2322ZM10.6822 14.3512L10.6731 14.3352L10.6548 14.3306L10.5838 14.2734L10.5381 14.2665H10.5015L10.4969 14.262L10.4786 14.2688L10.458 14.2574H10.3985L10.4054 14.2665L10.3527 14.2848L10.3436 14.2963L10.3367 14.2986C10.3093 14.3215 10.2902 14.3405 10.2795 14.3558L10.2635 14.4107L10.2543 14.4313L10.2772 14.4633L10.2383 14.4931L10.2429 14.5022C10.2261 14.5312 10.2177 14.5594 10.2177 14.5869L10.1994 14.6098V14.651L10.1811 14.6716L10.1765 14.6921L10.1697 14.6967V14.7288L10.1628 14.7402C10.1628 14.7585 10.1613 14.773 10.1582 14.7837L10.1628 14.7951L10.1422 14.8386L10.1514 14.8523L10.1354 14.8752L10.1514 14.9187L10.1262 14.9507L10.1308 14.9942V15.001L10.1399 15.0056L10.1514 15.0033C10.159 14.9957 10.1666 14.9888 10.1742 14.9827L10.1697 14.9644L10.2017 14.9599L10.2086 14.9438L10.3436 14.834L10.3573 14.8294L10.3733 14.7905C10.3825 14.7875 10.3954 14.7814 10.4122 14.7722L10.4259 14.7356H10.4443L10.4374 14.6967L10.4694 14.6921C10.4725 14.686 10.4771 14.6784 10.4832 14.6693C10.4908 14.6601 10.4984 14.6517 10.506 14.6441L10.6227 14.4885L10.641 14.4542L10.6387 14.445L10.6548 14.4199L10.6593 14.3947L10.6799 14.3764L10.6822 14.3512Z" fill="#000F42"/>
<path d="M11.8736 14.3375C11.8736 14.3512 11.8598 14.3642 11.8324 14.3764C11.8263 14.384 11.8148 14.3909 11.798 14.397C11.7767 14.4061 11.7614 14.4137 11.7523 14.4199L11.7042 14.4038C11.6798 14.4221 11.6486 14.4313 11.6104 14.4313L11.583 14.4244L11.5624 14.4427H11.5006L11.4617 14.4679C11.4449 14.4618 11.4289 14.4587 11.4136 14.4587C11.4091 14.4618 11.3984 14.4649 11.3816 14.4679C11.374 14.4679 11.3656 14.4656 11.3564 14.461L11.3496 14.548L11.3519 14.6121L11.345 14.6921L11.3496 14.7791L11.3564 14.8203V14.8523L11.3885 14.921C11.3839 14.9255 11.3816 14.9309 11.3816 14.937C11.3816 14.9477 11.3984 14.956 11.4319 14.9621L11.4365 14.9896L11.4525 14.9965L11.48 15.0148L11.4983 15.0285C11.5135 15.0255 11.5242 15.0239 11.5303 15.0239C11.5441 15.0239 11.5578 15.0262 11.5715 15.0308C11.5776 15.0277 11.5906 15.0171 11.6104 14.9988C11.6241 14.9866 11.6371 14.9805 11.6493 14.9805C11.6508 14.9805 11.6531 14.9805 11.6562 14.9805C11.6592 14.982 11.6615 14.9827 11.663 14.9827C11.6768 14.9538 11.7012 14.9347 11.7363 14.9255C11.7683 14.9255 11.795 14.9355 11.8164 14.9553V14.9713C11.8164 15.0232 11.798 15.056 11.7614 15.0697C11.7477 15.1017 11.7187 15.1223 11.6745 15.1315L11.647 15.1566H11.6173L11.5647 15.1704C11.5524 15.1734 11.5349 15.175 11.512 15.175C11.4998 15.175 11.4869 15.1719 11.4731 15.1658H11.4434L11.3633 15.1223L11.3427 15.1155L11.2946 15.0514L11.2672 15.0216L11.2169 14.9072L11.1985 14.7997L11.2031 14.7722L11.1848 14.7471L11.1963 14.715L11.1848 14.6647L11.2008 14.6487L11.2054 14.6189L11.1985 14.5915L11.2031 14.5503L11.194 14.5137L11.2054 14.5022V14.4656L11.1894 14.4587L11.1459 14.4679L11.1047 14.4382H11.0979C11.0521 14.4382 11.0292 14.4137 11.0292 14.3649V14.3581L11.0018 14.3146L11.0452 14.2734L11.1024 14.2826L11.1322 14.278L11.1757 14.2894H11.2237V14.2437L11.194 14.1796L11.2237 14.1636L11.2123 14.1293L11.2146 14.0583L11.1963 14.0286C11.1856 14.0118 11.1802 13.9965 11.1802 13.9828C11.1802 13.966 11.1841 13.9523 11.1917 13.9416L11.1985 13.9096L11.2169 13.8913C11.258 13.8837 11.2855 13.8798 11.2992 13.8798C11.348 13.8798 11.3747 13.902 11.3793 13.9462L11.3724 13.9576C11.3816 13.9714 11.3862 13.9843 11.3862 13.9965C11.3862 13.9981 11.3854 14.0019 11.3839 14.008L11.3793 14.0217L11.377 14.0377L11.3862 14.0675L11.3839 14.0789L11.3885 14.1109L11.3679 14.1384L11.3793 14.1842L11.3702 14.2391L11.3885 14.2597L11.3702 14.3009L11.4411 14.2917L11.5669 14.3032L11.6676 14.2871L11.7019 14.2894L11.7134 14.2871H11.8026C11.8499 14.2871 11.8736 14.3039 11.8736 14.3375Z" fill="#000F42"/>
<path d="M13.2477 15.0262C13.2477 15.0445 13.234 15.0666 13.2066 15.0926L13.1883 15.0994L13.1722 15.12L13.131 15.1315C13.1234 15.1422 13.1158 15.1475 13.1082 15.1475C13.1066 15.1475 13.1051 15.1467 13.1036 15.1452C13.1005 15.1452 13.0983 15.1452 13.0967 15.1452C13.0632 15.162 13.0227 15.1704 12.9755 15.1704H12.9571L12.8999 15.1589L12.861 15.1406L12.7741 15.0674L12.7558 15.0056L12.7192 14.9759C12.7238 14.9698 12.726 14.9599 12.726 14.9461C12.726 14.937 12.7199 14.9217 12.7077 14.9004L12.7146 14.8455V14.8363C12.7146 14.818 12.7093 14.7943 12.6986 14.7654L12.7123 14.6967L12.6826 14.7562L12.6482 14.7608L12.6437 14.8088C12.6315 14.8149 12.617 14.818 12.6002 14.818L12.575 14.8729L12.5453 14.9072C12.5331 14.921 12.5224 14.9286 12.5132 14.9301L12.5064 14.9347L12.424 15.0194H12.4148L12.3714 15.0697L12.3302 15.0903L12.3073 15.12L12.2547 15.1361L12.1792 15.1658L12.1334 15.1429C12.1029 15.1429 12.0815 15.1292 12.0693 15.1017L12.0487 15.0903C12.0487 15.0857 12.0495 15.0796 12.051 15.072C12.051 15.0644 12.051 15.059 12.051 15.056L12.0144 15.0239L12.0236 15.0102L11.9961 14.9461L12.0053 14.937L12.0007 14.9324C12.0007 14.9294 12.0007 14.9248 12.0007 14.9187C11.9992 14.9141 11.9984 14.9103 11.9984 14.9072C11.9984 14.8905 12.0007 14.8744 12.0053 14.8592L12.0076 14.7997L11.9984 14.7516C12.006 14.7394 12.0098 14.7288 12.0098 14.7196C12.0098 14.7089 12.0053 14.699 11.9961 14.6899L12.0213 14.6716V14.6441L12.0121 14.5686L12.0373 14.4221C12.0373 14.3977 12.0304 14.3619 12.0167 14.3146C12.0213 14.2658 12.0533 14.2391 12.1128 14.2345L12.1311 14.2414L12.1632 14.2459L12.2043 14.2917L12.1906 14.3512L12.186 14.4496L12.1929 14.5251L12.1792 14.5526L12.186 14.5709L12.1746 14.6075V14.6304L12.17 14.6372C12.1715 14.6418 12.1723 14.6487 12.1723 14.6578C12.1723 14.6777 12.1693 14.6982 12.1632 14.7196L12.1746 14.7356L12.1654 14.7699L12.17 14.7974V14.8294C12.1776 14.8386 12.1815 14.85 12.1815 14.8638C12.1815 14.876 12.1784 14.8882 12.1723 14.9004V14.9095C12.1799 14.9355 12.1837 14.9522 12.1837 14.9599L12.2043 14.9805C12.2135 14.9744 12.2242 14.9667 12.2364 14.9576C12.2409 14.9423 12.2516 14.9324 12.2684 14.9278V14.9049C12.2776 14.9049 12.2921 14.9027 12.3119 14.8981L12.3165 14.8775L12.3554 14.8615L12.3622 14.8546C12.3729 14.8439 12.3904 14.834 12.4148 14.8249V14.8157L12.4583 14.7837C12.469 14.7547 12.4881 14.7356 12.5155 14.7265C12.5323 14.7097 12.5437 14.6998 12.5499 14.6967L12.5796 14.6578V14.651L12.5888 14.6464L12.6093 14.6372L12.6208 14.6052L12.6688 14.5846L12.678 14.5823C12.678 14.5823 12.6833 14.577 12.694 14.5663V14.5457L12.7077 14.5411C12.7123 14.5167 12.7245 14.4984 12.7443 14.4862L12.7787 14.4084L12.7901 14.3672L12.7947 14.3581H12.8038L12.8199 14.3466L12.8061 14.3421C12.8229 14.3146 12.8359 14.2856 12.845 14.2551L12.9114 14.2528L12.964 14.2963L12.9869 14.3329L12.9617 14.4313L12.9274 14.4771L12.8999 14.5663L12.8771 14.58V14.6143L12.8633 14.6395L12.8702 14.6807L12.8519 14.6967L12.861 14.7699L12.8656 14.8729H12.8771V14.9324L12.9091 14.9713L12.9388 14.9873L12.9411 14.9988C12.9518 15.0003 12.9648 15.0041 12.98 15.0102L13.0372 15.0148L13.0716 15.0056L13.1333 14.9759C13.1455 14.9698 13.1608 14.9667 13.1791 14.9667C13.2249 14.9667 13.2477 14.9866 13.2477 15.0262Z" fill="#000F42"/>
<path d="M14.2549 14.3077L14.2366 14.3832L14.1519 14.3947L14.1062 14.4244L14.0764 14.4107L14.0444 14.429L14.0101 14.4427L13.9872 14.4587V14.4679L13.9391 14.4908L13.9071 14.532H13.8911C13.8667 14.5579 13.8491 14.5739 13.8385 14.58L13.8064 14.6327L13.795 14.6372C13.7904 14.6494 13.7851 14.6677 13.779 14.6921L13.7469 14.7036L13.7332 14.731L13.7149 14.7539L13.7103 14.7882L13.692 14.7951V14.8294L13.6852 14.8363C13.6897 14.8439 13.6951 14.8523 13.7012 14.8615L13.6669 14.8752L13.6623 14.9049L13.6394 14.9438L13.6531 14.9736L13.6234 15.0148C13.6264 15.03 13.628 15.0407 13.628 15.0468C13.628 15.0483 13.628 15.0514 13.628 15.056C13.6264 15.0605 13.6257 15.0644 13.6257 15.0674L13.6302 15.088L13.6691 15.1292L13.6394 15.1818L13.6119 15.2024L13.5479 15.2344L13.4632 15.2001V15.1475L13.4541 15.1269L13.4609 15.0926C13.4579 15.0682 13.4563 15.0499 13.4563 15.0377C13.4563 15.0331 13.4571 15.027 13.4586 15.0194C13.4586 15.0117 13.4586 15.0064 13.4586 15.0033L13.4563 14.9805C13.4457 14.9698 13.4403 14.9576 13.4403 14.9438C13.4403 14.9316 13.4457 14.9179 13.4563 14.9027C13.4563 14.895 13.4548 14.8721 13.4518 14.834L13.4586 14.8271L13.4518 14.7974L13.4563 14.7699L13.4518 14.7539L13.4586 14.7013L13.4449 14.6784L13.4541 14.6532L13.4449 14.6235C13.4464 14.6143 13.4472 14.6021 13.4472 14.5869C13.4472 14.564 13.4441 14.5488 13.438 14.5411L13.4472 14.5274L13.438 14.4862L13.4174 14.4565L13.4289 14.4199L13.4197 14.4061L13.4106 14.3512V14.3329C13.403 14.3237 13.3991 14.3123 13.3991 14.2986C13.3991 14.2681 13.4327 14.2421 13.4998 14.2208L13.557 14.2322L13.5685 14.2757L13.5913 14.3054L13.5845 14.3672C13.5891 14.3977 13.5944 14.4313 13.6005 14.4679L13.6074 14.5045C13.6089 14.5076 13.6104 14.516 13.6119 14.5297C13.6119 14.5388 13.6081 14.5488 13.6005 14.5594L13.6074 14.6052L13.6028 14.6555L13.5936 14.6784L13.6005 14.6876L13.6051 14.7104C13.6142 14.6998 13.6196 14.6883 13.6211 14.6761L13.6302 14.6418C13.6348 14.6327 13.6417 14.6258 13.6508 14.6212L13.66 14.5869L13.692 14.5686L13.6966 14.5411L13.7218 14.5137L13.7401 14.4793C13.7599 14.458 13.779 14.4443 13.7973 14.4382L13.8019 14.4313L13.8224 14.3993L13.8453 14.3947L13.8522 14.3878L13.8613 14.3741L13.8865 14.3604L13.9002 14.3443L13.914 14.3466L13.9323 14.3375L13.9414 14.3237L13.9689 14.31L14.0078 14.2848L14.0627 14.2665C14.0841 14.2635 14.0955 14.262 14.097 14.262C14.097 14.2635 14.097 14.2643 14.097 14.2643C14.0955 14.2643 14.0947 14.265 14.0947 14.2665H14.097C14.1031 14.2665 14.1123 14.2635 14.1245 14.2574C14.1321 14.2513 14.1428 14.2482 14.1565 14.2482C14.1626 14.2482 14.1733 14.2498 14.1886 14.2528C14.2282 14.2543 14.2503 14.2726 14.2549 14.3077Z" fill="#000F42"/>
<path d="M15 14.9713C15 14.9896 14.9863 15.0125 14.9588 15.0399C14.9512 15.0644 14.9397 15.0842 14.9245 15.0994L14.9108 15.1017L14.8856 15.1452L14.8444 15.1521L14.8009 15.1795L14.778 15.2207L14.7529 15.2161C14.7361 15.2238 14.7224 15.2283 14.7117 15.2299L14.698 15.2505C14.6934 15.2489 14.6865 15.2482 14.6774 15.2482C14.6575 15.2482 14.6385 15.2619 14.6202 15.2894L14.5881 15.2619C14.582 15.2634 14.5729 15.2642 14.5607 15.2642C14.5408 15.2642 14.5241 15.2611 14.5103 15.255H14.4714L14.4531 15.2436C14.3952 15.2344 14.3585 15.2123 14.3433 15.1772V15.1704L14.3158 15.1566L14.3021 15.1177L14.2746 15.0994V15.0651L14.2472 14.9644L14.2518 14.8821L14.2609 14.8455V14.7974L14.2724 14.7608L14.2701 14.7448L14.2861 14.7173L14.2815 14.7219C14.2815 14.7082 14.2853 14.6937 14.293 14.6784V14.667L14.2861 14.6121C14.2861 14.5861 14.2975 14.5632 14.3204 14.5434C14.3219 14.5404 14.3227 14.5358 14.3227 14.5297C14.3227 14.5236 14.3196 14.5114 14.3135 14.4931C14.309 14.4732 14.3067 14.4595 14.3067 14.4519C14.3067 14.4336 14.3113 14.4145 14.3204 14.3947C14.3326 14.413 14.3502 14.4221 14.373 14.4221H14.3799C14.383 14.416 14.3898 14.4092 14.4005 14.4015C14.4127 14.3634 14.4295 14.3314 14.4508 14.3054L14.46 14.2963C14.46 14.2902 14.4646 14.2726 14.4737 14.2437H14.492L14.4966 14.2322L14.5149 14.2276C14.5225 14.2154 14.5271 14.2086 14.5286 14.207C14.5317 14.204 14.5485 14.1941 14.579 14.1773C14.5851 14.1666 14.5942 14.1567 14.6064 14.1476C14.6125 14.1445 14.6202 14.1415 14.6293 14.1384L14.6385 14.1247C14.6797 14.1109 14.7056 14.1041 14.7163 14.1041C14.7285 14.1041 14.7399 14.1071 14.7506 14.1132L14.762 14.1109L14.778 14.1201C14.7964 14.1338 14.8147 14.1453 14.833 14.1544L14.8719 14.1842V14.1933C14.9069 14.2208 14.9245 14.2597 14.9245 14.31L14.9176 14.3329L14.9245 14.4084L14.9039 14.4221L14.881 14.4816L14.8375 14.5297L14.8353 14.5663C14.7864 14.6014 14.7414 14.6296 14.7002 14.651C14.6865 14.6723 14.6652 14.683 14.6362 14.683H14.6293L14.5858 14.7104H14.5492L14.4943 14.7333L14.4531 14.7127H14.4486C14.4455 14.7249 14.4424 14.7432 14.4394 14.7677L14.4211 14.7814L14.4188 14.8088L14.4051 14.8477C14.4097 14.8844 14.4119 14.908 14.4119 14.9187L14.4028 14.9255C14.4028 14.9454 14.402 14.9599 14.4005 14.969C14.4005 14.9705 14.3997 14.9728 14.3982 14.9759C14.3982 14.9789 14.3982 14.9812 14.3982 14.9827C14.3982 14.9949 14.4043 15.0049 14.4165 15.0125C14.4211 15.0308 14.4287 15.0422 14.4394 15.0468L14.4554 15.0605L14.5058 15.0743V15.0811L14.5241 15.0857L14.6019 15.0903L14.6476 15.0834L14.6705 15.0674L14.6842 15.0628L14.7071 15.0285L14.7186 15.0262L14.7758 15.0079C14.7819 14.9972 14.7918 14.9881 14.8055 14.9805L14.8124 14.969C14.8429 14.9629 14.8604 14.9469 14.865 14.921C14.8864 14.8996 14.9138 14.8889 14.9474 14.8889H14.9565C14.9855 14.9225 15 14.9499 15 14.9713ZM14.7735 14.3123C14.7735 14.3077 14.7712 14.2986 14.7666 14.2848L14.7552 14.2826L14.7506 14.2848C14.7491 14.2848 14.746 14.2848 14.7414 14.2848C14.7384 14.2864 14.7353 14.2871 14.7323 14.2871C14.7308 14.2871 14.7285 14.2864 14.7254 14.2848C14.7224 14.2848 14.7201 14.2848 14.7186 14.2848L14.6957 14.3009L14.6751 14.3032L14.6636 14.3077L14.6247 14.3581L14.5996 14.3764L14.563 14.4404L14.5424 14.4542C14.5378 14.4801 14.5271 14.5022 14.5103 14.5205L14.5012 14.5365C14.518 14.5259 14.537 14.5205 14.5584 14.5205L14.5744 14.5137L14.5813 14.4931L14.6133 14.4954L14.6316 14.4679H14.6453L14.6705 14.4771L14.6819 14.4427H14.698V14.4176L14.7277 14.4107L14.7346 14.4038L14.7391 14.3832L14.7689 14.3398C14.7719 14.3321 14.7735 14.323 14.7735 14.3123Z" fill="#000F42"/>
<circle cx="18" cy="14.25" r="4.3125" fill="#E5E7EC" stroke="#0137EF" stroke-width="0.375"/>
<path d="M16.1261 15.6779H15.5093V13.9892C15.5093 13.9427 15.51 13.8854 15.5113 13.8176C15.5126 13.7484 15.5146 13.6779 15.5173 13.606C15.5199 13.5328 15.5226 13.4669 15.5253 13.4084C15.5106 13.4257 15.4807 13.4556 15.4354 13.4982C15.3915 13.5395 15.3503 13.5767 15.3117 13.61L14.9764 13.8795L14.679 13.5082L15.6191 12.7597H16.1261V15.6779Z" fill="black"/>
<path d="M18.9804 15.6779H16.9405V15.2487L17.673 14.5082C17.8207 14.3565 17.9391 14.2301 18.0283 14.129C18.1188 14.0265 18.184 13.9333 18.2239 13.8495C18.2652 13.7657 18.2858 13.6759 18.2858 13.58C18.2858 13.4643 18.2532 13.3778 18.188 13.3206C18.1241 13.262 18.0383 13.2327 17.9305 13.2327C17.8174 13.2327 17.7076 13.2587 17.6011 13.3106C17.4947 13.3625 17.3836 13.4363 17.2678 13.5321L16.9325 13.1349C17.0163 13.0631 17.1048 12.9952 17.1979 12.9313C17.2924 12.8675 17.4015 12.8162 17.5253 12.7777C17.6504 12.7377 17.8001 12.7178 17.9744 12.7178C18.166 12.7178 18.3304 12.7524 18.4674 12.8216C18.6058 12.8908 18.7123 12.9852 18.7868 13.105C18.8613 13.2234 18.8986 13.3578 18.8986 13.5082C18.8986 13.6692 18.8666 13.8162 18.8027 13.9493C18.7389 14.0824 18.6457 14.2141 18.5233 14.3445C18.4022 14.4749 18.2558 14.6193 18.0842 14.7777L17.7089 15.1309V15.1589H18.9804V15.6779Z" fill="black"/>
<path d="M21.206 13.4124C21.206 13.5468 21.178 13.6632 21.1221 13.7617C21.0662 13.8602 20.9904 13.9407 20.8946 14.0032C20.8001 14.0657 20.6936 14.1117 20.5752 14.1409V14.1529C20.8094 14.1822 20.9871 14.254 21.1082 14.3685C21.2306 14.4829 21.2918 14.6359 21.2918 14.8276C21.2918 14.9979 21.2499 15.1502 21.166 15.2846C21.0835 15.419 20.9558 15.5248 20.7828 15.602C20.6098 15.6792 20.3869 15.7178 20.1141 15.7178C19.9531 15.7178 19.8028 15.7045 19.663 15.6779C19.5246 15.6526 19.3942 15.6133 19.2718 15.5601V15.0351C19.3969 15.099 19.528 15.1476 19.665 15.1808C19.8021 15.2128 19.9298 15.2288 20.0483 15.2288C20.2692 15.2288 20.4235 15.1908 20.5113 15.115C20.6005 15.0378 20.6451 14.93 20.6451 14.7916C20.6451 14.7105 20.6245 14.6419 20.5832 14.586C20.542 14.5301 20.4701 14.4876 20.3676 14.4583C20.2665 14.429 20.1248 14.4144 19.9425 14.4144H19.7209V13.9413H19.9465C20.1261 13.9413 20.2625 13.9247 20.3557 13.8914C20.4501 13.8568 20.514 13.8103 20.5473 13.7517C20.5819 13.6918 20.5992 13.624 20.5992 13.5481C20.5992 13.4443 20.5672 13.3631 20.5034 13.3046C20.4395 13.2461 20.333 13.2168 20.184 13.2168C20.0908 13.2168 20.0057 13.2288 19.9285 13.2527C19.8527 13.2753 19.7841 13.3033 19.7229 13.3365C19.6617 13.3685 19.6078 13.3997 19.5612 13.4303L19.2758 13.0052C19.3902 12.9227 19.524 12.8542 19.677 12.7996C19.8314 12.7451 20.015 12.7178 20.2279 12.7178C20.5286 12.7178 20.7668 12.7783 20.9425 12.8994C21.1181 13.0205 21.206 13.1915 21.206 13.4124Z" fill="black"/>
</svg>
