<svg width="24" height="24" viewBox="0 0 24 24" fill="none" xmlns="http://www.w3.org/2000/svg">
<path d="M22.2829 4H1.71707C0.768757 4 0 4.85961 0 5.92V18.08C0 19.1404 0.768757 20 1.71707 20H22.2829C23.2312 20 24 19.1404 24 18.08V5.92C24 4.85961 23.2312 4 22.2829 4Z" fill="white"/>
<path d="M9.75 19.6071L23.6815 15.5V17.9405C23.6815 18.861 22.9353 19.6071 22.0149 19.6071H9.75Z" fill="#FD6020"/>
<path fill-rule="evenodd" clip-rule="evenodd" d="M21.1051 10.0794C21.8715 10.0794 22.2931 10.4247 22.2931 11.0771C22.3314 11.576 21.9865 11.9982 21.5266 12.0749L22.5613 13.4949H21.7566L20.8751 12.1133H20.7985V13.4949H20.147V10.0794H21.1051ZM20.7982 11.653H20.9898C21.4113 11.653 21.6029 11.4611 21.6029 11.1157C21.6029 10.8087 21.4113 10.6169 20.9898 10.6169H20.7982V11.653ZM17.8848 13.4949H19.7242V12.9192H18.5362V11.9982H19.6859V11.4225H18.5362V10.655H19.7242V10.0794H17.8848V13.4949ZM15.9689 12.3819L15.0875 10.0794H14.3977L15.8156 13.5716H16.1605L17.5785 10.0794H16.8887L15.9689 12.3819ZM8.1897 11.8063C8.1897 12.7657 8.95615 13.5716 9.91422 13.5716C10.2208 13.5716 10.4891 13.4948 10.7573 13.3797V12.6122C10.5657 12.8424 10.2974 12.996 9.99086 12.996C9.3777 12.996 8.87951 12.5354 8.87951 11.9214V11.8447C8.84119 11.2306 9.33938 10.6934 9.95254 10.655C10.2591 10.655 10.5657 10.8085 10.7573 11.0388V10.2712C10.5274 10.1177 10.2208 10.0793 9.95254 10.0793C8.95615 10.0026 8.1897 10.8085 8.1897 11.8063ZM7.00185 11.3842C6.61862 11.2307 6.50365 11.1539 6.50365 10.962C6.54198 10.7318 6.73359 10.5399 6.96353 10.5783C7.15514 10.5783 7.34675 10.6934 7.50004 10.8469L7.84494 10.3864C7.57669 10.1561 7.23178 10.0026 6.88688 10.0026C6.35037 9.96423 5.89049 10.3864 5.85217 10.9236V10.962C5.85217 11.4225 6.04379 11.6912 6.65695 11.8831C6.81024 11.9214 6.96353 11.9982 7.11682 12.0749C7.23178 12.1517 7.30843 12.2668 7.30843 12.4203C7.30843 12.689 7.07849 12.9192 6.84856 12.9192H6.81024C6.50365 12.9192 6.2354 12.7273 6.12043 12.4587L5.69888 12.8808C5.92882 13.303 6.38869 13.5332 6.84856 13.5332C7.46172 13.5716 7.95991 13.1111 7.99823 12.4971V12.3819C7.95991 11.9214 7.7683 11.6912 7.00185 11.3842ZM4.77848 13.4949H5.42996V10.0794H4.77848V13.4949ZM1.75 10.0796H2.70806H2.89968C3.81942 10.1179 4.54754 10.8855 4.50922 11.8065C4.50922 12.3054 4.27929 12.7659 3.89606 13.1113C3.55116 13.3799 3.12961 13.5334 2.70806 13.4951H1.75V10.0796ZM2.59319 12.9194C2.89977 12.9578 3.24467 12.8427 3.47461 12.6508C3.70454 12.4205 3.81951 12.1135 3.81951 11.7681C3.81951 11.4611 3.70454 11.1541 3.47461 10.9239C3.24467 10.732 2.89977 10.6169 2.59319 10.6552H2.40158V12.9194H2.59319Z" fill="black"/>
<path fill-rule="evenodd" clip-rule="evenodd" d="M12.9638 10C12.0057 10 11.2009 10.7675 11.2009 11.7653C11.2009 12.7247 11.9674 13.5306 12.9638 13.569C13.9601 13.6074 14.7266 12.8015 14.7649 11.8037C14.7266 10.8059 13.9601 10 12.9638 10V10Z" fill="#FD6020"/>
<path fill-rule="evenodd" clip-rule="evenodd" d="M22.2829 4.5H1.71707C1.09596 4.5 0.5 5.08177 0.5 5.92V18.08C0.5 18.9182 1.09596 19.5 1.71707 19.5H22.2829C22.904 19.5 23.5 18.9182 23.5 18.08V5.92C23.5 5.08177 22.904 4.5 22.2829 4.5ZM1.71707 4H22.2829C23.2312 4 24 4.85961 24 5.92V18.08C24 19.1404 23.2312 20 22.2829 20H1.71707C0.768757 20 0 19.1404 0 18.08V5.92C0 4.85961 0.768757 4 1.71707 4Z" fill="#CCCFD9"/>
</svg>
