<svg width="24" height="24" viewBox="0 0 24 24" fill="none" xmlns="http://www.w3.org/2000/svg">
<g clip-path="url(#clip0_4191_70010)">
<path d="M4.05005 5.8941V17.9059C4.05005 18.4808 4.52048 18.9513 5.09546 18.9513H12.2722C17.6979 18.9513 20.05 15.9144 20.05 11.8843C20.05 7.87516 17.6979 4.84869 12.2722 4.84869H5.09546C4.52048 4.84869 4.05005 5.31913 4.05005 5.8941Z" fill="white"/>
<path d="M8.85376 7.79675V16.6723H12.7165C16.2239 16.6723 17.745 14.6912 17.745 11.8895C17.745 9.20805 16.2239 7.12769 12.7165 7.12769H9.52282C9.1517 7.12769 8.85376 7.43085 8.85376 7.79675Z" fill="#CC0066"/>
<path d="M12.2722 17.9947H6.03106C5.47699 17.9947 5.02747 17.5452 5.02747 16.9911V6.81406C5.02747 6.26 5.47699 5.81047 6.03106 5.81047H12.2722C18.1944 5.81047 19.0778 9.62099 19.0778 11.8895C19.0778 15.8255 16.6577 17.9947 12.2722 17.9947ZM6.03106 6.145C5.65994 6.145 5.362 6.44294 5.362 6.81406V16.9911C5.362 17.3623 5.65994 17.6602 6.03106 17.6602H12.2722C16.4433 17.6602 18.7432 15.6112 18.7432 11.8895C18.7432 6.89247 14.6871 6.145 12.2722 6.145H6.03106Z" fill="black"/>
<path d="M10.2128 10.6925C10.3487 10.6925 10.4741 10.7135 10.5943 10.7553C10.7145 10.7971 10.8139 10.865 10.9027 10.9487C10.9864 11.0375 11.0543 11.1473 11.1066 11.2727C11.1536 11.4034 11.1798 11.555 11.1798 11.7327C11.1798 11.8895 11.1588 12.0307 11.1223 12.1613C11.0804 12.292 11.0229 12.407 10.9445 12.5011C10.8661 12.5952 10.7668 12.6684 10.6466 12.7259C10.5264 12.7781 10.3852 12.8095 10.2232 12.8095H9.30847V10.6873H10.2128V10.6925ZM10.1814 12.4227C10.2493 12.4227 10.3121 12.4122 10.38 12.3913C10.4427 12.3704 10.5002 12.3338 10.5473 12.2816C10.5943 12.2293 10.6361 12.1666 10.6675 12.0829C10.6989 11.9993 10.7145 11.9052 10.7145 11.785C10.7145 11.6805 10.7041 11.5811 10.6832 11.4975C10.6623 11.4139 10.6257 11.3355 10.5786 11.278C10.5316 11.2205 10.4689 11.1682 10.3905 11.1368C10.3121 11.1055 10.218 11.0898 10.103 11.0898H9.76845V12.4279H10.1814V12.4227Z" fill="white"/>
<path d="M13.0667 10.6925V11.0846H11.9481V11.5393H12.9778V11.9H11.9481V12.4175H13.0928V12.8095H11.4829V10.6873H13.0667V10.6925Z" fill="white"/>
<path d="M14.6662 10.6925L15.4607 12.8147H14.9746L14.8126 12.3443H14.0181L13.8508 12.8147H13.3804L14.1801 10.6925H14.6662ZM14.6924 11.9941L14.4258 11.2152H14.4206L14.1435 11.9941H14.6924Z" fill="white"/>
<path d="M16.2186 10.6925V12.4227H17.2536V12.8147H15.7534V10.6925H16.2186Z" fill="white"/>
<path d="M7.10783 12.7311C7.64766 12.7311 8.08529 12.2935 8.08529 11.7536C8.08529 11.2138 7.64766 10.7762 7.10783 10.7762C6.56799 10.7762 6.13037 11.2138 6.13037 11.7536C6.13037 12.2935 6.56799 12.7311 7.10783 12.7311Z" fill="black"/>
<path d="M7.84486 16.6723C7.02421 16.6723 6.3656 16.0085 6.3656 15.193V14.0379C6.3656 13.6302 6.6949 13.2956 7.10784 13.2956C7.51555 13.2956 7.85008 13.6249 7.85008 14.0379V16.6723H7.84486Z" fill="black"/>
</g>
<defs>
<clipPath id="clip0_4191_70010">
<rect width="16" height="14.1026" fill="white" transform="translate(4.05005 4.84869)"/>
</clipPath>
</defs>
</svg>
