<svg width="24" height="24" viewBox="0 0 24 24" fill="none" xmlns="http://www.w3.org/2000/svg">
<path d="M22.2829 4H1.71707C0.768757 4 0 4.85961 0 5.92V18.08C0 19.1404 0.768757 20 1.71707 20H22.2829C23.2312 20 24 19.1404 24 18.08V5.92C24 4.85961 23.2312 4 22.2829 4Z" fill="#FFB3C7"/>
<path d="M20.6974 12.9197C20.411 12.9197 20.1789 13.1277 20.1789 13.3843C20.1789 13.6408 20.411 13.8489 20.6974 13.8489C20.9838 13.8489 21.2161 13.6408 21.2161 13.3843C21.2161 13.1276 20.9839 12.9197 20.6974 12.9197ZM18.9913 12.5605C18.9913 12.2091 18.6561 11.9244 18.2426 11.9244C17.8292 11.9244 17.494 12.2092 17.494 12.5605C17.494 12.9118 17.8291 13.1966 18.2426 13.1966C18.6561 13.1966 18.9913 12.9118 18.9913 12.5605ZM18.994 11.3242H19.8203V13.7966H18.994V13.6386C18.7606 13.7812 18.4789 13.865 18.175 13.865C17.3708 13.865 16.7188 13.2809 16.7188 12.5604C16.7188 11.8399 17.3708 11.2559 18.175 11.2559C18.4789 11.2559 18.7606 11.3397 18.994 11.4824V11.3242V11.3242ZM12.382 11.6463V11.3243H11.5361V13.7966H12.3839V12.6423C12.3839 12.2528 12.855 12.0435 13.182 12.0435C13.1853 12.0435 13.1884 12.0438 13.1918 12.0439V11.3245C12.8562 11.3245 12.5476 11.4532 12.382 11.6463L12.382 11.6463ZM10.2748 12.5605C10.2748 12.2092 9.93964 11.9244 9.52617 11.9244C9.11271 11.9244 8.7775 12.2092 8.7775 12.5605C8.7775 12.9118 9.11269 13.1966 9.52617 13.1966C9.93965 13.1966 10.2748 12.9118 10.2748 12.5605ZM10.2776 11.3242H11.1038V13.7966H10.2776V13.6386C10.0442 13.7812 9.7624 13.865 9.45856 13.865C8.65433 13.865 8.00237 13.281 8.00237 12.5604C8.00237 11.8399 8.65433 11.2559 9.45856 11.2559C9.76242 11.2559 10.0442 11.3397 10.2776 11.4824V11.3242V11.3242ZM15.2507 11.2578C14.9207 11.2578 14.6083 11.3496 14.3994 11.6028V11.3244H13.5768V13.7966H14.4096V12.4974C14.4096 12.1214 14.691 11.9373 15.0298 11.9373C15.3929 11.9373 15.6017 12.1317 15.6017 12.4923V13.7966H16.4269V12.2244C16.4269 11.6491 15.9163 11.2578 15.2507 11.2578V11.2578ZM6.79886 13.7966H7.66364V10.2225H6.79886V13.7966ZM3 13.7976H3.91572V10.2218H3V13.7976ZM6.20289 10.2218C6.20289 10.996 5.86616 11.7161 5.26615 12.2513L6.53193 13.7977H5.4009L4.02527 12.1171L4.3803 11.8789C4.96907 11.4838 5.30677 10.8798 5.30677 10.2218H6.20289L6.20289 10.2218Z" fill="#0A0B09"/>
<path fill-rule="evenodd" clip-rule="evenodd" d="M22.2829 4.5H1.71707C1.09596 4.5 0.5 5.08177 0.5 5.92V18.08C0.5 18.9182 1.09596 19.5 1.71707 19.5H22.2829C22.904 19.5 23.5 18.9182 23.5 18.08V5.92C23.5 5.08177 22.904 4.5 22.2829 4.5ZM1.71707 4H22.2829C23.2312 4 24 4.85961 24 5.92V18.08C24 19.1404 23.2312 20 22.2829 20H1.71707C0.768757 20 0 19.1404 0 18.08V5.92C0 4.85961 0.768757 4 1.71707 4Z" fill="#CCCFD9"/>
</svg>
