<svg width="24" height="24" viewBox="0 0 24 24" fill="none" xmlns="http://www.w3.org/2000/svg">
<path d="M22.2535 4H1.74651C0.781941 4 0 4.85961 0 5.92V18.08C0 19.1404 0.781941 20 1.74651 20H22.2535C23.2181 20 24 19.1404 24 18.08V5.92C24 4.85961 23.2181 4 22.2535 4Z" fill="white"/>
<path fill-rule="evenodd" clip-rule="evenodd" d="M22.2535 4.5H1.74651C1.10159 4.5 0.5 5.09014 0.5 5.92V18.08C0.5 18.9099 1.10159 19.5 1.74651 19.5H22.2535C22.8984 19.5 23.5 18.9099 23.5 18.08V5.92C23.5 5.09014 22.8984 4.5 22.2535 4.5ZM1.74651 4H22.2535C23.2181 4 24 4.85961 24 5.92V18.08C24 19.1404 23.2181 20 22.2535 20H1.74651C0.781941 20 0 19.1404 0 18.08V5.92C0 4.85961 0.781941 4 1.74651 4Z" fill="#CCCFD9"/>
<path d="M19.3561 14.011V13.5441H19.2653L19.1594 13.8643L19.0546 13.5441H18.9626V14.011H19.0278V13.6588L19.1268 13.9627H19.1931L19.2921 13.6582V14.011H19.3561ZM18.7775 14.011V13.6233H18.8939V13.5447H18.5958V13.6233H18.7128V14.011H18.7769H18.7775Z" fill="#0099DF"/>
<path fill-rule="evenodd" clip-rule="evenodd" d="M13.9407 14.243H10.1752V7.4269H13.9407V14.243Z" fill="#6C6BBD"/>
<path fill-rule="evenodd" clip-rule="evenodd" d="M10.4145 10.8343C10.4145 9.45219 11.0573 8.22032 12.058 7.42682C11.3262 6.84639 10.4023 6.5 9.39865 6.5C7.02223 6.5 5.09583 8.44038 5.09583 10.8348C5.09583 13.2287 7.02223 15.1697 9.39865 15.1697C10.4023 15.1697 11.3256 14.8233 12.058 14.2429C11.0573 13.4488 10.4145 12.2169 10.4145 10.8348" fill="#EB001B"/>
<path fill-rule="evenodd" clip-rule="evenodd" d="M19.0209 10.8343C19.0209 13.2287 17.0939 15.1697 14.718 15.1697C13.7138 15.1697 12.7905 14.8233 12.0581 14.2429C13.0594 13.4488 13.7022 12.2169 13.7022 10.8348C13.7022 9.45219 13.0594 8.2209 12.0581 7.42682C12.7905 6.84639 13.7138 6.5 14.718 6.5C17.0945 6.5 19.0209 8.44038 19.0209 10.8348" fill="#0099DF"/>
<path d="M15.2151 16.1685C15.2651 16.1685 15.3373 16.1784 15.392 16.1999L15.3152 16.4357C15.2628 16.4142 15.2104 16.4066 15.1598 16.4066C14.9973 16.4066 14.9158 16.5125 14.9158 16.7029V17.3485H14.6672V16.1976H14.9135V16.3373C14.9781 16.236 15.0713 16.1685 15.2151 16.1685ZM14.2958 16.4264H13.89V16.9463C13.89 17.0615 13.9308 17.1384 14.0548 17.1384C14.1188 17.1384 14.2003 17.1168 14.2743 17.0743L14.3459 17.288C14.2673 17.3433 14.1433 17.3771 14.0356 17.3771C13.7416 17.3771 13.6391 17.2181 13.6391 16.9509V16.4264H13.4068V16.1976H13.6391V15.8483H13.8895V16.1976H14.2958V16.4264ZM11.1143 16.6715C11.141 16.5056 11.2412 16.392 11.4181 16.392C11.5782 16.392 11.6807 16.4933 11.7075 16.6715H11.1137H11.1143ZM11.9654 16.7728C11.9631 16.4142 11.743 16.1685 11.4228 16.1685C11.0881 16.1685 10.854 16.4142 10.854 16.7728C10.854 17.1384 11.0974 17.3771 11.4397 17.3771C11.612 17.3771 11.7692 17.334 11.9078 17.2158L11.7855 17.0301C11.6906 17.1075 11.5683 17.1506 11.4537 17.1506C11.2936 17.1506 11.148 17.0761 11.1119 16.8688H11.9607C11.9631 16.8374 11.9654 16.8065 11.9654 16.7728ZM13.0575 16.491C12.9883 16.4479 12.848 16.392 12.7018 16.392C12.5656 16.392 12.4841 16.4433 12.4841 16.5271C12.4841 16.6039 12.5703 16.6261 12.678 16.64L12.7944 16.6575C13.0436 16.6936 13.1938 16.7996 13.1938 17.0016C13.1938 17.2205 13.0028 17.3771 12.6733 17.3771C12.4864 17.3771 12.3141 17.3293 12.1785 17.228L12.2949 17.033C12.3787 17.0976 12.5033 17.1529 12.6756 17.1529C12.8451 17.1529 12.9359 17.1029 12.9359 17.0132C12.9359 16.9492 12.8718 16.9125 12.735 16.8933L12.6186 16.8764C12.3624 16.8403 12.2233 16.725 12.2233 16.537C12.2233 16.3082 12.4096 16.1685 12.6995 16.1685C12.8811 16.1685 13.0459 16.2092 13.1652 16.289L13.0575 16.491ZM16.1233 16.4066C16.0726 16.4066 16.0249 16.4153 15.9812 16.4334C15.937 16.4514 15.8991 16.477 15.8671 16.5091C15.8351 16.5417 15.81 16.5812 15.7914 16.6267C15.7734 16.6721 15.7641 16.7221 15.7641 16.7769C15.7641 16.8316 15.7734 16.8816 15.7914 16.9271C15.81 16.9725 15.8351 17.0115 15.8671 17.0441C15.8991 17.0767 15.937 17.1023 15.9812 17.1198C16.0249 17.1384 16.0726 17.1471 16.1233 17.1471C16.1745 17.1471 16.2222 17.1384 16.2659 17.1203C16.3101 17.1017 16.3486 17.0767 16.3806 17.0441C16.4132 17.0115 16.4382 16.9725 16.4563 16.9271C16.4749 16.8816 16.4842 16.8316 16.4842 16.7769C16.4842 16.7221 16.4749 16.6721 16.4568 16.6267C16.4382 16.5812 16.4132 16.5417 16.3806 16.5096C16.3486 16.477 16.3101 16.4514 16.2659 16.4334C16.2222 16.4159 16.1745 16.4066 16.1233 16.4066ZM16.1233 16.1685C16.2123 16.1685 16.2944 16.1842 16.3695 16.2151C16.4452 16.2459 16.5104 16.2884 16.5657 16.3431C16.621 16.3973 16.6641 16.4613 16.6949 16.5353C16.7264 16.6092 16.7415 16.6901 16.7415 16.7769C16.7415 16.8636 16.7264 16.9439 16.6949 17.0185C16.6641 17.0918 16.621 17.1564 16.5657 17.2106C16.5104 17.2653 16.4452 17.3078 16.3695 17.3386C16.2938 17.3695 16.2123 17.3852 16.1233 17.3852C16.0348 17.3852 15.9527 17.3695 15.877 17.3386C15.8013 17.3078 15.7373 17.2653 15.682 17.2106C15.6272 17.1564 15.5847 17.0918 15.5533 17.0185C15.5219 16.9439 15.5067 16.8636 15.5067 16.7769C15.5067 16.6895 15.5219 16.6092 15.5533 16.5353C15.5847 16.4613 15.6272 16.3973 15.682 16.3431C15.7367 16.2884 15.8019 16.2459 15.877 16.2151C15.9527 16.1842 16.0348 16.1685 16.1233 16.1685ZM9.66174 16.7728C9.66174 16.5708 9.79389 16.4043 10.0087 16.4043C10.2142 16.4043 10.3528 16.5632 10.3528 16.7728C10.3528 16.9824 10.2142 17.1413 10.0087 17.1413C9.79331 17.1413 9.66174 16.9754 9.66174 16.7728ZM10.5874 16.7728V16.1976H10.3388V16.3373C10.2596 16.2337 10.1403 16.1685 9.97786 16.1685C9.65766 16.1685 9.40617 16.4211 9.40617 16.7728C9.40617 17.1244 9.65708 17.3771 9.97786 17.3771C10.1403 17.3771 10.2596 17.3125 10.3388 17.2082V17.348H10.5868V16.7728H10.5874ZM9.18669 17.3485V16.6261C9.18669 16.3542 9.01437 16.1708 8.73725 16.1685C8.59171 16.1662 8.44034 16.2116 8.33555 16.3734C8.25696 16.2453 8.13179 16.1685 7.95772 16.1685C7.83547 16.1685 7.71612 16.2046 7.62298 16.3396V16.1976H7.37439V17.3485H7.62531V16.7105C7.62531 16.5108 7.73592 16.4043 7.90475 16.4043C8.07008 16.4043 8.15392 16.5125 8.15392 16.7076V17.348H8.40425V16.7105C8.40425 16.5108 8.51952 16.4043 8.68427 16.4043C8.85427 16.4043 8.93577 16.5125 8.93577 16.7076V17.348H9.18611L9.18669 17.3485Z" fill="#231F20"/>
<path d="M17.2626 17.164V17.2432H17.3348C17.3511 17.2432 17.3645 17.2391 17.3738 17.2327C17.3837 17.2269 17.3889 17.2164 17.3889 17.2036C17.3889 17.1902 17.3831 17.1803 17.3738 17.1745C17.3645 17.1669 17.3505 17.164 17.3348 17.164H17.2626ZM17.336 17.1087C17.3732 17.1087 17.4018 17.1174 17.4227 17.1343C17.4431 17.1512 17.453 17.1739 17.453 17.203C17.453 17.2275 17.4454 17.2472 17.4285 17.2635C17.4128 17.2787 17.3889 17.2892 17.3593 17.2927L17.4553 17.4033H17.3808L17.2917 17.2932H17.2626V17.4039H17.2003V17.1087H17.336ZM17.3168 17.5046C17.3511 17.5046 17.3831 17.4987 17.4117 17.4859C17.4413 17.4725 17.4675 17.4551 17.4891 17.433C17.5112 17.4108 17.5287 17.3846 17.5415 17.3538C17.5537 17.3247 17.5607 17.2921 17.5607 17.2577C17.5607 17.2228 17.5537 17.1908 17.5421 17.1611C17.5287 17.1308 17.5112 17.104 17.4897 17.0819C17.4675 17.0598 17.4413 17.0423 17.4117 17.0295C17.3825 17.0167 17.3511 17.0109 17.3168 17.0109C17.2824 17.0109 17.2498 17.0167 17.2201 17.0301C17.1898 17.0417 17.1631 17.0598 17.1409 17.0825C17.1188 17.104 17.1014 17.1308 17.0891 17.1611C17.0763 17.1908 17.0705 17.2228 17.0705 17.2577C17.0705 17.2921 17.0763 17.3241 17.0891 17.3538C17.1014 17.3846 17.1188 17.4108 17.1415 17.433C17.1631 17.4551 17.1898 17.4725 17.2201 17.4854C17.2498 17.4987 17.2824 17.5052 17.3168 17.5052V17.5046ZM17.3168 16.9399C17.3616 16.9399 17.4029 16.948 17.4413 16.9649C17.4809 16.9812 17.5147 17.0039 17.5444 17.033C17.5735 17.0615 17.5956 17.0953 17.6125 17.1343C17.6294 17.1727 17.6375 17.2141 17.6375 17.2577C17.6375 17.3014 17.6294 17.3427 17.6125 17.3806C17.5956 17.419 17.5729 17.4528 17.5444 17.4813C17.5147 17.5104 17.4809 17.5337 17.4413 17.55C17.4029 17.5674 17.3616 17.5756 17.3168 17.5756C17.2713 17.5756 17.2294 17.5669 17.1898 17.55C17.1503 17.5331 17.1159 17.5104 17.0868 17.4813C17.0577 17.4528 17.0356 17.419 17.0187 17.3806C17.0018 17.3427 16.9937 17.3014 16.9937 17.2577C16.9937 17.2141 17.0018 17.1727 17.0187 17.1343C17.0356 17.0953 17.0583 17.0615 17.0868 17.033C17.1159 17.0039 17.1503 16.9806 17.1898 16.9649C17.2294 16.948 17.2713 16.9399 17.3168 16.9399Z" fill="#231F20"/>
</svg>
