<svg width="24" height="24" viewBox="0 0 24 24" fill="none" xmlns="http://www.w3.org/2000/svg">
<path d="M22.2857 4H1.71429C0.767512 4 0 4.85961 0 5.92V18.08C0 19.1404 0.767512 20 1.71429 20H22.2857C23.2325 20 24 19.1404 24 18.08V5.92C24 4.85961 23.2325 4 22.2857 4Z" fill="white"/>
<path fill-rule="evenodd" clip-rule="evenodd" d="M22.2857 4.5H1.71429C1.09543 4.5 0.5 5.08097 0.5 5.92V18.08C0.5 18.919 1.09543 19.5 1.71429 19.5H22.2857C22.9046 19.5 23.5 18.919 23.5 18.08V5.92C23.5 5.08097 22.9046 4.5 22.2857 4.5ZM1.71429 4H22.2857C23.2325 4 24 4.85961 24 5.92V18.08C24 19.1404 23.2325 20 22.2857 20H1.71429C0.767512 20 0 19.1404 0 18.08V5.92C0 4.85961 0.767512 4 1.71429 4Z" fill="#CCCFD9"/>
<path fill-rule="evenodd" clip-rule="evenodd" d="M10.1217 7.42834H13.8994V14.2518H10.1217V7.42834Z" fill="#FF5F00"/>
<path fill-rule="evenodd" clip-rule="evenodd" d="M10.3612 10.8406C10.3612 9.45371 11.0092 8.224 12.0041 7.42857C11.2727 6.84971 10.3492 6.5 9.3418 6.5C6.95551 6.5 5.02466 8.44114 5.02466 10.8406C5.02466 13.2394 6.95609 15.1806 9.3418 15.1806C10.3492 15.1806 11.2732 14.8309 12.0047 14.252C11.0092 13.4686 10.3612 12.2269 10.3612 10.8406Z" fill="#EB001B"/>
<path fill-rule="evenodd" clip-rule="evenodd" d="M18.9961 10.8406C18.9961 13.2394 17.0647 15.1806 14.6784 15.1806C13.6715 15.1806 12.7481 14.8309 12.0161 14.252C13.0235 13.4566 13.6595 12.2269 13.6595 10.8406C13.6595 9.45371 13.0115 8.224 12.0161 7.42857C12.7475 6.84971 13.6715 6.5 14.679 6.5C17.0653 6.5 18.9961 8.45314 18.9961 10.8406Z" fill="#F79E1B"/>
<path d="M7.56695 17.3747V16.6513C7.56695 16.3741 7.39952 16.193 7.11152 16.193C6.96752 16.193 6.81152 16.2416 6.70352 16.3981C6.62009 16.2656 6.5001 16.193 6.3201 16.193C6.2001 16.193 6.08009 16.229 5.98409 16.3621V16.217H5.73267V17.3747H5.98409V16.7358C5.98409 16.5301 6.09267 16.4341 6.26009 16.4341C6.42809 16.4341 6.51152 16.5427 6.51152 16.7358V17.3747H6.76352V16.7358C6.76352 16.5301 6.88352 16.4341 7.03952 16.4341C7.20752 16.4341 7.29095 16.5427 7.29095 16.7358V17.3747H7.56695ZM11.2967 16.217H10.8892V15.8678H10.6372V16.217H10.4092V16.4461H10.6372V16.977C10.6372 17.2421 10.7452 17.3987 11.0332 17.3987C11.1407 17.3987 11.2607 17.3627 11.3447 17.3141L11.2727 17.097C11.2007 17.1456 11.1167 17.1576 11.0572 17.1576C10.9372 17.1576 10.8892 17.085 10.8892 16.9644V16.4461H11.2967V16.2176V16.217ZM13.4315 16.193C13.2875 16.193 13.1915 16.2656 13.1315 16.3621V16.217H12.8801V17.3747H13.1315V16.7233C13.1315 16.5307 13.2155 16.4221 13.3715 16.4221C13.4195 16.4221 13.4795 16.4341 13.5275 16.4461L13.5995 16.205C13.5515 16.1936 13.4795 16.1936 13.4315 16.1936V16.193ZM10.2058 16.3136C10.0858 16.229 9.91781 16.1936 9.73781 16.1936C9.44981 16.1936 9.25781 16.3376 9.25781 16.5667C9.25781 16.7598 9.40181 16.8684 9.65381 16.9038L9.77381 16.9164C9.90524 16.9404 9.97781 16.977 9.97781 17.037C9.97781 17.1216 9.88181 17.1816 9.71381 17.1816C9.54581 17.1816 9.41381 17.1216 9.32981 17.0616L9.20981 17.2541C9.34181 17.3507 9.52181 17.3987 9.70181 17.3987C10.0378 17.3987 10.2292 17.2421 10.2292 17.025C10.2292 16.8198 10.0738 16.7113 9.83381 16.6753L9.71381 16.6633C9.60581 16.6513 9.52181 16.6273 9.52181 16.5547C9.52181 16.4701 9.60581 16.4221 9.73781 16.4221C9.88181 16.4221 10.0258 16.4821 10.0978 16.5187L10.2058 16.3136ZM16.8972 16.1936C16.7532 16.1936 16.6572 16.2656 16.5972 16.3621V16.217H16.3458V17.3747H16.5972V16.7233C16.5972 16.5307 16.6812 16.4221 16.8372 16.4221C16.8852 16.4221 16.9452 16.4341 16.9932 16.4461L17.0652 16.205C17.0172 16.1936 16.9452 16.1936 16.8972 16.1936ZM13.6835 16.7958C13.6835 17.1456 13.9235 17.3987 14.295 17.3987C14.463 17.3987 14.583 17.3627 14.7024 17.2661L14.5824 17.061C14.487 17.1336 14.391 17.1696 14.283 17.1696C14.079 17.1696 13.935 17.025 13.935 16.7958C13.935 16.5787 14.079 16.4341 14.283 16.4221C14.391 16.4221 14.487 16.4581 14.583 16.5307L14.703 16.3256C14.583 16.229 14.463 16.193 14.295 16.193C13.9235 16.193 13.6835 16.4461 13.6835 16.7958ZM16.0098 16.7958V16.217H15.7584V16.3621C15.6738 16.2536 15.5538 16.193 15.3984 16.193C15.0744 16.193 14.8224 16.4461 14.8224 16.7958C14.8224 17.1456 15.0744 17.3987 15.3984 17.3987C15.5658 17.3987 15.6858 17.3381 15.7584 17.2301V17.3747H16.0098V16.7958ZM15.0864 16.7958C15.0864 16.5907 15.2178 16.4221 15.4344 16.4221C15.6378 16.4221 15.7818 16.5787 15.7818 16.7958C15.7818 17.001 15.6378 17.1696 15.4344 17.1696C15.2184 17.1576 15.0864 17.001 15.0864 16.7958ZM12.0761 16.193C11.7407 16.193 11.5007 16.4341 11.5007 16.7958C11.5007 17.1576 11.7407 17.3987 12.0881 17.3987C12.2561 17.3987 12.4241 17.3507 12.5561 17.2421L12.4361 17.061C12.3401 17.1336 12.2201 17.1816 12.1001 17.1816C11.9447 17.1816 11.7887 17.1096 11.7527 16.9044H12.6041V16.8078C12.6155 16.4341 12.4001 16.193 12.0761 16.193ZM12.0761 16.4101C12.2321 16.4101 12.3401 16.5067 12.3641 16.6873H11.7641C11.7887 16.5307 11.8967 16.4101 12.0761 16.4101ZM18.3241 16.7958V15.7593H18.0727V16.3621C17.9887 16.2536 17.8687 16.193 17.7127 16.193C17.3887 16.193 17.1372 16.4461 17.1372 16.7958C17.1372 17.1456 17.3887 17.3987 17.7127 17.3987C17.8807 17.3987 18.0007 17.3381 18.0727 17.2301V17.3747H18.3241V16.7958ZM17.4007 16.7958C17.4007 16.5907 17.5327 16.4221 17.7487 16.4221C17.9527 16.4221 18.0967 16.5787 18.0967 16.7958C18.0967 17.001 17.9527 17.1696 17.7487 17.1696C17.5327 17.1576 17.4007 17.001 17.4007 16.7958ZM8.98238 16.7958V16.217H8.73095V16.3621C8.64638 16.2536 8.52638 16.193 8.37095 16.193C8.04695 16.193 7.79495 16.4461 7.79495 16.7958C7.79495 17.1456 8.04638 17.3987 8.37095 17.3987C8.53838 17.3987 8.65838 17.3381 8.73095 17.2301V17.3747H8.98238V16.7958ZM8.04695 16.7958C8.04695 16.5907 8.17838 16.4221 8.39495 16.4221C8.59838 16.4221 8.74238 16.5787 8.74238 16.7958C8.74238 17.001 8.59838 17.1696 8.39495 17.1696C8.17895 17.1576 8.04638 17.001 8.04638 16.7958H8.04695Z" fill="#231F20"/>
</svg>
