<svg width="24" height="24" viewBox="0 0 24 24" fill="none" xmlns="http://www.w3.org/2000/svg">
<path d="M22.2829 4H1.71707C0.768757 4 0 4.85961 0 5.92V18.08C0 19.1404 0.768757 20 1.71707 20H22.2829C23.2312 20 24 19.1404 24 18.08V5.92C24 4.85961 23.2312 4 22.2829 4Z" fill="white"/>
<path fill-rule="evenodd" clip-rule="evenodd" d="M22.2829 4.5H1.71707C1.09596 4.5 0.5 5.08177 0.5 5.92V18.08C0.5 18.9182 1.09596 19.5 1.71707 19.5H22.2829C22.904 19.5 23.5 18.9182 23.5 18.08V5.92C23.5 5.08177 22.904 4.5 22.2829 4.5ZM1.71707 4H22.2829C23.2312 4 24 4.85961 24 5.92V18.08C24 19.1404 23.2312 20 22.2829 20H1.71707C0.768757 20 0 19.1404 0 18.08V5.92C0 4.85961 0.768757 4 1.71707 4Z" fill="#CCCFD9"/>
<g clip-path="url(#clip0_278_1567)">
<path d="M9.45339 9.92726H8.35033C8.27484 9.92726 8.21065 9.9821 8.19887 10.0566L7.75274 12.8852C7.74387 12.941 7.7871 12.9913 7.84371 12.9913H8.37033C8.44581 12.9913 8.51 12.9365 8.52178 12.8618L8.6421 12.0989C8.65371 12.0242 8.71807 11.9694 8.79339 11.9694H9.14258C9.8692 11.9694 10.2886 11.6177 10.3981 10.921C10.4474 10.6161 10.4002 10.3766 10.2574 10.2089C10.1006 10.0247 9.82258 9.92726 9.45339 9.92726ZM9.58065 10.9603C9.52033 11.3561 9.21791 11.3561 8.92549 11.3561H8.75904L8.87581 10.6169C8.88275 10.5723 8.92145 10.5394 8.96662 10.5394H9.04291C9.2421 10.5394 9.43 10.5394 9.5271 10.6529C9.585 10.7206 9.60275 10.8213 9.58065 10.9603Z" fill="#253B80"/>
<path d="M12.7507 10.9476H12.2225C12.1775 10.9476 12.1386 10.9805 12.1317 11.0252L12.1083 11.1729L12.0713 11.1194C11.957 10.9534 11.702 10.8979 11.4475 10.8979C10.8638 10.8979 10.3652 11.34 10.2681 11.9602C10.2176 12.2695 10.2894 12.5653 10.4649 12.7716C10.6259 12.9613 10.8562 13.0403 11.1302 13.0403C11.6005 13.0403 11.8613 12.7379 11.8613 12.7379L11.8378 12.8847C11.8289 12.9408 11.8722 12.9911 11.9284 12.9911H12.4042C12.4799 12.9911 12.5438 12.9363 12.5557 12.8616L12.8412 11.0537C12.8502 10.9981 12.8072 10.9476 12.7507 10.9476ZM12.0144 11.9756C11.9634 12.2774 11.7239 12.48 11.4184 12.48C11.2651 12.48 11.1425 12.4308 11.0638 12.3376C10.9857 12.245 10.956 12.1132 10.9809 11.9665C11.0284 11.6673 11.272 11.4581 11.5728 11.4581C11.7228 11.4581 11.8447 11.5079 11.9251 11.6019C12.0055 11.6969 12.0375 11.8295 12.0144 11.9756Z" fill="#253B80"/>
<path d="M15.5639 10.9476H15.033C14.9824 10.9476 14.9348 10.9727 14.9061 11.0148L14.174 12.0932L13.8637 11.0569C13.8442 10.9921 13.7843 10.9476 13.7166 10.9476H13.195C13.1316 10.9476 13.0876 11.0095 13.1077 11.0692L13.6924 12.785L13.1427 13.561C13.0995 13.6221 13.143 13.7061 13.2177 13.7061H13.7479C13.7982 13.7061 13.8453 13.6816 13.8739 13.6403L15.6393 11.0919C15.6816 11.031 15.6382 10.9476 15.5639 10.9476Z" fill="#253B80"/>
<path d="M17.3213 9.92726H16.2181C16.1428 9.92726 16.0786 9.9821 16.0668 10.0566L15.6207 12.8852C15.6118 12.941 15.655 12.9913 15.7113 12.9913H16.2774C16.33 12.9913 16.375 12.9529 16.3832 12.9006L16.5099 12.0989C16.5215 12.0242 16.5858 11.9694 16.6611 11.9694H17.0102C17.737 11.9694 18.1561 11.6177 18.2658 10.921C18.3153 10.6161 18.2678 10.3766 18.125 10.2089C17.9684 10.0247 17.6905 9.92726 17.3213 9.92726ZM17.4486 10.9603C17.3884 11.3561 17.086 11.3561 16.7934 11.3561H16.6271L16.7441 10.6169C16.751 10.5723 16.7894 10.5394 16.8347 10.5394H16.911C17.11 10.5394 17.2981 10.5394 17.3952 10.6529C17.4531 10.7206 17.4707 10.8213 17.4486 10.9603Z" fill="#179BD7"/>
<path d="M20.6184 10.9476H20.0905C20.0452 10.9476 20.0066 10.9805 19.9999 11.0252L19.9765 11.1729L19.9394 11.1194C19.825 10.9534 19.5702 10.8979 19.3157 10.8979C18.732 10.8979 18.2336 11.34 18.1365 11.9602C18.0862 12.2695 18.1576 12.5653 18.3331 12.7716C18.4944 12.9613 18.7244 13.0403 18.9984 13.0403C19.4687 13.0403 19.7295 12.7379 19.7295 12.7379L19.706 12.8847C19.6971 12.9408 19.7404 12.9911 19.797 12.9911H20.2726C20.3479 12.9911 20.4121 12.9363 20.4239 12.8616L20.7095 11.0537C20.7183 10.9981 20.675 10.9476 20.6184 10.9476ZM19.8821 11.9756C19.8315 12.2774 19.5916 12.48 19.2862 12.48C19.1331 12.48 19.0102 12.4308 18.9315 12.3376C18.8534 12.245 18.8241 12.1132 18.8486 11.9665C18.8965 11.6673 19.1397 11.4581 19.4405 11.4581C19.5905 11.4581 19.7125 11.5079 19.7928 11.6019C19.8736 11.6969 19.9055 11.8295 19.8821 11.9756Z" fill="#179BD7"/>
<path d="M21.2411 10.0049L20.7884 12.8852C20.7795 12.941 20.8227 12.9913 20.879 12.9913H21.3342C21.4098 12.9913 21.474 12.9365 21.4856 12.8618L21.9321 10.0334C21.941 9.97759 21.8977 9.92711 21.8415 9.92711H21.3318C21.2868 9.92727 21.2481 9.96017 21.2411 10.0049Z" fill="#179BD7"/>
<path d="M3.17195 13.541L3.2563 13.0052L3.0684 13.0008H2.17114L2.79469 9.0471C2.79663 9.03517 2.80292 9.02404 2.81211 9.01613C2.8213 9.00823 2.83308 9.00388 2.84534 9.00388H4.35824C4.8605 9.00388 5.20711 9.10839 5.38808 9.31468C5.47292 9.41146 5.52695 9.51259 5.55308 9.62388C5.5805 9.74065 5.58098 9.88017 5.55421 10.0503L5.55227 10.0627V10.1718L5.63711 10.2198C5.70856 10.2577 5.76534 10.3011 5.80888 10.3508C5.88146 10.4336 5.9284 10.5387 5.94824 10.6634C5.96872 10.7916 5.96195 10.9442 5.9284 11.1169C5.88969 11.3156 5.82711 11.4887 5.74259 11.6303C5.66485 11.7608 5.56582 11.869 5.44824 11.9529C5.33598 12.0326 5.20259 12.0931 5.05179 12.1318C4.90566 12.1698 4.73905 12.189 4.5563 12.189H4.43856C4.35437 12.189 4.27259 12.2194 4.2084 12.2737C4.14405 12.3292 4.10147 12.405 4.0884 12.4879L4.07953 12.5361L3.9305 13.4805L3.92372 13.5152C3.92195 13.5261 3.91888 13.5316 3.91437 13.5353C3.91034 13.5387 3.90453 13.541 3.89888 13.541H3.17195Z" fill="#253B80"/>
<path d="M5.71747 10.0753C5.71295 10.1042 5.70779 10.1337 5.70199 10.164C5.50247 11.1884 4.81989 11.5423 3.94812 11.5423H3.50424C3.39763 11.5423 3.30779 11.6197 3.29118 11.7248L3.06392 13.1661L2.99957 13.5747C2.98876 13.6437 3.04199 13.706 3.11166 13.706H3.89892C3.99215 13.706 4.07134 13.6382 4.08602 13.5463L4.09376 13.5063L4.24199 12.5657L4.2515 12.514C4.26602 12.4218 4.34537 12.354 4.4386 12.354H4.55634C5.31908 12.354 5.91618 12.0444 6.0907 11.1482C6.1636 10.7739 6.12586 10.4613 5.93295 10.2415C5.87457 10.1752 5.80215 10.1202 5.71747 10.0753Z" fill="#179BD7"/>
<path d="M5.50872 9.9921C5.47823 9.98323 5.44678 9.97516 5.41452 9.96791C5.38211 9.96081 5.34888 9.95452 5.31469 9.94903C5.19501 9.92968 5.06388 9.92049 4.9234 9.92049H3.73759C3.7084 9.92049 3.68065 9.9271 3.65582 9.93903C3.60114 9.96533 3.56049 10.0171 3.55065 10.0805L3.2984 11.6782L3.29114 11.7248C3.30775 11.6197 3.39759 11.5423 3.5042 11.5423H3.94807C4.81985 11.5423 5.50243 11.1882 5.70194 10.164C5.70791 10.1337 5.71291 10.1042 5.71743 10.0753C5.66694 10.0486 5.61227 10.0256 5.5534 10.0061C5.53888 10.0013 5.52388 9.99662 5.50872 9.9921Z" fill="#222D65"/>
<path d="M3.55064 10.0805C3.56048 10.0171 3.60113 9.96533 3.6558 9.9392C3.6808 9.92726 3.70839 9.92065 3.73758 9.92065H4.92339C5.06387 9.92065 5.195 9.92984 5.31468 9.9492C5.34887 9.95468 5.38209 9.96097 5.41451 9.96807C5.44677 9.97533 5.47822 9.98339 5.50871 9.99226C5.52387 9.99678 5.53887 10.0015 5.55355 10.0061C5.61242 10.0257 5.66709 10.0487 5.71758 10.0753C5.77693 9.69678 5.71709 9.43904 5.51242 9.20565C5.28677 8.94871 4.87951 8.83871 4.35839 8.83871H2.84548C2.73903 8.83871 2.64822 8.91613 2.63177 9.02146L2.00161 13.0158C1.98919 13.0948 2.05016 13.1661 2.12984 13.1661H3.06387L3.29839 11.6782L3.55064 10.0805Z" fill="#253B80"/>
</g>
<defs>
<clipPath id="clip0_278_1567">
<rect width="20" height="5.32258" fill="white" transform="translate(2 8.83871)"/>
</clipPath>
</defs>
</svg>
