<svg width="24" height="24" viewBox="0 0 24 24" fill="none" xmlns="http://www.w3.org/2000/svg">
<path d="M22.2857 4H1.71429C0.767512 4 0 4.85961 0 5.92V18.08C0 19.1404 0.767512 20 1.71429 20H22.2857C23.2325 20 24 19.1404 24 18.08V5.92C24 4.85961 23.2325 4 22.2857 4Z" fill="white"/>
<path fill-rule="evenodd" clip-rule="evenodd" d="M22.2857 4.5H1.71429C1.09543 4.5 0.5 5.08097 0.5 5.92V18.08C0.5 18.919 1.09543 19.5 1.71429 19.5H22.2857C22.9046 19.5 23.5 18.919 23.5 18.08V5.92C23.5 5.08097 22.9046 4.5 22.2857 4.5ZM1.71429 4H22.2857C23.2325 4 24 4.85961 24 5.92V18.08C24 19.1404 23.2325 20 22.2857 20H1.71429C0.767512 20 0 19.1404 0 18.08V5.92C0 4.85961 0.767512 4 1.71429 4Z" fill="#CCCFD9"/>
<path d="M11.6881 9.44258L10.5967 14.5323H9.27667L10.3681 9.44258H11.6881ZM17.2412 12.7294L17.9361 10.818L18.3361 12.7294H17.2412ZM18.7144 14.5323H19.935L18.8687 9.44258H17.743C17.4892 9.44258 17.2755 9.58943 17.1807 9.81572L15.2001 14.5323H16.5864L16.8618 13.7723H18.555L18.7144 14.5323ZM15.2687 12.8706C15.2744 11.5277 13.4075 11.4534 13.4201 10.8534C13.4241 10.6706 13.5984 10.4763 13.9801 10.4266C14.1687 10.4026 14.6904 10.3826 15.2812 10.6546L15.5127 9.57458C15.195 9.46029 14.787 9.35001 14.2784 9.35001C12.9732 9.35001 12.0555 10.0414 12.0481 11.0323C12.0395 11.7649 12.7035 12.1734 13.2024 12.4174C13.7178 12.6671 13.8904 12.8271 13.8881 13.05C13.8841 13.3911 13.4767 13.5426 13.0984 13.5483C12.4344 13.5586 12.0498 13.3689 11.743 13.2266L11.503 14.342C11.8121 14.4831 12.3812 14.606 12.9704 14.6123C14.3578 14.6123 15.2647 13.9289 15.2687 12.8706ZM9.80238 9.44258L7.66353 14.5323H6.26867L5.2161 10.4706C5.1521 10.2209 5.09667 10.1289 4.90296 10.0237C4.58524 9.85172 4.06124 9.69058 3.6001 9.59058L3.63153 9.44258H5.87724C6.1641 9.44258 6.42124 9.63286 6.48696 9.96143L7.04238 12.9071L8.41553 9.44258H9.80238Z" fill="#1A1F71"/>
</svg>
