<svg width="24" height="24" viewBox="0 0 24 24" fill="none" xmlns="http://www.w3.org/2000/svg">
<path d="M3.71989 6.04C4.18989 6.5 4.92989 6.52 5.42989 6.1C5.79989 5.78 6.11989 5.59 6.29989 5.67C6.79989 5.87 6.29989 6.7 5.99989 7.19C5.74989 7.61 3.13989 11.08 3.13989 13.5C3.13989 14.78 3.61989 15.84 4.47989 16.48C5.22989 17.04 6.21989 17.21 7.11989 16.94C8.18989 16.63 9.06989 15.54 10.1799 14.17C11.3899 12.68 13.0099 10.73 14.2599 10.73C15.8899 10.73 15.9099 11.74 16.0199 12.52C12.2399 13.16 10.6399 16.19 10.6399 17.89C10.6399 19.59 12.0799 20.98 13.8499 20.98C15.4799 20.98 18.1399 19.65 18.5399 14.88H19.7499C20.4399 14.88 20.9999 14.32 20.9999 13.63C20.9999 12.94 20.4399 12.38 19.7499 12.38H18.5299C18.3799 10.73 17.4399 8.18 14.4999 8.18C12.2499 8.18 10.3199 10.09 9.55989 11.02C8.97989 11.75 7.49989 13.5 7.26989 13.74C7.01989 14.04 6.58989 14.58 6.15989 14.58C5.70989 14.58 5.43989 13.75 5.79989 12.66C6.14989 11.57 7.19989 9.8 7.64989 9.14C8.42989 8 8.94989 7.22 8.94989 5.86C8.94989 3.69 7.30989 3 6.43989 3C5.34989 3 4.39989 3.63 3.73989 4.22C3.20989 4.7 3.20989 5.54 3.71989 6.04ZM13.8799 18.55C13.5699 18.55 13.1399 18.29 13.1399 17.83C13.1399 17.23 13.8699 15.63 16.0099 15.07C15.7099 17.76 14.5799 18.55 13.8799 18.55Z" fill="black" fill-opacity="0.54"/>
</svg>
