<svg width="24" height="24" viewBox="0 0 24 24" fill="none" xmlns="http://www.w3.org/2000/svg">
<path d="M12 6.99996C12.55 6.99996 13 7.44996 13 7.99996V9.32996L20.2 16.53L20.71 16.02C20.9 15.83 21 15.58 21 15.31V8.67996C21 8.40996 20.89 8.15996 20.71 7.96996L16.03 3.28996C15.84 3.10996 15.58 2.99996 15.32 2.99996H8.68C8.42 2.99996 8.16 3.10996 7.98 3.28996L7.47 3.79996L11.16 7.48996C11.33 7.19996 11.64 6.99996 12 6.99996ZM2.41 1.57996L1 2.98996L4.64 6.62996L3.29 7.97996C3.11 8.15996 3 8.41996 3 8.67996V15.31C3 15.58 3.11 15.83 3.29 16.02L7.97 20.7C8.16 20.89 8.42 21 8.68 21H15.31C15.58 21 15.83 20.89 16.02 20.71L17.37 19.36L21.01 23L22.42 21.59L2.41 1.57996ZM12 17.3C11.28 17.3 10.7 16.72 10.7 16C10.7 15.28 11.28 14.7 12 14.7C12.72 14.7 13.3 15.28 13.3 16C13.3 16.72 12.72 17.3 12 17.3Z" fill="black" fill-opacity="0.54"/>
</svg>
