<svg width="24" height="24" viewBox="0 0 24 24" fill="none" xmlns="http://www.w3.org/2000/svg">
<path d="M4.50979 15.48L6.50979 13.89C6.98979 13.51 7.26979 12.93 7.26979 12.32V9.71999C10.2898 8.73999 13.5598 8.72999 16.5898 9.71999V12.33C16.5898 12.94 16.8698 13.52 17.3498 13.9L19.3398 15.48C20.1398 16.11 21.2798 16.05 21.9998 15.33L23.2198 14.11C24.0198 13.31 24.0198 11.98 23.1698 11.23C16.7598 5.56999 7.09979 5.56999 0.689791 11.23C-0.160209 11.98 -0.160209 13.31 0.639791 14.11L1.85979 15.33C2.56979 16.05 3.70979 16.11 4.50979 15.48Z" fill="black" fill-opacity="0.54"/>
</svg>
