<svg width="24" height="24" viewBox="0 0 24 24" fill="none" xmlns="http://www.w3.org/2000/svg">
<path d="M12.6502 10C11.7002 7.31 8.90018 5.5 5.77018 6.12C3.48018 6.58 1.62018 8.41 1.14018 10.7C0.320184 14.57 3.26018 18 7.00018 18C9.61018 18 11.8302 16.33 12.6502 14H17.0002V16C17.0002 17.1 17.9002 18 19.0002 18C20.1002 18 21.0002 17.1 21.0002 16V14C22.1002 14 23.0002 13.1 23.0002 12C23.0002 10.9 22.1002 10 21.0002 10H12.6502ZM7.00018 14C5.90018 14 5.00018 13.1 5.00018 12C5.00018 10.9 5.90018 10 7.00018 10C8.10018 10 9.00018 10.9 9.00018 12C9.00018 13.1 8.10018 14 7.00018 14Z" fill="black" fill-opacity="0.54"/>
</svg>
