<svg width="24" height="24" viewBox="0 0 24 24" fill="none" xmlns="http://www.w3.org/2000/svg">
<path d="M12 21C14.2091 21 16 19.2091 16 17C16 14.7909 14.2091 13 12 13C9.79086 13 8 14.7909 8 17C8 19.2091 9.79086 21 12 21Z" fill="black" fill-opacity="0.54"/>
<path d="M12.0001 3C8.49012 3 5.28012 4.29 2.80012 6.41C2.36012 6.79 2.32012 7.47 2.74012 7.89L6.34012 11.49C6.70012 11.85 7.26012 11.88 7.66012 11.57C8.86012 10.63 10.3701 10.07 12.0001 10.07C13.6401 10.07 15.1401 10.63 16.3401 11.56C16.7401 11.87 17.3001 11.84 17.6501 11.48L21.2501 7.88C21.6701 7.46 21.6301 6.78 21.1801 6.4C18.7201 4.28 15.5101 3 12.0001 3Z" fill="black" fill-opacity="0.54"/>
</svg>
