<svg width="24" height="24" viewBox="0 0 24 24" fill="none" xmlns="http://www.w3.org/2000/svg">
<path d="M12.6001 18.06C12.2401 18.34 11.7301 18.34 11.3701 18.06L5.22005 13.28C4.86005 13 4.36005 13 4.00005 13.28C3.49005 13.68 3.49005 14.45 4.00005 14.85L10.7601 20.11C11.4801 20.67 12.4901 20.67 13.2201 20.11L19.9801 14.85C20.4901 14.45 20.4901 13.68 19.9801 13.28L19.9701 13.27C19.6101 12.99 19.1101 12.99 18.7501 13.27L12.6001 18.06ZM13.2301 15.04L19.9901 9.78002C20.5001 9.38002 20.5001 8.60002 19.9901 8.20002L13.2301 2.94002C12.5101 2.38002 11.5001 2.38002 10.7701 2.94002L4.01005 8.21002C3.50005 8.61002 3.50005 9.39002 4.01005 9.79002L10.7701 15.05C11.4901 15.61 12.5101 15.61 13.2301 15.04Z" fill="black" fill-opacity="0.54"/>
</svg>
