<svg width="24" height="24" viewBox="0 0 24 24" fill="none" xmlns="http://www.w3.org/2000/svg">
<path d="M19.9599 10.59C19.9999 10.28 19.7699 10 19.4599 10H16.9999V8.86C18.5399 8.46 19.7199 7.18 19.9599 5.59C19.9999 5.28 19.7699 5 19.4599 5H16.9999V4C16.9999 3.45 16.5499 3 15.9999 3H7.99993C7.44993 3 6.99993 3.45 6.99993 4V5H4.53993C4.22993 5 3.99993 5.28 4.03993 5.59C4.27993 7.18 5.45993 8.46 6.99993 8.86V10H4.53993C4.22993 10 3.99993 10.28 4.03993 10.59C4.27993 12.18 5.45993 13.46 6.99993 13.86V15H4.53993C4.22993 15 3.99993 15.28 4.03993 15.59C4.27993 17.18 5.45993 18.46 6.99993 18.86V20C6.99993 20.55 7.44993 21 7.99993 21H15.9999C16.5499 21 16.9999 20.55 16.9999 20V18.86C18.5399 18.46 19.7199 17.18 19.9599 15.59C19.9999 15.28 19.7699 15 19.4599 15H16.9999V13.86C18.5399 13.46 19.7199 12.18 19.9599 10.59ZM11.9999 19C10.8899 19 9.99993 18.1 9.99993 17C9.99993 15.9 10.8899 15 11.9999 15C13.0999 15 13.9999 15.9 13.9999 17C13.9999 18.1 13.1099 19 11.9999 19ZM11.9999 14C10.8899 14 9.99993 13.1 9.99993 12C9.99993 10.9 10.8899 10 11.9999 10C13.0999 10 13.9999 10.9 13.9999 12C13.9999 13.1 13.1099 14 11.9999 14ZM11.9999 9C10.8899 9 9.99993 8.1 9.99993 7C9.99993 5.89 10.8899 5 11.9999 5C13.0999 5 13.9999 5.89 13.9999 7C13.9999 8.1 13.1099 9 11.9999 9Z" fill="black" fill-opacity="0.54"/>
</svg>
