<svg width="24" height="24" viewBox="0 0 24 24" fill="none" xmlns="http://www.w3.org/2000/svg">
<path d="M16.5 4.38C17.6046 4.38 18.5 3.48457 18.5 2.38C18.5 1.27544 17.6046 0.380005 16.5 0.380005C15.3954 0.380005 14.5 1.27544 14.5 2.38C14.5 3.48457 15.3954 4.38 16.5 4.38Z" fill="black" fill-opacity="0.54"/>
<path d="M24 10.88V7.17999L19.01 5.06999C18.03 4.65999 16.89 4.99999 16.3 5.87999L15.3 7.47999C14.63 8.65999 13.39 9.53999 11.89 9.79999L11.95 9.85999C12.64 10.55 13.47 10.93 14.41 11.03C15.21 10.61 15.93 10.05 16.5 9.38999L17.1 12.39L15.94 13.49L15 14.38V15.14V20.88C15 21.43 15.45 21.88 16 21.88C16.55 21.88 17 21.43 17 20.88V15.88L19.1 13.88L20.72 21.07C20.83 21.54 21.25 21.88 21.74 21.88C22.4 21.88 22.89 21.28 22.76 20.64L20.82 10.88L20.2 7.77999L22 8.47999V10.88C22 11.43 22.45 11.88 23 11.88C23.55 11.88 24 11.43 24 10.88Z" fill="black" fill-opacity="0.54"/>
<path d="M10.29 8.09C10.51 8.24 10.76 8.33 11.01 8.38C11.14 8.4 11.26 8.42 11.39 8.42C11.52 8.42 11.65 8.41 11.77 8.38C11.9 8.36 12.02 8.32 12.14 8.27C12.38 8.17 12.61 8.03 12.8 7.83C13.29 7.34 13.47 6.66 13.35 6.03C13.28 5.66 13.1 5.29 12.8 5C12.61 4.81 12.38 4.66 12.14 4.56C12.02 4.51 11.9 4.47 11.77 4.45C11.64 4.43 11.52 4.41 11.39 4.41C11.27 4.41 11.16 4.42 11.04 4.44C10.9 4.46 10.76 4.5 10.63 4.55C10.4 4.66 10.17 4.81 9.97996 5C9.67996 5.29 9.49996 5.66 9.42996 6.03C9.30996 6.66 9.48996 7.34 9.97996 7.83C10.07 7.93 10.18 8.01 10.29 8.09Z" fill="black" fill-opacity="0.54"/>
<path d="M11.24 10.56L9.24003 8.56001C9.14003 8.46001 9.04003 8.38001 8.93003 8.30001C8.71003 8.16001 8.46003 8.06001 8.21003 8.02001C8.08003 7.99001 7.96003 7.98001 7.83003 7.98001C7.32003 7.98001 6.81003 8.18001 6.42003 8.57001L3.08003 11.91C2.67003 12.32 2.46003 12.89 2.50003 13.45C2.50003 13.63 2.54003 13.82 2.61003 14L3.68003 16.95L0.760029 19.87C0.370029 20.26 0.370029 20.89 0.760029 21.28C1.15003 21.67 1.78003 21.67 2.17003 21.28L5.71003 17.74V15.52L7.00003 16.75V20.88C7.00003 21.43 7.45003 21.88 8.00003 21.88C8.55003 21.88 9.00003 21.43 9.00003 20.88V15.88L6.88003 13.76L9.24003 11.4L9.95003 12.11C10.97 13.11 12.23 13.8 13.74 14.05C14.38 14.16 14.95 13.6 14.9 12.95C14.87 12.47 14.5 12.08 14.03 12.01C12.9 11.83 11.97 11.29 11.24 10.56Z" fill="black" fill-opacity="0.54"/>
</svg>
