<svg width="24" height="24" viewBox="0 0 24 24" fill="none" xmlns="http://www.w3.org/2000/svg">
<path d="M6 4.01001C3.58 5.84001 2 8.73001 2 12C2 13.46 2.32 14.85 2.89 16.11L6 14.31V4.01001Z" fill="black" fill-opacity="0.54"/>
<path d="M11 11.42V2.04999C9.94 2.15999 8.93 2.42999 8 2.83999V13.16L11 11.42Z" fill="black" fill-opacity="0.54"/>
<path d="M12 13.15L3.89001 17.83C4.50001 18.67 5.23001 19.42 6.07001 20.03L15 14.89L12 13.15Z" fill="black" fill-opacity="0.54"/>
<path d="M13 7.95999V11.42L21.11 16.1C21.53 15.17 21.81 14.17 21.93 13.12L13 7.95999Z" fill="black" fill-opacity="0.54"/>
<path d="M8.06995 21.2C9.27995 21.71 10.5999 22 11.9999 22C15.3399 22 18.2899 20.35 20.1099 17.84L16.9999 16.04L8.06995 21.2Z" fill="black" fill-opacity="0.54"/>
<path d="M21.92 10.81C21.37 6.17999 17.66 2.50999 13 2.04999V5.64999L21.92 10.81Z" fill="black" fill-opacity="0.54"/>
</svg>
