<svg width="24" height="24" viewBox="0 0 24 24" fill="none" xmlns="http://www.w3.org/2000/svg">
<path d="M17.09 11H21.95C21.79 9.39001 21.24 7.89001 20.41 6.60001C18.68 7.43001 17.42 9.05001 17.09 11Z" fill="black" fill-opacity="0.54"/>
<path d="M6.91005 11C6.58005 9.05001 5.32005 7.43001 3.59005 6.60001C2.76005 7.89001 2.21005 9.39001 2.05005 11H6.91005Z" fill="black" fill-opacity="0.54"/>
<path d="M15.07 11C15.39 8.40999 16.95 6.20999 19.13 4.99999C17.53 3.36999 15.39 2.28999 13 2.04999V11H15.07Z" fill="black" fill-opacity="0.54"/>
<path d="M8.93 11H11V2.04999C8.61 2.28999 6.46 3.36999 4.87 4.99999C7.05 6.20999 8.61 8.40999 8.93 11Z" fill="black" fill-opacity="0.54"/>
<path d="M15.07 13H13V21.95C15.39 21.71 17.54 20.63 19.13 19C16.95 17.79 15.39 15.59 15.07 13Z" fill="black" fill-opacity="0.54"/>
<path d="M3.59005 17.4C5.31005 16.57 6.58005 14.94 6.91005 13H2.05005C2.21005 14.61 2.76005 16.11 3.59005 17.4Z" fill="black" fill-opacity="0.54"/>
<path d="M17.09 13C17.42 14.95 18.68 16.57 20.41 17.4C21.24 16.11 21.79 14.61 21.95 13H17.09Z" fill="black" fill-opacity="0.54"/>
<path d="M8.93 13C8.61 15.59 7.05 17.79 4.87 19C6.47 20.63 8.61 21.71 11 21.95V13H8.93Z" fill="black" fill-opacity="0.54"/>
</svg>
