<svg width="24" height="24" viewBox="0 0 24 24" fill="none" xmlns="http://www.w3.org/2000/svg">
<path d="M14.9398 10.11L10.5398 14.53L8.93976 12.93C8.64976 12.64 8.16976 12.64 7.87976 12.93C7.58976 13.22 7.58976 13.7 7.87976 13.99L9.99976 16.11C10.2898 16.4 10.7698 16.4 11.0598 16.11L15.9998 11.17C16.2898 10.88 16.2898 10.4 15.9998 10.11C15.7098 9.82002 15.2298 9.82002 14.9398 10.11ZM21.1798 5.01002L18.0998 2.45002C17.6798 2.10002 17.0498 2.15002 16.6898 2.58002C16.3398 3.00002 16.3998 3.63002 16.8198 3.99002L19.8898 6.55002C20.3098 6.90002 20.9398 6.85002 21.2998 6.42002C21.6598 6.00002 21.5998 5.37002 21.1798 5.01002ZM4.09976 6.55002L7.16976 3.99002C7.59976 3.63002 7.65976 3.00002 7.29976 2.58002C6.94976 2.15002 6.31976 2.10002 5.89976 2.45002L2.81976 5.01002C2.39976 5.37002 2.33976 6.00002 2.69976 6.42002C3.04976 6.85002 3.67976 6.90002 4.09976 6.55002ZM11.9998 4.00002C7.02976 4.00002 2.99976 8.03002 2.99976 13C2.99976 17.97 7.02976 22 11.9998 22C16.9698 22 20.9998 17.97 20.9998 13C20.9998 8.03002 16.9698 4.00002 11.9998 4.00002ZM11.9998 20C8.13976 20 4.99976 16.86 4.99976 13C4.99976 9.14002 8.13976 6.00002 11.9998 6.00002C15.8598 6.00002 18.9998 9.14002 18.9998 13C18.9998 16.86 15.8598 20 11.9998 20Z" fill="black" fill-opacity="0.54"/>
</svg>
