<svg width="24" height="24" viewBox="0 0 24 24" fill="none" xmlns="http://www.w3.org/2000/svg">
<path d="M15.8698 15.25L12.4998 13.25V8.72002C12.4998 8.32002 12.1798 8.00002 11.7798 8.00002H11.7198C11.3198 8.00002 10.9998 8.32002 10.9998 8.72002V13.44C10.9998 13.79 11.1798 14.12 11.4898 14.3L15.1398 16.49C15.4798 16.69 15.9198 16.59 16.1198 16.25C16.3298 15.9 16.2198 15.45 15.8698 15.25ZM21.1798 5.01002L18.0998 2.45002C17.6798 2.10002 17.0498 2.15002 16.6898 2.58002C16.3398 3.00002 16.3998 3.63002 16.8198 3.99002L19.8898 6.55002C20.3098 6.90002 20.9398 6.85002 21.2998 6.42002C21.6598 6.00002 21.5998 5.37002 21.1798 5.01002ZM4.09976 6.55002L7.16976 3.99002C7.59976 3.63002 7.65976 3.00002 7.29976 2.58002C6.94976 2.15002 6.31976 2.10002 5.89976 2.45002L2.81976 5.01002C2.39976 5.37002 2.33976 6.00002 2.69976 6.42002C3.04976 6.85002 3.67976 6.90002 4.09976 6.55002ZM11.9998 4.00002C7.02976 4.00002 2.99976 8.03002 2.99976 13C2.99976 17.97 7.02976 22 11.9998 22C16.9698 22 20.9998 17.97 20.9998 13C20.9998 8.03002 16.9698 4.00002 11.9998 4.00002ZM11.9998 20C8.13976 20 4.99976 16.86 4.99976 13C4.99976 9.14002 8.13976 6.00002 11.9998 6.00002C15.8598 6.00002 18.9998 9.14002 18.9998 13C18.9998 16.86 15.8598 20 11.9998 20Z" fill="black" fill-opacity="0.54"/>
</svg>
