<svg width="24" height="24" viewBox="0 0 24 24" fill="none" xmlns="http://www.w3.org/2000/svg">
<path d="M10.0398 6.28998C10.6598 6.10998 11.3198 5.99998 11.9998 5.99998C15.8598 5.99998 18.9998 9.13998 18.9998 13C18.9998 13.68 18.8898 14.34 18.7098 14.96L20.2698 16.52C20.7398 15.44 20.9998 14.25 20.9998 13C20.9998 8.02998 16.9698 3.99998 11.9998 3.99998C10.7498 3.99998 9.55982 4.25998 8.46982 4.71998L10.0398 6.28998ZM3.70982 2.78998C3.32982 2.40998 2.70982 2.40998 2.31982 2.78998L2.29982 2.81998C1.90982 3.20998 1.90982 3.82998 2.29982 4.20998L2.97982 4.88998L2.80982 5.02998C2.38982 5.36998 2.33982 5.98998 2.67982 6.40998L2.70982 6.43998C3.05982 6.85998 3.66982 6.90998 4.08982 6.55998L4.39982 6.30998L5.19982 7.10998C3.82982 8.68998 2.99982 10.75 2.99982 13C2.99982 17.97 7.02982 22 11.9998 22C14.2498 22 16.3098 21.17 17.8898 19.8L19.2998 21.21C19.6798 21.59 20.2998 21.59 20.6898 21.21L20.7198 21.18C21.0998 20.8 21.0998 20.18 20.7198 19.79L3.70982 2.78998ZM11.9998 20C8.13982 20 4.99982 16.86 4.99982 13C4.99982 11.3 5.60982 9.73998 6.61982 8.52998L16.4698 18.38C15.2598 19.39 13.6998 20 11.9998 20ZM19.9098 6.55998C20.3298 6.90998 20.9398 6.84998 21.2898 6.43998L21.3198 6.40998C21.6698 5.98998 21.6098 5.37998 21.1998 5.02998L18.0998 2.43998C17.6798 2.08998 17.0698 2.14998 16.7198 2.55998L16.6898 2.58998C16.3398 3.00998 16.3998 3.61998 16.8098 3.96998L19.9098 6.55998ZM7.42982 3.67998C7.60982 3.33998 7.57982 2.90998 7.31982 2.58998L7.28982 2.55998C6.98982 2.19998 6.48982 2.12998 6.08982 2.33998L7.42982 3.67998Z" fill="black" fill-opacity="0.54"/>
</svg>
