<svg width="24" height="24" viewBox="0 0 24 24" fill="none" xmlns="http://www.w3.org/2000/svg">
<path d="M20.4702 5.62999C20.8602 6.01999 20.8602 6.63999 20.4702 7.02999L9.1302 18.37C8.7402 18.76 8.1202 18.76 7.7302 18.37L3.5302 14.17C3.1402 13.78 3.1402 13.16 3.5302 12.77C3.9202 12.38 4.5402 12.38 4.9302 12.77L8.4302 16.27L19.0702 5.62999C19.4602 5.23999 20.0802 5.23999 20.4702 5.62999ZM18.3602 3.50999L8.4302 13.44L5.6402 10.65C4.8602 9.86999 3.5902 9.86999 2.8102 10.65L1.4102 12.05C0.630195 12.83 0.630195 14.1 1.4102 14.88L7.0102 20.48C7.7902 21.26 9.0602 21.26 9.8402 20.48L22.5902 7.73999C23.3702 6.95999 23.3702 5.68999 22.5902 4.90999L21.1902 3.50999C20.4002 2.72999 19.1402 2.72999 18.3602 3.50999Z" fill="black" fill-opacity="0.54"/>
</svg>
