<svg width="24" height="24" viewBox="0 0 24 24" fill="none" xmlns="http://www.w3.org/2000/svg">
<path d="M20.5002 19H3.50022C2.95022 19 2.50022 19.45 2.50022 20C2.50022 20.55 2.95022 21 3.50022 21H20.5002C21.0502 21 21.5002 20.55 21.5002 20C21.5002 19.45 21.0502 19 20.5002 19ZM22.0702 9.64003C21.8502 8.84003 21.0302 8.37003 20.2302 8.58003L14.9202 10L8.46022 3.98003C8.19022 3.72003 7.80022 3.63003 7.44022 3.73003C6.76022 3.92003 6.44022 4.70003 6.79022 5.31003L10.2302 11.27L5.26022 12.6L3.69022 11.36C3.44022 11.17 3.12022 11.1 2.81022 11.18L2.48022 11.27C2.16022 11.35 2.01022 11.72 2.18022 12L4.06022 15.25C4.29022 15.64 4.75022 15.83 5.18022 15.72L21.0002 11.48C21.8002 11.26 22.2802 10.44 22.0702 9.64003Z" fill="black" fill-opacity="0.54"/>
</svg>
