<svg width="24" height="24" viewBox="0 0 24 24" fill="none" xmlns="http://www.w3.org/2000/svg">
<path d="M21.5902 12.5799C21.8402 12.2299 21.8402 11.7699 21.5902 11.4199L17.6302 5.83995C17.2702 5.32995 16.6702 4.99995 16.0002 4.99995H8.66022L19.3602 15.7299L21.5902 12.5799ZM2.72022 4.71995L3.59022 5.58995C3.23022 5.94995 3.00022 6.44995 3.00022 6.99995V16.9999C3.00022 18.0999 3.90022 18.9999 5.00022 18.9999H17.0002L18.2902 20.2899C18.6802 20.6799 19.3102 20.6799 19.7002 20.2899C20.0902 19.8999 20.0902 19.2699 19.7002 18.8799L4.14022 3.30995C3.76022 2.92995 3.13022 2.91995 2.74022 3.29995C2.33022 3.67995 2.33022 4.32995 2.72022 4.71995Z" fill="black" fill-opacity="0.54"/>
</svg>
