<svg width="24" height="24" viewBox="0 0 24 24" fill="none" xmlns="http://www.w3.org/2000/svg">
<path d="M11.0002 6V10.59H8.7102C8.2602 10.59 8.0402 11.13 8.3602 11.44L11.6502 14.73C11.8502 14.93 12.1602 14.93 12.3602 14.73L15.6502 11.44C15.9602 11.13 15.7402 10.59 15.3002 10.59H13.0002V6C13.0002 5.45 12.5502 5 12.0002 5C11.4502 5 11.0002 5.45 11.0002 6ZM7.1002 14C6.4902 14 5.9902 14.55 6.1102 15.15C6.6502 17.91 9.0802 20 12.0002 20C14.9202 20 17.3502 17.91 17.8902 15.15C18.0102 14.55 17.5102 14 16.9002 14C16.4102 14 16.0202 14.35 15.9202 14.83C15.5302 16.64 13.9302 18 12.0002 18C10.0702 18 8.4702 16.64 8.0902 14.83C7.9902 14.35 7.5902 14 7.1002 14Z" fill="black" fill-opacity="0.54"/>
</svg>
