<svg width="24" height="24" viewBox="0 0 24 24" fill="none" xmlns="http://www.w3.org/2000/svg">
<path d="M7.00018 6.11994C6.57018 5.76994 5.94018 5.81994 5.59018 6.24994L1.35018 11.3599C1.04018 11.7299 1.04018 12.2699 1.35018 12.6399L5.59018 17.7499C5.94018 18.1799 6.57018 18.2299 7.00018 17.8799C7.43018 17.5299 7.48018 16.8999 7.13018 16.4699L3.42018 11.9999L7.13018 7.52994C7.48018 7.09994 7.43018 6.46994 7.00018 6.11994ZM7.00018 12.9999H9.00018V10.9999H7.00018V12.9999ZM17.0002 10.9999H15.0002V12.9999H17.0002V10.9999ZM11.0002 12.9999H13.0002V10.9999H11.0002V12.9999ZM17.0002 6.11994C16.5702 6.46994 16.5202 7.09994 16.8702 7.52994L20.5802 11.9999L16.8702 16.4699C16.5202 16.8999 16.5802 17.5299 17.0002 17.8799C17.4302 18.2299 18.0602 18.1799 18.4102 17.7499L22.6502 12.6399C22.9602 12.2699 22.9602 11.7299 22.6502 11.3599L18.4102 6.24994C18.0602 5.82994 17.4202 5.76994 17.0002 6.11994Z" fill="black" fill-opacity="0.54"/>
</svg>
