<svg width="24" height="24" viewBox="0 0 24 24" fill="none" xmlns="http://www.w3.org/2000/svg">
<path d="M6.99981 24H8.99981V22H6.99981V24ZM10.9998 24H12.9998V22H10.9998V24ZM11.9998 2C11.4498 2 10.9998 2.45 10.9998 3V11C10.9998 11.55 11.4498 12 11.9998 12C12.5498 12 12.9998 11.55 12.9998 11V3C12.9998 2.45 12.5498 2 11.9998 2ZM15.9398 5.06L15.9198 5.08C15.5098 5.49 15.5598 6.16 15.9998 6.54C17.5098 7.88 18.3298 9.97 17.8798 12.24C17.4198 14.52 15.5898 16.38 13.3198 16.86C9.42981 17.69 5.99981 14.74 5.99981 11C5.99981 9.22 6.77981 7.63 8.00981 6.53C8.43981 6.14 8.47981 5.49 8.07981 5.08L8.05981 5.06C7.68981 4.69 7.09981 4.67 6.69981 5.02C4.68981 6.79 3.57981 9.55 4.13981 12.54C4.72981 15.69 7.24981 18.24 10.3998 18.85C15.5198 19.84 19.9998 15.95 19.9998 11C19.9998 8.62 18.9498 6.48 17.2898 5.01C16.8998 4.67 16.3098 4.69 15.9398 5.06ZM14.9998 24H16.9998V22H14.9998V24Z" fill="black" fill-opacity="0.54"/>
</svg>
