<svg width="24" height="24" viewBox="0 0 24 24" fill="none" xmlns="http://www.w3.org/2000/svg">
<path d="M15.0002 9H9.00024C8.45024 9 8.00024 9.45 8.00024 10V22C8.00024 22.55 8.45024 23 9.00024 23H15.0002C15.5502 23 16.0002 22.55 16.0002 22V10C16.0002 9.45 15.5502 9 15.0002 9ZM12.0002 15C10.9002 15 10.0002 14.1 10.0002 13C10.0002 11.9 10.9002 11 12.0002 11C13.1002 11 14.0002 11.9 14.0002 13C14.0002 14.1 13.1002 15 12.0002 15ZM7.82024 6.82C8.17024 7.17 8.72024 7.2 9.12024 6.92C9.93024 6.34 10.9302 6 12.0002 6C13.0702 6 14.0702 6.34 14.8802 6.91C15.2802 7.19 15.8302 7.17 16.1802 6.82C16.6102 6.39 16.5702 5.68 16.0902 5.32C14.9402 4.49 13.5302 4 12.0002 4C10.4702 4 9.06024 4.49 7.91024 5.32C7.42024 5.67 7.39024 6.39 7.82024 6.82ZM12.0002 0C9.36024 0 6.94024 0.93 5.05024 2.47C4.59024 2.85 4.55024 3.54 4.97024 3.96C5.33024 4.32 5.90024 4.35 6.29024 4.03C7.84024 2.77 9.83024 2 12.0002 2C14.1702 2 16.1602 2.77 17.7002 4.04C18.0902 4.36 18.6602 4.33 19.0202 3.97C19.4402 3.55 19.4002 2.86 18.9402 2.48C17.0602 0.93 14.6402 0 12.0002 0Z" fill="black" fill-opacity="0.54"/>
</svg>
