<svg width="24" height="24" viewBox="0 0 24 24" fill="none" xmlns="http://www.w3.org/2000/svg">
<path d="M13.1202 16C13.8102 16 14.2702 15.31 14.0202 14.68L9.77016 3.87C9.56016 3.34 9.06016 3 8.50016 3C7.94016 3 7.44016 3.34 7.23016 3.87L2.98016 14.68C2.73016 15.31 3.20016 16 3.88016 16C4.28016 16 4.64016 15.75 4.79016 15.37L5.67016 13H11.3102L12.2102 15.38C12.3602 15.75 12.7202 16 13.1202 16ZM6.43016 11L8.50016 5.48L10.5702 11H6.43016ZM20.8902 12.29L13.5002 19.68L10.5302 16.71C10.1402 16.32 9.51016 16.32 9.12016 16.71C8.73016 17.1 8.73016 17.73 9.12016 18.12L12.8002 21.8C13.1902 22.19 13.8202 22.19 14.2102 21.8L22.2902 13.71C22.6802 13.32 22.6802 12.69 22.2902 12.3C21.9102 11.91 21.2702 11.91 20.8902 12.29Z" fill="black" fill-opacity="0.54"/>
</svg>
