<svg width="24" height="24" viewBox="0 0 24 24" fill="none" xmlns="http://www.w3.org/2000/svg">
<path d="M17.6102 9.84998L18.1702 10.41L9.69015 18.9C9.30015 19.29 9.30015 19.92 9.69015 20.31C10.0802 20.7 10.7102 20.7 11.1002 20.31L19.5902 11.82L20.1502 12.38C20.4602 12.7 21.0002 12.48 21.0002 12.04V9.49998C21.0002 9.21998 20.7802 8.99998 20.5002 8.99998H17.9602C17.5202 8.99998 17.3002 9.53998 17.6102 9.84998ZM8.48015 12.75L12.0202 9.20998L13.6202 9.87998C13.9802 10.03 14.3902 9.94998 14.6702 9.66998C15.1602 9.17998 14.9902 8.35998 14.3502 8.09998L5.26015 4.49998C4.83015 4.33998 4.35015 4.43998 4.03015 4.75998C3.71015 5.07998 3.61015 5.55998 3.78015 5.98998L7.39015 15.08C7.64015 15.72 8.47015 15.89 8.96015 15.4C9.24015 15.12 9.32015 14.71 9.17015 14.35L8.48015 12.75ZM7.66015 11.03L5.43015 6.15998L10.3002 8.38998L7.66015 11.03Z" fill="black" fill-opacity="0.54"/>
</svg>
