<svg width="24" height="24" viewBox="0 0 24 24" fill="none" xmlns="http://www.w3.org/2000/svg">
<path d="M18.3199 5.68005C17.9599 6.04005 17.9299 6.60005 18.2499 7.00005C19.6999 8.82005 20.4599 11.3101 19.7799 13.9201C18.9899 16.9701 16.5999 19.2501 13.5699 19.8601C8.4699 20.8701 3.9999 16.9301 3.9999 12.0001C3.9999 7.92005 7.0499 4.56005 10.9999 4.07005V6.09005C7.8699 6.62005 5.5699 9.55005 6.0699 12.9201C6.4599 15.5301 8.6299 17.6301 11.2499 17.9501C14.8899 18.4001 17.9999 15.5601 17.9999 12.0001C17.9999 10.7501 17.6199 9.60005 16.9699 8.64005C16.6299 8.14005 15.8999 8.11005 15.4699 8.53005L15.4599 8.54005C15.1199 8.88005 15.0899 9.41005 15.3499 9.81005C15.9499 10.7301 16.1899 11.9101 15.8399 13.1301C15.4499 14.5001 14.2999 15.5901 12.8999 15.9001C10.2999 16.4701 7.9999 14.5101 7.9999 12.0001C7.9999 10.1401 9.2799 8.59005 10.9999 8.14005V10.2801C10.3999 10.6301 9.9999 11.2601 9.9999 12.0001C9.9999 13.1001 10.8999 14.0001 11.9999 14.0001C13.0999 14.0001 13.9999 13.1001 13.9999 12.0001C13.9999 11.2601 13.5999 10.6201 12.9999 10.2801V2.71005C12.9999 2.32005 12.6799 2.00005 12.2899 2.00005C6.9299 1.80005 2.3099 6.06005 2.0199 11.4001C1.6599 17.9501 7.4299 23.2201 14.0299 21.8001C17.9099 20.9701 20.9099 18.0001 21.7799 14.1301C22.4899 10.9701 21.5799 7.97005 19.8099 5.76005C19.4399 5.29005 18.7399 5.26005 18.3199 5.68005Z" fill="black" fill-opacity="0.54"/>
</svg>
