<svg width="24" height="24" viewBox="0 0 24 24" fill="none" xmlns="http://www.w3.org/2000/svg">
<path d="M17.0102 14H16.2102L15.9402 13.73C17.0902 12.39 17.7002 10.59 17.4502 8.64003C17.1102 6.00003 15.1002 3.78003 12.5002 3.18003C8.26022 2.20003 4.51022 5.53003 4.51022 9.50003H2.41022C1.94022 9.50003 1.73022 10.09 2.10022 10.39L5.50022 13.14C5.69022 13.34 6.01022 13.35 6.21022 13.15L9.11022 10.36C9.43022 10.05 9.21022 9.50003 8.76022 9.50003H6.51022C6.51022 7.01003 8.51022 5.02003 10.9702 5.00003C13.4102 4.98003 15.5102 7.05003 15.5102 9.49003C15.5102 11.97 13.4902 14 11.0102 14C10.5602 14 10.1202 13.93 9.71022 13.81C9.37022 13.71 9.00022 13.81 8.75022 14.07C8.22022 14.6 8.43022 15.52 9.14022 15.73C9.73022 15.9 10.3602 16 11.0102 16C12.6202 16 14.0902 15.41 15.2302 14.43L15.5002 14.7V15.49L19.7702 19.74C20.1802 20.15 20.8402 20.15 21.2502 19.74C21.6602 19.33 21.6602 18.66 21.2502 18.25L17.0102 14Z" fill="black" fill-opacity="0.54"/>
</svg>
