<svg width="24" height="24" viewBox="0 0 24 24" fill="none" xmlns="http://www.w3.org/2000/svg">
<path d="M18.8701 13C18.3701 13 17.9601 13.37 17.8901 13.86C17.4101 17.23 14.1201 19.7 10.4701 18.82C8.22007 18.28 6.56007 16.55 6.08007 14.29C5.27007 10.42 8.22007 7.00003 11.9501 7.00003V9.79003C11.9501 10.24 12.4901 10.46 12.8001 10.14L16.5901 6.35003C16.7901 6.15003 16.7901 5.84003 16.5901 5.64003L12.8001 1.85003C12.4901 1.54003 11.9501 1.76003 11.9501 2.20003V5.00003C7.01007 5.00003 3.11007 9.48003 4.11007 14.6C4.71007 17.71 7.01007 20.1 10.1001 20.79C14.9301 21.87 19.2501 18.59 19.8701 14.12C19.9601 13.53 19.4701 13 18.8701 13ZM12.4301 15.15C12.3801 15.22 12.3201 15.28 12.2501 15.32C12.1801 15.36 12.0801 15.38 11.9801 15.38C11.8101 15.38 11.6701 15.33 11.5601 15.23C11.4501 15.13 11.3901 14.99 11.3701 14.82H10.5301C10.5401 15.02 10.5801 15.19 10.6601 15.35C10.7401 15.51 10.8501 15.63 10.9801 15.74C11.1101 15.85 11.2701 15.93 11.4401 15.98C11.6101 16.03 11.7901 16.06 11.9701 16.06C12.2101 16.06 12.4301 16.02 12.6101 15.94C12.7901 15.86 12.9401 15.76 13.0601 15.63C13.1801 15.5 13.2701 15.35 13.3301 15.18C13.3901 15.01 13.4201 14.83 13.4201 14.64C13.4201 14.42 13.3901 14.21 13.3301 14.04C13.2701 13.87 13.1901 13.71 13.0801 13.59C12.9701 13.47 12.8301 13.37 12.6701 13.31C12.5101 13.25 12.3301 13.21 12.1201 13.21C12.0501 13.21 11.9801 13.22 11.9201 13.23C11.8601 13.24 11.7901 13.25 11.7401 13.27C11.6901 13.29 11.6401 13.3 11.5901 13.32C11.5401 13.34 11.5101 13.36 11.4801 13.37L11.5901 12.45H13.2901V11.74H10.9001L10.6501 13.91L11.3201 14.08C11.3501 14.05 11.3801 14.02 11.4201 13.99C11.4601 13.96 11.4901 13.94 11.5401 13.92C11.5901 13.9 11.6401 13.88 11.6901 13.87C11.7401 13.86 11.8201 13.85 11.8901 13.85C12.0101 13.85 12.1101 13.87 12.1901 13.9C12.2701 13.93 12.3501 13.99 12.4001 14.05C12.4501 14.11 12.5001 14.19 12.5301 14.29C12.5601 14.39 12.5701 14.48 12.5701 14.6C12.5701 14.72 12.5601 14.82 12.5401 14.91C12.5201 15 12.4801 15.08 12.4301 15.15Z" fill="black" fill-opacity="0.54"/>
</svg>
