<svg width="24" height="24" viewBox="0 0 24 24" fill="none" xmlns="http://www.w3.org/2000/svg">
<path d="M18.9199 12.9999C18.4199 12.9999 18.0099 13.3699 17.9399 13.8599C17.4599 17.2299 14.1699 19.6999 10.5199 18.8199C8.26987 18.2799 6.60987 16.5499 6.12987 14.2899C5.31987 10.4199 8.26987 6.99994 11.9999 6.99994V9.78994C11.9999 10.2399 12.5399 10.4599 12.8499 10.1399L16.6399 6.34994C16.8399 6.14994 16.8399 5.83994 16.6399 5.63994L12.8499 1.84994C12.5399 1.53994 11.9999 1.75994 11.9999 2.20994V4.99994C7.05987 4.99994 3.15987 9.47994 4.15987 14.5999C4.75987 17.7099 7.05987 20.0999 10.1499 20.7899C14.9799 21.8699 19.2999 18.5899 19.9199 14.1199C20.0099 13.5299 19.5199 12.9999 18.9199 12.9999ZM10.5399 15.2199C10.4799 15.2699 10.4199 15.3099 10.3399 15.3399C10.2599 15.3699 10.1699 15.3799 10.0699 15.3799C9.97987 15.3799 9.89987 15.3699 9.81987 15.3399C9.73987 15.3099 9.67987 15.2799 9.61987 15.2299C9.55987 15.1799 9.51987 15.1299 9.48987 15.0599C9.45987 14.9899 9.43987 14.9199 9.43987 14.8399H8.58987C8.58987 15.0499 8.62987 15.2299 8.70987 15.3899C8.78987 15.5499 8.89987 15.6699 9.03987 15.7699C9.17987 15.8699 9.32987 15.9499 9.49987 15.9999C9.66987 16.0499 9.84987 16.0699 10.0299 16.0699C10.2399 16.0699 10.4399 16.0399 10.6299 15.9899C10.8199 15.9399 10.9699 15.8499 11.1099 15.7499C11.2499 15.6499 11.3499 15.5099 11.4299 15.3599C11.5099 15.2099 11.5499 15.0299 11.5499 14.8299C11.5499 14.5999 11.4899 14.3899 11.3699 14.2199C11.2499 14.0499 11.0699 13.9199 10.8299 13.8299C10.9299 13.7799 11.0299 13.7299 11.1099 13.6599C11.1899 13.5899 11.2599 13.5199 11.3099 13.4399C11.3599 13.3599 11.4099 13.2799 11.4399 13.1899C11.4699 13.0999 11.4799 13.0099 11.4799 12.9199C11.4799 12.7199 11.4399 12.5499 11.3699 12.3899C11.2999 12.2299 11.1999 12.1099 11.0699 12.0099C10.9399 11.9099 10.7899 11.8299 10.6099 11.7799C10.4299 11.7299 10.2399 11.6999 10.0199 11.6999C9.82987 11.6999 9.63987 11.7299 9.47987 11.7799C9.31987 11.8299 9.15987 11.9099 9.03987 12.0099C8.91987 12.1099 8.80987 12.2299 8.73987 12.3799C8.66987 12.5299 8.62987 12.6799 8.62987 12.8599H9.47987C9.47987 12.7899 9.49987 12.7199 9.52987 12.6599C9.55987 12.5999 9.59987 12.5499 9.64987 12.5099C9.69987 12.4699 9.75987 12.4399 9.82987 12.4099C9.89987 12.3799 9.96987 12.3799 10.0499 12.3799C10.1499 12.3799 10.2299 12.3899 10.2999 12.4199C10.3699 12.4499 10.4299 12.4799 10.4799 12.5299C10.5299 12.5799 10.5599 12.6399 10.5899 12.6999C10.6199 12.7599 10.6299 12.8399 10.6299 12.9199C10.6299 13.0999 10.5799 13.2399 10.4699 13.3499C10.3599 13.4599 10.2099 13.5099 9.98987 13.5099H9.55987V14.1699H10.0099C10.1199 14.1699 10.2099 14.1799 10.2999 14.2099C10.3899 14.2399 10.4599 14.2699 10.5199 14.3199C10.5799 14.3699 10.6299 14.4399 10.6599 14.5199C10.6899 14.5999 10.7099 14.6999 10.7099 14.8099C10.7099 14.8999 10.6999 14.9799 10.6699 15.0499C10.6399 15.1199 10.5899 15.1599 10.5399 15.2199ZM14.4399 11.7799C14.2599 11.7099 14.0699 11.6799 13.8499 11.6799C13.6299 11.6799 13.4399 11.7099 13.2599 11.7799C13.0799 11.8499 12.9299 11.9599 12.8099 12.1099C12.6899 12.2599 12.5799 12.4499 12.5199 12.6799C12.4599 12.9099 12.4199 13.1799 12.4199 13.4999V14.2399C12.4199 14.5599 12.4599 14.8399 12.5299 15.0599C12.5999 15.2799 12.6999 15.4799 12.8299 15.6299C12.9599 15.7799 13.1099 15.8899 13.2899 15.9599C13.4699 16.0299 13.6599 16.0599 13.8799 16.0599C14.0999 16.0599 14.2899 16.0299 14.4699 15.9599C14.6499 15.8899 14.7999 15.7799 14.9199 15.6299C15.0399 15.4799 15.1399 15.2899 15.2099 15.0599C15.2799 14.8299 15.3099 14.5599 15.3099 14.2399V13.4999C15.3099 13.1799 15.2699 12.8999 15.1999 12.6799C15.1299 12.4599 15.0299 12.2599 14.8999 12.1099C14.7699 11.9599 14.6199 11.8499 14.4399 11.7799ZM14.4499 14.3499C14.4499 14.5399 14.4399 14.6999 14.4099 14.8299C14.3799 14.9599 14.3499 15.0699 14.2999 15.1499C14.2499 15.2299 14.1899 15.2899 14.1099 15.3199C14.0299 15.3499 13.9499 15.3699 13.8599 15.3699C13.7699 15.3699 13.6799 15.3499 13.6099 15.3199C13.5399 15.2899 13.4699 15.2299 13.4199 15.1499C13.3699 15.0699 13.3299 14.9599 13.2999 14.8299C13.2699 14.6999 13.2599 14.5399 13.2599 14.3499V13.3799C13.2599 13.1899 13.2699 13.0299 13.2999 12.8999C13.3299 12.7699 13.3599 12.6699 13.4199 12.5899C13.4799 12.5099 13.5299 12.4499 13.6099 12.4199C13.6899 12.3899 13.7699 12.3699 13.8599 12.3699C13.9499 12.3699 14.0399 12.3899 14.1099 12.4199C14.1799 12.4499 14.2499 12.5099 14.2999 12.5899C14.3499 12.6699 14.3899 12.7699 14.4199 12.8999C14.4499 13.0299 14.4599 13.1899 14.4599 13.3799V14.3499H14.4499Z" fill="black" fill-opacity="0.54"/>
</svg>
