<svg width="24" height="24" viewBox="0 0 24 24" fill="none" xmlns="http://www.w3.org/2000/svg">
<path d="M6.99996 6.99994H17V8.78994C17 9.23994 17.54 9.45994 17.85 9.13994L20.64 6.34994C20.84 6.14994 20.84 5.83994 20.64 5.63994L17.85 2.84994C17.54 2.53994 17 2.75994 17 3.20994V4.99994H5.99996C5.44996 4.99994 4.99996 5.44994 4.99996 5.99994V9.99994C4.99996 10.5499 5.44996 10.9999 5.99996 10.9999C6.54996 10.9999 6.99996 10.5499 6.99996 9.99994V6.99994ZM17 16.9999H6.99996V15.2099C6.99996 14.7599 6.45996 14.5399 6.14996 14.8599L3.35996 17.6499C3.15996 17.8499 3.15996 18.1599 3.35996 18.3599L6.14996 21.1499C6.45996 21.4599 6.99996 21.2399 6.99996 20.7899V18.9999H18C18.55 18.9999 19 18.5499 19 17.9999V13.9999C19 13.4499 18.55 12.9999 18 12.9999C17.45 12.9999 17 13.4499 17 13.9999V16.9999ZM13 14.2499V9.80994C13 9.35994 12.64 8.99994 12.19 8.99994C12.06 8.99994 11.94 9.02994 11.83 9.08994L10.34 9.82994C10.13 9.92994 9.99996 10.1499 9.99996 10.3799C9.99996 10.7199 10.28 10.9999 10.62 10.9999H11.5V14.2499C11.5 14.6599 11.84 14.9999 12.25 14.9999C12.66 14.9999 13 14.6599 13 14.2499Z" fill="black" fill-opacity="0.54"/>
</svg>
