<svg width="24" height="24" viewBox="0 0 24 24" fill="none" xmlns="http://www.w3.org/2000/svg">
<path d="M11.9898 5.00003V2.21003C11.9898 1.76003 11.4498 1.54003 11.1398 1.86003L7.34977 5.65003C7.14977 5.85003 7.14977 6.16003 7.34977 6.36003L11.1398 10.15C11.4498 10.46 11.9898 10.24 11.9898 9.80003V7.00003C15.7198 7.00003 18.6698 10.42 17.8498 14.29C17.3798 16.56 15.5398 18.39 13.2798 18.86C9.70977 19.61 6.52977 17.16 6.04977 13.85C5.98977 13.37 5.56977 13 5.06977 13C4.46977 13 3.98977 13.53 4.06977 14.13C4.68977 18.52 8.86977 21.77 13.5998 20.85C16.7198 20.24 19.2298 17.73 19.8398 14.61C20.8298 9.48003 16.9398 5.00003 11.9898 5.00003ZM10.8898 16H10.0398V12.74L9.02977 13.05V12.36L10.7998 11.73H10.8898V16ZM15.1698 14.24C15.1698 14.56 15.1398 14.84 15.0698 15.06C14.9998 15.28 14.8998 15.48 14.7798 15.63C14.6598 15.78 14.4998 15.89 14.3298 15.96C14.1598 16.03 13.9598 16.06 13.7398 16.06C13.5198 16.06 13.3298 16.03 13.1498 15.96C12.9698 15.89 12.8198 15.78 12.6898 15.63C12.5598 15.48 12.4598 15.29 12.3898 15.06C12.3198 14.83 12.2798 14.56 12.2798 14.24V13.5C12.2798 13.18 12.3098 12.9 12.3798 12.68C12.4498 12.46 12.5498 12.26 12.6698 12.11C12.7898 11.96 12.9498 11.85 13.1198 11.78C13.2898 11.71 13.4898 11.68 13.7098 11.68C13.9298 11.68 14.1198 11.71 14.2998 11.78C14.4798 11.85 14.6298 11.96 14.7598 12.11C14.8898 12.26 14.9898 12.45 15.0598 12.68C15.1298 12.91 15.1698 13.18 15.1698 13.5V14.24ZM14.3198 13.38C14.3198 13.19 14.3098 13.03 14.2798 12.9C14.2498 12.77 14.2098 12.67 14.1598 12.59C14.1098 12.51 14.0498 12.45 13.9698 12.42C13.8898 12.39 13.8098 12.37 13.7198 12.37C13.6298 12.37 13.5398 12.39 13.4698 12.42C13.3998 12.45 13.3298 12.51 13.2798 12.59C13.2298 12.67 13.1898 12.77 13.1598 12.9C13.1298 13.03 13.1198 13.19 13.1198 13.38V14.35C13.1198 14.54 13.1298 14.7 13.1598 14.83C13.1898 14.96 13.2298 15.07 13.2798 15.15C13.3298 15.23 13.3898 15.29 13.4698 15.32C13.5498 15.35 13.6298 15.37 13.7198 15.37C13.8098 15.37 13.8998 15.35 13.9698 15.32C14.0398 15.29 14.1098 15.23 14.1598 15.15C14.2098 15.07 14.2498 14.96 14.2698 14.83C14.2898 14.7 14.3098 14.54 14.3098 14.35V13.38H14.3198Z" fill="black" fill-opacity="0.54"/>
</svg>
