<svg width="24" height="24" viewBox="0 0 24 24" fill="none" xmlns="http://www.w3.org/2000/svg">
<path d="M10.0001 8.49998V15.5C10.0001 15.91 10.4701 16.15 10.8001 15.9L15.4701 12.4C15.7401 12.2 15.7401 11.8 15.4701 11.6L10.8001 8.09998C10.4701 7.84998 10.0001 8.08998 10.0001 8.49998ZM11.0001 3.22998C11.0001 2.58998 10.4101 2.09998 9.7901 2.23998C8.6701 2.49998 7.6101 2.93998 6.6701 3.53998C6.1401 3.87998 6.0601 4.63998 6.5101 5.08998C6.8301 5.40998 7.3401 5.48998 7.7201 5.24998C8.4901 4.75998 9.3401 4.39998 10.2601 4.19998C10.7001 4.09998 11.0001 3.68998 11.0001 3.22998ZM5.1001 6.50998C4.6401 6.05998 3.8901 6.12998 3.5501 6.66998C2.9501 7.60998 2.5101 8.66998 2.2501 9.78998C2.1101 10.41 2.5901 11 3.2301 11C3.6801 11 4.1001 10.7 4.1901 10.26C4.3901 9.34998 4.7601 8.48998 5.2401 7.72998C5.5001 7.33998 5.4201 6.82998 5.1001 6.50998ZM3.2301 13C2.5901 13 2.1001 13.59 2.2401 14.21C2.5001 15.33 2.9401 16.38 3.5401 17.33C3.8801 17.87 4.6401 17.94 5.0901 17.49C5.4101 17.17 5.4901 16.66 5.2401 16.28C4.7501 15.52 4.3901 14.67 4.1901 13.75C4.1001 13.3 3.6901 13 3.2301 13ZM6.6701 20.45C7.6201 21.05 8.6701 21.49 9.7901 21.75C10.4101 21.89 11.0001 21.4 11.0001 20.77C11.0001 20.32 10.7001 19.9 10.2601 19.81C9.3501 19.61 8.4901 19.24 7.7301 18.76C7.3401 18.52 6.8401 18.59 6.5201 18.92C6.0601 19.36 6.1301 20.11 6.6701 20.45ZM22.0001 12C22.0001 16.73 18.7001 20.71 14.2701 21.74C13.6501 21.89 13.0501 21.4 13.0501 20.76C13.0501 20.3 13.3601 19.9 13.8001 19.79C17.3501 18.97 20.0001 15.79 20.0001 12C20.0001 8.20998 17.3501 5.02998 13.8001 4.20998C13.3601 4.10998 13.0501 3.69998 13.0501 3.23998C13.0501 2.59998 13.6501 2.10998 14.2701 2.25998C18.7001 3.28998 22.0001 7.26998 22.0001 12Z" fill="black" fill-opacity="0.54"/>
</svg>
