<svg width="24" height="24" viewBox="0 0 24 24" fill="none" xmlns="http://www.w3.org/2000/svg">
<path d="M22.0001 14.6C22.0001 15.3 21.3301 15.8 20.6601 15.61L17.5101 14.68L10.5001 7.67V3.5C10.5001 2.67 11.1701 2 12.0001 2C12.8301 2 13.5001 2.67 13.5001 3.5V9L21.4801 13.7C21.8001 13.88 22.0001 14.23 22.0001 14.6ZM13.5001 13.5L9.56012 9.56L3.51012 3.51C3.12012 3.12 2.49012 3.12 2.10012 3.51C1.71012 3.9 1.71012 4.53 2.10012 4.92L7.77012 10.59L2.52012 13.7C2.20012 13.88 2.00012 14.23 2.00012 14.6C2.00012 15.3 2.67012 15.8 3.34012 15.61L10.5001 13.51V19L8.24012 20.35C8.09012 20.44 8.00012 20.61 8.00012 20.78V21.28V21.36C8.00012 21.69 8.31012 21.93 8.62012 21.85L11.5401 21.12L12.0001 21L12.3801 21.09L12.8001 21.2L14.7001 21.68L15.3701 21.85C15.6901 21.93 15.9901 21.69 15.9901 21.36V20.99V20.78C15.9901 20.6 15.9001 20.44 15.7501 20.35L13.5001 19V16.33L19.0701 21.9C19.4601 22.29 20.0901 22.29 20.4801 21.9C20.8701 21.51 20.8701 20.88 20.4801 20.49L13.5001 13.5Z" fill="black" fill-opacity="0.54"/>
</svg>
