<svg width="24" height="24" viewBox="0 0 24 24" fill="none" xmlns="http://www.w3.org/2000/svg">
<path d="M23.6401 7.00003C23.1901 6.66003 18.7101 3.00003 12.0001 3.00003C10.6801 3.00003 9.45011 3.14003 8.31011 3.38003L18.4301 13.5L23.6401 7.00003ZM4.12011 2.01003C3.73011 1.62003 3.10011 1.62003 2.71011 2.01003C2.32011 2.40003 2.32011 3.03003 2.71011 3.42003L4.06011 4.77003C1.91011 5.76003 0.590107 6.82003 0.360107 7.00003L10.4401 19.56C11.2401 20.56 12.7601 20.56 13.5601 19.56L15.9101 16.63L18.5201 19.24C18.9101 19.63 19.5401 19.63 19.9301 19.24C20.3201 18.85 20.3201 18.22 19.9301 17.83L4.12011 2.01003Z" fill="black" fill-opacity="0.54"/>
</svg>
