<svg width="24" height="24" viewBox="0 0 24 24" fill="none" xmlns="http://www.w3.org/2000/svg">
<path d="M5.9999 13.0001C6.5499 12.4501 6.5499 11.5601 5.9999 11.0101V11.0001C5.4499 10.4501 4.5499 10.4501 3.9999 11.0001C3.4499 11.5501 3.4499 12.4501 3.9999 13.0001C4.5499 13.5501 5.4499 13.5501 5.9999 13.0001ZM19.9999 11.0001C19.4399 10.4401 18.5499 10.4401 17.9999 10.9901V11.0001C17.4499 11.5501 17.4499 12.4401 17.9999 12.9901V13.0001C18.5499 13.5501 19.4399 13.5501 19.9899 13.0001H19.9999C20.5499 12.4501 20.5499 11.5501 19.9999 11.0001ZM16.9999 7.00005L12.7099 2.71005C12.0799 2.08005 10.9999 2.52005 10.9999 3.41005V9.59005L7.1099 5.70005C6.7199 5.31005 6.0899 5.31005 5.6999 5.70005C5.3099 6.09005 5.3099 6.72005 5.6999 7.11005L10.5899 12.0001L5.6999 16.8901C5.3099 17.2801 5.3099 17.9101 5.6999 18.3001C6.0899 18.6901 6.7199 18.6901 7.1099 18.3001L10.9999 14.4101V20.5901C10.9999 21.4801 12.0799 21.93 12.7099 21.3001L16.9999 17.0001C17.3899 16.6101 17.3899 15.9801 16.9999 15.5801L13.4099 12.0001L16.9999 8.42005C17.3899 8.03005 17.3899 7.39005 16.9999 7.00005ZM14.8799 16.2901L12.9999 18.1701V14.4101L14.8799 16.2901ZM12.9999 9.59005V5.83005L14.8799 7.71005L12.9999 9.59005Z" fill="black" fill-opacity="0.54"/>
</svg>
