<svg width="24" height="24" viewBox="0 0 24 24" fill="none" xmlns="http://www.w3.org/2000/svg">
<path d="M22.2999 13.77L20.4399 11.9C20.0499 11.51 19.4199 11.51 19.0299 11.9C18.6399 12.29 18.6399 12.92 19.0299 13.31L20.5399 14.83L14.8799 20.49L3.55989 9.17L9.21989 3.51L10.6199 4.91C11.0099 5.3 11.6399 5.3 12.0299 4.91C12.4199 4.52 12.4199 3.89 12.0299 3.5L10.2799 1.75C9.68989 1.16 8.73989 1.16 8.15989 1.75L1.79989 8.11C1.20989 8.7 1.20989 9.65 1.79989 10.23L13.8199 22.25C14.4099 22.84 15.3599 22.84 15.9399 22.25L22.2999 15.89C22.8899 15.3 22.8899 14.35 22.2999 13.77ZM15.0499 10H20.0499C20.5999 10 21.0499 9.55 21.0499 9V5C21.0499 4.45 20.5999 4 20.0499 4V3.5C20.0499 2.12 18.9299 1 17.5499 1C16.1699 1 15.0499 2.12 15.0499 3.5V4C14.4999 4 14.0499 4.45 14.0499 5V9C14.0499 9.55 14.4999 10 15.0499 10ZM15.8499 3.5C15.8499 2.56 16.6099 1.8 17.5499 1.8C18.4899 1.8 19.2499 2.56 19.2499 3.5V4H15.8499V3.5ZM8.84989 20.15L7.51989 21.48C4.42989 20.02 2.17989 17.11 1.62989 13.62C1.56989 13.21 1.18989 12.93 0.769891 13C0.359891 13.06 0.0798912 13.45 0.149891 13.86C0.749891 17.67 3.10989 20.87 6.38989 22.61C7.95989 23.44 9.93989 24.04 12.1899 23.99C12.3699 23.99 12.4499 23.77 12.3299 23.64L8.84989 20.15Z" fill="black" fill-opacity="0.54"/>
</svg>
